<?xml version="1.0" encoding="UTF-8"?>
<svg width="60.7mm" height="38.9mm" version="1.1" viewBox="0 0 60.7 38.9" xmlns="http://www.w3.org/2000/svg" xmlns:cc="http://creativecommons.org/ns#" xmlns:dc="http://purl.org/dc/elements/1.1/" xmlns:rdf="http://www.w3.org/1999/02/22-rdf-syntax-ns#">
 <defs>
  <clipPath id="clipPath214">
   <path d="m33.3 115h176v115h-176z"/>
  </clipPath>
 </defs>
 <metadata>
  <rdf:RDF>
   <cc:Work rdf:about="">
    <dc:format>image/svg+xml</dc:format>
    <dc:type rdf:resource="http://purl.org/dc/dcmitype/StillImage"/>
    <dc:title/>
   </cc:Work>
  </rdf:RDF>
 </metadata>
 <g transform="translate(68.6 -183)">
  <g transform="matrix(.353 0 0 -.353 -80.8 264)">
   <g clip-path="url(#clipPath214)">
    <g fill="none" stroke="#808386" stroke-miterlimit="10">
     <path d="m154 214c3.15 3.87 7.29 6.48 12.1 9.36 6.84 4.13 14 2.79 19.4-2.52l18.2-18.1c2.79-3.51 0.847-6.68-1.08-8.01l-18-10.9c-6.31-2.15-13.4 10.1-18.7 13.8l-6.31 5.49c-2.63 1.83-7.68 8.31-5.58 10.9z" stroke-width=".72"/>
     <g stroke-width=".18">
      <path d="m205 204-18.2 18.1c-5.53 5.01-12.6 6.65-19.4 2.52-4.37-2.64-8.2-5.05-11.2-8.41 2.68 2.43 5.84 4.4 9.35 6.52 6.84 4.13 13.8 2.42 19.4-2.52l18.2-18.1c1.91-2.4 1.6-4.64 0.6-6.25l0.21 0.127c1.93 1.33 3.87 4.5 1.08 8.01z"/>
      <path d="m165 216s9.9 2.82 16.3-1.26c5.81-3.7 8.16-8.88 7.98-13.5s-1.62-9.9-7.32-12.3l-14.2 21.4z"/>
      <path d="m201 200c0.447-1.42-0.123-2.86-1.27-3.22-1.15-0.362-2.44 0.494-2.89 1.91-0.447 1.42 0.124 2.86 1.27 3.22 1.15 0.362 2.44-0.494 2.89-1.91z"/>
     </g>
    </g>
    <path d="m64.2 153 1.62 32.9s0.72 11.1 10.4 14.5 49.6 19.1 49.6 19.1 4.77 5.58 11.2 5.13 33-7.02 39.8-17.9 4.59-23 4.59-23-1.53-6.12 1.08-11.5l-54.4-28.7s-2.61-0.45-3.6-0.27c0 0-12.2-8.37-17.8-7.29s-17.1 4.86-17.1 4.86-4.35 0.923-6.05 0.327z" fill="#fff"/>
    <g fill="none" stroke="#808386" stroke-miterlimit="10">
     <path d="m64.2 153 1.62 32.9s0.72 11.1 10.4 14.5 49.6 19.1 49.6 19.1 4.77 5.58 11.2 5.13 33-7.02 39.8-17.9 4.59-23 4.59-23-1.53-6.12 1.08-11.5l-54.4-28.7s-2.61-0.45-3.6-0.27c0 0-12.2-8.37-17.8-7.29s-17.1 4.86-17.1 4.86-4.35 0.923-6.05 0.327z" stroke-width=".72"/>
     <g stroke-width=".18">
      <path d="m101 159c0 4.6 3.68 8.34 8.22 8.34 4.54 0 8.22-3.73 8.22-8.34 0-4.6-3.68-8.34-8.22-8.34-4.54 0-8.22 3.73-8.22 8.34z"/>
      <path d="m65.4 176 5.76 7.16s3.24 4.18 9.94 2.12c4.93-1.52 11.2-5.04 16-9.27 3.15-2.79 5.29-6.62 5.6-11.9"/>
      <path d="m90.1 148s0.405 0.18 1.26 0.09 28.1-5.08 33.2-4.68"/>
      <path d="m90.5 149s0.405 0.18 1.26 0.09 27.5-4.61 32.7-4.79c0 0 2.43-0.067 2.59 0.968 0.143 0.944-0.09 2.07 1.26 2.61s52.8 27.3 52.8 27.3"/>
     </g>
    </g>
    <path d="m128 167c-2.78 6.2-9.16 16.2-20.2 21.6l3.91-15.4 18.1-17.6 0.052 0.026c0.136 2.51 0.034 7.06-1.87 11.3" fill="#f1f2f2"/>
    <g fill="none" stroke="#808386" stroke-miterlimit="10" stroke-width=".18">
     <path d="m110 159c0-0.634-0.514-1.15-1.15-1.15-0.633 0-1.15 0.514-1.15 1.15s0.514 1.15 1.15 1.15c0.634 0 1.15-0.514 1.15-1.15z"/>
     <path d="m80.3 202s7.2 0.12 12.8-3.66l53.9 22.7s-0.84 1.62-5.82 2.88"/>
     <path d="m107 189-2.94 1.98v2.94l44.2 20.1s6.98 0.499 11.4-1.38c4.38-1.86 14.5-8.16 18.2-20 0 0 3.42-11.6-2.28-15s-46.3-23.8-46.3-23.8 1.14 6.96-1.68 13.3-9.36 16.6-20.7 21.8z"/>
    </g>
    <path d="m146 164s1.15 7.25-1.67 13.6-9.49 14.3-20.8 19.6l5.26 2.18 1.8 2.48 2.74-0.315 1.93 0.939c11.3-5.28 17.7-13.2 20.6-19.5s1.62-13.1 1.62-13.1z" fill="#dddedf"/>
    <g fill="none" stroke="#808386" stroke-miterlimit="10">
     <path d="m146 164s1.15 7.25-1.67 13.6-9.49 14.3-20.8 19.6l5.26 2.18 1.8 2.48 2.74-0.315 1.93 0.939c11.3-5.28 17.7-13.2 20.6-19.5s1.62-13.1 1.62-13.1z" stroke-width=".18"/>
     <path d="m107 189 0.405 1.76 20.7 8.55 1.8 2.48 2.74-0.315 14.6 7.24s11.5 3.96 20.3-8.5 6.39-19.3 4.05-21.6-8.42-5.58-12.2-7.47-30.4-15.5-30.4-15.5l-18.1 17.6z" stroke-width=".18"/>
     <path d="m178 192c-3.72 11.8-13.9 18.1-18.2 20-4.42 1.88-11.4 1.38-11.4 1.38l-44.2-20.1v-2.94l2.94-1.98c0.175-0.08 0.346-0.168 0.518-0.252l3.91-15.4 18.1-17.6s0.021 0.011 0.052 0.026c-0.066-1.22-0.187-1.96-0.187-1.96s40.6 20.4 46.3 23.8c5.7 3.36 2.28 15 2.28 15z" stroke-width=".72"/>
     <path d="m89.6 162c3.31-9.26 0.613-18.7-6.03-21.1-6.64-2.38-14.7 3.2-18 12.5s-0.613 18.7 6.03 21.1c6.64 2.38 14.7-3.2 18-12.5z" stroke-width=".18"/>
    </g>
    <path d="m44.5 183c5.68-2.5 13.1-5.74 19.6-8.57 9.2-4.01 15.8-12.4 17.5-22.3l4.78-27.4c0.727-4.17-3.54-7.43-7.37-5.63l-20.8 9.77c-7.59 3.57-13.1 10.5-14.7 18.7l-6.09 29.7c-0.841 4.09 3.29 7.43 7.11 5.74" fill="#fff"/>
    <path d="m44.5 183c5.68-2.5 13.1-5.74 19.6-8.57 9.2-4.01 15.8-12.4 17.5-22.3l4.78-27.4c0.727-4.17-3.54-7.43-7.37-5.63l-20.8 9.77c-7.59 3.57-13.1 10.5-14.7 18.7l-6.09 29.7c-0.841 4.09 3.29 7.43 7.11 5.74z" fill="none" stroke="#808386" stroke-miterlimit="10" stroke-width=".72"/>
    <path d="m56 179s-0.667 7.81 1.68 10.7c2.64 3.3 5.76 4.2 5.76 4.2l6.66 2.1" fill="none" stroke="#808386" stroke-miterlimit="10" stroke-width=".18"/>
    <path d="m42.3 182c5.68-2.5 13.1-5.74 19.6-8.57 9.2-4.01 15.8-12.4 17.5-22.3l4.78-27.4c0.727-4.17-3.54-7.43-7.37-5.63l-20.8 9.77c-7.59 3.57-13.1 10.5-14.7 18.7l-6.09 29.7c-0.841 4.09 3.29 7.43 7.11 5.74" fill="#fff"/>
    <g fill="none" stroke="#808386" stroke-miterlimit="10">
     <path d="m42.3 182c5.68-2.5 13.1-5.74 19.6-8.57 9.2-4.01 15.8-12.4 17.5-22.3l4.78-27.4c0.727-4.17-3.54-7.43-7.37-5.63l-20.8 9.77c-7.59 3.57-13.1 10.5-14.7 18.7l-6.09 29.7c-0.841 4.09 3.29 7.43 7.11 5.74z" stroke-width=".72"/>
     <g stroke-width=".18">
      <path d="m80.2 125c0.436-1.45-0.077-2.88-1.15-3.2-1.07-0.322-2.29 0.589-2.72 2.04-0.436 1.45 0.077 2.88 1.15 3.2 1.07 0.323 2.29-0.589 2.72-2.04z"/>
      <path d="m42.6 175c0.436-1.45-0.077-2.88-1.15-3.2-1.07-0.322-2.29 0.589-2.72 2.04-0.436 1.45 0.077 2.88 1.15 3.2 1.07 0.323 2.29-0.589 2.72-2.04z"/>
      <path d="m71.5 154c3.31-9.26 0.613-18.7-6.03-21.1-6.64-2.38-14.7 3.2-18 12.5-3.31 9.26-0.614 18.7 6.03 21.1 6.64 2.38 14.7-3.2 18-12.5z"/>
     </g>
    </g>
    <g fill="#bdbfc1">
     <path d="m152 179c0.081-0.23-0.053-0.316-0.243-0.351s-0.365-6e-3 -0.447 0.224c-0.081 0.23 0.036 0.366 0.226 0.401s0.382-0.044 0.464-0.274"/>
     <path d="m154 179c0.081-0.23-0.053-0.316-0.243-0.351-0.191-0.035-0.366-6e-3 -0.447 0.224s0.035 0.366 0.225 0.401c0.191 0.035 0.383-0.044 0.465-0.274"/>
     <path d="m156 177c0.045-0.127-0.026-0.193-0.073-0.283-0.038-0.073-0.122-0.197-0.207-0.212-0.119-0.022-0.167 0.047-0.268 0.146-0.061 0.06-0.112 0.136-0.142 0.222s0 0.154 0.013 0.228c0.023 0.122 0.095 0.147 0.214 0.169 0.19 0.035 0.382-0.04 0.463-0.27"/>
     <path d="m148 184c0.108-0.061 0.124-0.073 0.171-0.207 0.081-0.229-7e-3 -0.351-0.197-0.386-0.191-0.035-0.412 0.03-0.493 0.26s-0.052 0.317 0.138 0.352c0.08 0.015 0.303 0.025 0.381-0.019"/>
     <path d="m145 185c0.071-0.049 0.17-0.106 0.202-0.197 0.062-0.176 0.021-0.261-0.124-0.288-0.146-0.027-0.307 0.06-0.369 0.236s-0.029 0.295 0.117 0.322c0.07 0.013 0.107-0.028 0.174-0.073"/>
     <path d="m153 177c0.062-0.176-5e-3 -0.34-0.151-0.367s-0.314 0.094-0.377 0.27c-0.062 0.176 6e-3 0.341 0.151 0.367 0.146 0.027 0.315-0.094 0.377-0.27"/>
     <path d="m155 173c0.089-0.064 0.283-0.145 0.323-0.26 0.034-0.095-0.013-0.123-0.033-0.201-0.028-0.111-0.053-0.258-0.164-0.278-0.112-0.021-0.177 0.079-0.275 0.167-0.069 0.062-0.184 0.09-0.217 0.185-0.081 0.23-0.06 0.309 0.13 0.344 0.096 0.018 0.147 0.107 0.236 0.043"/>
     <path d="m154 174c0.064-0.041 0.142-0.076 0.17-0.156 0.053-0.149-1e-3 -0.221-0.125-0.244-0.123-0.023-0.27 0.012-0.323 0.161-0.052 0.149 5e-3 0.289 0.129 0.311 0.056 0.011 0.095-0.037 0.149-0.072"/>
     <path d="m146 183c0.023-0.064-0.042-0.099-0.057-0.151-0.02-0.069-0.061-0.076-0.131-0.089-0.123-0.023-0.207 9e-3 -0.259 0.158-0.028 0.078 0.01 0.123 0.036 0.181 0.024 0.052 0.033 0.12 0.092 0.13 0.123 0.023 0.266-0.08 0.319-0.229"/>
     <path d="m138 189c0.037-0.035 0.123-0.048 0.142-0.1 0.046-0.129 0.063-0.218-0.043-0.237-0.107-0.02-0.297 0.037-0.342 0.165-0.046 0.129 4e-3 0.249 0.11 0.268 0.062 0.012 0.078-0.047 0.133-0.096"/>
     <path d="m150 176c0.045-0.128-4e-3 -0.248-0.111-0.267-0.106-0.02-0.229 0.068-0.274 0.196-0.046 0.129 4e-3 0.249 0.11 0.269 0.107 0.019 0.23-0.069 0.275-0.198"/>
     <path d="m157 175c0.027-0.078 0.017-0.138-0.017-0.188-0.022-0.033-0.081-0.051-0.122-0.059-0.107-0.019-0.167 0.027-0.212 0.156-0.015 0.042 0.017 0.096 0.022 0.133 9e-3 0.075 0.017 0.121 0.089 0.134 0.106 0.02 0.194-0.048 0.24-0.176"/>
     <path d="m148 180c0.06-0.034 0.125-0.067 0.152-0.142 0.02-0.059 0.108-0.145 0.093-0.192-0.019-0.054-0.094-0.108-0.151-0.119-0.077-0.014-0.184 0.083-0.243 0.156-0.022 0.028-0.072 0.049-0.085 0.084-0.045 0.128-0.023 0.24 0.084 0.26 0.044 8e-3 0.106-0.023 0.15-0.047"/>
     <path d="m149 176c0.06-0.036 0.125-0.068 0.152-0.142 0.02-0.06 0.108-0.146 0.093-0.192-0.019-0.054-0.094-0.108-0.151-0.12-0.077-0.013-0.184 0.084-0.242 0.157-0.023 0.028-0.073 0.049-0.085 0.084-0.046 0.127-0.024 0.239 0.083 0.259 0.044 8e-3 0.106-0.022 0.15-0.046"/>
     <path d="m152 178c0.06-0.034 0.126-0.067 0.152-0.142 0.02-0.059 0.108-0.145 0.092-0.192-0.018-0.054-0.093-0.108-0.15-0.119-0.077-0.014-0.184 0.083-0.243 0.156-0.022 0.028-0.072 0.049-0.084 0.084-0.046 0.128-0.024 0.24 0.083 0.26 0.044 8e-3 0.106-0.022 0.15-0.047"/>
     <path d="m151 181c0.06-0.034 0.126-0.067 0.152-0.142 0.02-0.059 0.109-0.145 0.093-0.192-0.018-0.054-0.094-0.108-0.151-0.119-0.077-0.014-0.184 0.083-0.242 0.156-0.023 0.027-0.073 0.049-0.085 0.084-0.046 0.128-0.024 0.24 0.083 0.26 0.044 8e-3 0.107-0.023 0.15-0.047"/>
     <path d="m142 186c0.06-0.034 0.125-0.068 0.152-0.142 0.02-0.059 0.109-0.145 0.093-0.192-0.019-0.054-0.094-0.108-0.151-0.119-0.077-0.014-0.184 0.083-0.242 0.156-0.023 0.028-0.073 0.049-0.086 0.084-0.045 0.129-0.023 0.239 0.084 0.26 0.044 7e-3 0.106-0.022 0.15-0.047"/>
     <path d="m151 182c0.06-0.034 0.126-0.068 0.152-0.142 0.02-0.059 0.109-0.145 0.093-0.192-0.019-0.054-0.094-0.108-0.151-0.119-0.077-0.014-0.184 0.083-0.242 0.156-0.023 0.028-0.073 0.049-0.085 0.084-0.046 0.128-0.024 0.24 0.083 0.26 0.044 8e-3 0.107-0.023 0.15-0.047"/>
     <path d="m152 177c0.06-0.035 0.125-0.068 0.152-0.142 0.02-0.059 0.109-0.145 0.093-0.192-0.019-0.054-0.094-0.108-0.151-0.119-0.077-0.014-0.184 0.083-0.243 0.156-0.022 0.028-0.072 0.049-0.085 0.084-0.045 0.128-0.023 0.24 0.084 0.26 0.044 8e-3 0.106-0.023 0.15-0.047"/>
     <path d="m151 176c0.06-0.035 0.125-0.067 0.152-0.142 0.02-0.059 0.108-0.145 0.093-0.192-0.019-0.054-0.095-0.108-0.151-0.119-0.077-0.014-0.184 0.083-0.243 0.156-0.022 0.028-0.072 0.049-0.085 0.084-0.045 0.128-0.023 0.24 0.083 0.26 0.045 8e-3 0.107-0.022 0.151-0.047"/>
     <path d="m155 175c0.06-0.035 0.127-0.068 0.152-0.142 0.02-0.06 0.109-0.145 0.093-0.192-0.019-0.054-0.094-0.108-0.151-0.119-0.077-0.014-0.184 0.082-0.242 0.156-0.023 0.027-0.073 0.049-0.085 0.084-0.046 0.128-0.024 0.24 0.083 0.26 0.044 8e-3 0.106-0.023 0.15-0.047"/>
     <path d="m153 174c0.06-0.035 0.126-0.068 0.152-0.143 0.02-0.059 0.108-0.145 0.093-0.191-0.019-0.054-0.094-0.108-0.151-0.12-0.077-0.013-0.184 0.084-0.242 0.157-0.023 0.027-0.073 0.048-0.085 0.084-0.046 0.128-0.024 0.24 0.083 0.259 0.044 9e-3 0.106-0.022 0.15-0.046"/>
     <path d="m152 174c0.06-0.035 0.126-0.068 0.152-0.142 0.021-0.059 0.109-0.145 0.093-0.192-0.018-0.054-0.093-0.108-0.151-0.119-0.077-0.014-0.183 0.083-0.242 0.156-0.023 0.027-0.073 0.049-0.085 0.083-0.045 0.129-0.024 0.241 0.083 0.261 0.045 8e-3 0.107-0.023 0.15-0.047"/>
     <path d="m150 180c0.06-0.035 0.126-0.068 0.151-0.142 0.021-0.059 0.11-0.145 0.093-0.192-0.018-0.054-0.093-0.108-0.151-0.119-0.076-0.014-0.183 0.083-0.241 0.156-0.024 0.028-0.073 0.049-0.085 0.084-0.047 0.129-0.024 0.24 0.083 0.26 0.044 8e-3 0.107-0.022 0.15-0.047"/>
     <path d="m154 183c0.06-0.034 0.126-0.067 0.152-0.142 0.02-0.059 0.109-0.145 0.093-0.192-0.018-0.054-0.094-0.108-0.151-0.119-0.077-0.014-0.184 0.083-0.242 0.156-0.023 0.027-0.073 0.049-0.085 0.084-0.046 0.128-0.024 0.24 0.083 0.26 0.044 8e-3 0.107-0.023 0.15-0.047"/>
     <path d="m154 182c0.06-0.035 0.126-0.068 0.151-0.142 0.02-0.059 0.11-0.145 0.093-0.192-0.018-0.054-0.093-0.108-0.151-0.119-0.076-0.014-0.183 0.083-0.241 0.156-0.024 0.028-0.073 0.049-0.085 0.084-0.047 0.129-0.025 0.24 0.083 0.26 0.043 8e-3 0.107-0.022 0.15-0.047"/>
     <path d="m154 169c0.045-0.128-4e-3 -0.248-0.111-0.268-0.106-0.02-0.228 0.069-0.274 0.197s4e-3 0.248 0.11 0.268c0.107 0.02 0.23-0.069 0.275-0.197"/>
     <path d="m143 185c0.045-0.128-4e-3 -0.248-0.111-0.268-0.106-0.019-0.229 0.069-0.274 0.197-0.046 0.129 4e-3 0.248 0.11 0.268s0.229-0.068 0.275-0.197"/>
     <path d="m154 177c0.064-0.041 0.141-0.075 0.17-0.156 0.053-0.15-1e-3 -0.221-0.125-0.244-0.123-0.022-0.27 0.012-0.323 0.161-0.052 0.15 5e-3 0.289 0.129 0.312 0.056 0.01 0.095-0.038 0.149-0.073"/>
     <path d="m149 178c0.045-0.128-4e-3 -0.248-0.111-0.268-0.106-0.019-0.229 0.069-0.274 0.197-0.045 0.129 4e-3 0.248 0.11 0.268 0.107 0.02 0.23-0.068 0.275-0.197"/>
     <path d="m143 195c0.081-0.23-0.053-0.316-0.243-0.351s-0.365-6e-3 -0.447 0.224c-0.081 0.23 0.036 0.366 0.226 0.401s0.383-0.044 0.464-0.274"/>
     <path d="m145 195c0.081-0.23-0.053-0.316-0.243-0.351-0.191-0.035-0.365-6e-3 -0.447 0.224-0.081 0.23 0.036 0.366 0.226 0.402 0.19 0.034 0.383-0.045 0.464-0.275"/>
     <path d="m146 193c0.045-0.127-0.025-0.192-0.073-0.283-0.038-0.073-0.122-0.196-0.207-0.211-0.119-0.023-0.167 0.046-0.268 0.145-0.061 0.06-0.111 0.136-0.141 0.222-0.031 0.086-1e-3 0.154 0.013 0.228 0.022 0.123 0.095 0.147 0.213 0.17 0.191 0.034 0.382-0.041 0.463-0.271"/>
     <path d="m139 199c0.108-0.061 0.124-0.073 0.171-0.207 0.081-0.229-7e-3 -0.351-0.197-0.386-0.191-0.035-0.412 0.03-0.493 0.259-0.081 0.23-0.052 0.318 0.138 0.353 0.08 0.015 0.303 0.025 0.381-0.019"/>
     <path d="m136 201c0.071-0.049 0.17-0.106 0.202-0.197 0.062-0.176 0.021-0.261-0.125-0.288-0.145-0.027-0.306 0.06-0.368 0.236s-0.029 0.295 0.117 0.322c0.07 0.013 0.107-0.028 0.174-0.073"/>
     <path d="m144 192c0.062-0.176-6e-3 -0.341-0.151-0.368-0.146-0.026-0.314 0.095-0.377 0.271-0.062 0.175 6e-3 0.34 0.151 0.367 0.146 0.027 0.315-0.094 0.377-0.27"/>
     <path d="m146 188c0.089-0.064 0.283-0.145 0.324-0.26 0.033-0.095-0.014-0.123-0.033-0.202-0.029-0.11-0.053-0.257-0.165-0.278-0.112-0.02-0.176 0.08-0.275 0.168-0.069 0.061-0.183 0.09-0.217 0.185-0.081 0.23-0.06 0.309 0.131 0.344 0.095 0.017 0.146 0.107 0.235 0.043"/>
     <path d="m147 181c-0.096 0.02-0.281 4e-3 -0.359 0.099-0.065 0.08-0.039 0.132-0.054 0.221-0.023 0.126-0.063 0.287 0.017 0.365 0.08 0.077 0.171 9e-3 0.283-0.03 0.079-0.028 0.181 1e-3 0.246-0.078 0.156-0.192 0.17-0.282 0.035-0.414-0.068-0.066-0.072-0.182-0.168-0.163"/>
     <path d="m149 186c0.071-0.033 0.163-0.062 0.217-0.129 0.039-0.05-8e-3 -0.169 0.014-0.231 0.045-0.129 0.088-0.183 0.038-0.273-0.039-0.07-0.122-0.106-0.205-0.122-0.108-0.019-0.162 0.051-0.258 0.132-0.075 0.063-0.15 0.098-0.186 0.199-0.033 0.096 0.019 0.167 0.039 0.246 0.028 0.11 0.048 0.213 0.159 0.233 0.069 0.013 0.114-0.024 0.182-0.055"/>
     <path d="m145 190c0.064-0.041 0.141-0.075 0.17-0.156 0.052-0.149-1e-3 -0.221-0.125-0.244-0.123-0.022-0.27 0.012-0.323 0.162-0.052 0.148 5e-3 0.288 0.129 0.311 0.056 0.01 0.095-0.038 0.149-0.073"/>
     <path d="m137 199c0.023-0.064-0.042-0.099-0.057-0.151-0.02-0.069-0.061-0.076-0.131-0.089-0.123-0.022-0.207 9e-3 -0.259 0.158-0.028 0.078 9e-3 0.123 0.036 0.181 0.024 0.052 0.033 0.12 0.092 0.13 0.123 0.023 0.266-0.08 0.319-0.229"/>
     <path d="m141 191c0.045-0.128-4e-3 -0.248-0.111-0.267-0.106-0.02-0.229 0.068-0.274 0.196-0.046 0.129 3e-3 0.248 0.11 0.268s0.23-0.068 0.275-0.197"/>
     <path d="m147 191c0.026-0.078 0.017-0.137-0.017-0.188-0.022-0.033-0.082-0.051-0.123-0.058-0.106-0.02-0.165 0.026-0.211 0.155-0.015 0.042 0.018 0.096 0.022 0.133 8e-3 0.076 0.017 0.122 0.088 0.134 0.107 0.02 0.194-0.048 0.241-0.176"/>
     <path d="m139 195c0.06-0.034 0.126-0.067 0.152-0.142 0.02-0.059 0.109-0.145 0.093-0.191-0.018-0.055-0.094-0.109-0.151-0.12-0.077-0.014-0.184 0.083-0.242 0.156-0.023 0.028-0.073 0.049-0.085 0.084-0.045 0.128-0.024 0.241 0.083 0.26 0.045 8e-3 0.106-0.022 0.15-0.047"/>
     <path d="m140 191c0.06-0.035 0.125-0.068 0.152-0.142 0.02-0.059 0.108-0.145 0.093-0.192-0.019-0.054-0.094-0.108-0.151-0.119-0.077-0.014-0.184 0.083-0.243 0.156-0.022 0.028-0.072 0.049-0.084 0.084-0.046 0.128-0.024 0.24 0.083 0.26 0.044 8e-3 0.106-0.022 0.15-0.047"/>
     <path d="m142 194c0.06-0.035 0.125-0.068 0.152-0.142 0.02-0.059 0.108-0.145 0.092-0.192-0.018-0.054-0.093-0.108-0.15-0.119-0.077-0.014-0.184 0.083-0.243 0.156-0.022 0.028-0.072 0.049-0.085 0.084-0.045 0.128-0.023 0.24 0.084 0.26 0.044 8e-3 0.106-0.023 0.15-0.047"/>
     <path d="m142 196c0.06-0.034 0.126-0.068 0.152-0.142 0.02-0.059 0.109-0.145 0.093-0.192-0.018-0.054-0.094-0.108-0.151-0.119-0.077-0.014-0.184 0.083-0.243 0.156-0.022 0.027-0.072 0.049-0.084 0.084-0.046 0.128-0.024 0.24 0.083 0.259 0.044 9e-3 0.106-0.022 0.15-0.046"/>
     <path d="m141 198c0.06-0.034 0.126-0.067 0.152-0.142 0.02-0.059 0.109-0.145 0.093-0.192-0.019-0.054-0.094-0.108-0.151-0.119-0.077-0.014-0.184 0.083-0.242 0.156-0.023 0.028-0.073 0.049-0.085 0.084-0.046 0.129-0.024 0.24 0.083 0.26 0.044 8e-3 0.107-0.023 0.15-0.047"/>
     <path d="m143 192c0.06-0.034 0.126-0.067 0.152-0.142 0.02-0.059 0.109-0.145 0.093-0.192-0.019-0.054-0.094-0.108-0.151-0.119-0.077-0.014-0.183 0.083-0.242 0.156-0.023 0.028-0.073 0.049-0.085 0.084-0.046 0.128-0.024 0.24 0.083 0.26 0.044 8e-3 0.107-0.022 0.15-0.047"/>
     <path d="m142 191c0.06-0.035 0.126-0.067 0.152-0.142 0.02-0.059 0.109-0.145 0.093-0.192-0.019-0.054-0.094-0.108-0.151-0.119-0.077-0.014-0.184 0.083-0.243 0.156-0.022 0.027-0.072 0.049-0.085 0.084-0.045 0.128-0.023 0.239 0.084 0.26 0.044 7e-3 0.106-0.022 0.15-0.047"/>
     <path d="m146 191c0.06-0.034 0.126-0.068 0.152-0.142 0.02-0.059 0.109-0.145 0.093-0.192-0.019-0.054-0.094-0.108-0.151-0.119-0.077-0.014-0.184 0.082-0.242 0.156-0.023 0.027-0.073 0.049-0.085 0.084-0.046 0.128-0.024 0.24 0.083 0.26 0.044 8e-3 0.106-0.023 0.15-0.047"/>
     <path d="m143 190c0.061-0.035 0.126-0.068 0.151-0.142 0.022-0.059 0.11-0.145 0.094-0.192-0.018-0.054-0.094-0.108-0.152-0.12-0.076-0.013-0.183 0.084-0.241 0.157-0.023 0.028-0.072 0.048-0.085 0.084-0.045 0.128-0.023 0.24 0.083 0.259 0.044 9e-3 0.107-0.022 0.15-0.046"/>
     <path d="m142 189c0.06-0.035 0.126-0.068 0.152-0.142 0.02-0.059 0.109-0.145 0.093-0.192-0.018-0.054-0.093-0.108-0.151-0.119-0.077-0.014-0.183 0.082-0.242 0.156-0.023 0.027-0.073 0.049-0.085 0.084-0.045 0.128-0.024 0.24 0.083 0.26 0.044 8e-3 0.107-0.023 0.15-0.047"/>
     <path d="m141 196c0.06-0.034 0.126-0.067 0.152-0.142 0.02-0.059 0.109-0.145 0.093-0.191-0.019-0.055-0.094-0.109-0.151-0.12-0.077-0.014-0.184 0.083-0.243 0.156-0.022 0.028-0.072 0.049-0.084 0.084-0.046 0.129-0.024 0.24 0.083 0.26 0.044 8e-3 0.107-0.022 0.15-0.047"/>
     <path d="m149 189c0.066-0.025 0.119-0.045 0.146-0.12 0.038-0.109-5e-3 -0.15-0.061-0.189-0.053-0.036-0.117-0.072-0.169-0.081-0.061-0.011-0.105 0.032-0.149 0.075-0.032 0.032-0.069 0.054-0.089 0.109-0.023 0.064 4e-3 0.101 0.025 0.149 0.019 0.049 0.091 0.067 0.144 0.077 0.065 0.012 0.106-2e-3 0.153-0.02"/>
     <path d="m148 185c0.045-0.128-4e-3 -0.248-0.111-0.268-0.106-0.019-0.228 0.069-0.274 0.197-0.046 0.129 3e-3 0.249 0.11 0.268 0.107 0.02 0.23-0.068 0.275-0.197"/>
     <path d="m145 185c0.045-0.128-4e-3 -0.248-0.111-0.268-0.106-0.02-0.228 0.069-0.274 0.197s4e-3 0.248 0.11 0.268c0.107 0.02 0.23-0.069 0.275-0.197"/>
     <path d="m148 186c0.045-0.128-4e-3 -0.248-0.111-0.268-0.106-0.019-0.229 0.069-0.274 0.197-0.046 0.129 4e-3 0.249 0.11 0.269 0.106 0.019 0.23-0.069 0.275-0.198"/>
     <path d="m152 185c0.045-0.129-4e-3 -0.249-0.111-0.268-0.106-0.02-0.229 0.069-0.274 0.197-0.046 0.128 4e-3 0.248 0.11 0.268 0.107 0.02 0.229-0.069 0.275-0.197"/>
     <path d="m134 201c0.045-0.128-4e-3 -0.248-0.111-0.268-0.106-0.019-0.229 0.069-0.274 0.197-0.046 0.129 4e-3 0.248 0.11 0.268 0.107 0.02 0.23-0.068 0.275-0.197"/>
     <path d="m135 202c0.045-0.128-4e-3 -0.248-0.111-0.268-0.106-0.019-0.229 0.069-0.274 0.197-0.046 0.129 4e-3 0.248 0.11 0.268 0.107 0.02 0.23-0.068 0.275-0.197"/>
     <path d="m145 193c0.064-0.041 0.141-0.075 0.17-0.157 0.053-0.149-1e-3 -0.22-0.125-0.243-0.123-0.022-0.27 0.012-0.323 0.161s5e-3 0.289 0.129 0.312c0.056 0.01 0.095-0.039 0.149-0.073"/>
     <path d="m140 193c0.045-0.128-4e-3 -0.248-0.111-0.268-0.106-0.019-0.229 0.069-0.274 0.197-0.046 0.129 4e-3 0.248 0.11 0.268s0.229-0.068 0.275-0.197"/>
     <path d="m149 176c-0.091 0.059-0.195 0.122-0.24 0.236-0.092 0.227-0.016 0.451 0.169 0.499 0.066 0.017 0.158-0.063 0.226-0.09 0.124-0.048 0.217-0.089 0.277-0.236 0.034-0.085-8e-3 -0.153-0.018-0.228-0.015-0.126-0.036-0.241-0.152-0.271-0.093-0.023-0.171 0.031-0.262 0.09"/>
     <path d="m149 172c-0.032 0.081 0.01 0.126 0.037 0.186 0.021 0.049 0.07 0.132 0.123 0.146 0.074 0.019 0.107-0.023 0.174-0.084 0.04-0.036 0.074-0.082 0.095-0.137 0.023-0.054 6e-3 -0.1 0-0.148-0.01-0.08-0.055-0.099-0.129-0.119-0.119-0.03-0.241 0.011-0.3 0.156"/>
     <path d="m152 170c-0.091 0.06-0.17 0.153-0.216 0.267-0.091 0.228 0.019 0.364 0.205 0.412 0.185 0.049 0.329-0.029 0.42-0.255 0.033-0.084 0.092-0.15 0.083-0.222-0.014-0.129-0.124-0.14-0.242-0.17-0.093-0.024-0.159-0.091-0.25-0.032"/>
     <path d="m151 168c-0.092 0.228-0.016 0.451 0.17 0.499 0.185 0.048 0.41-0.098 0.502-0.326 0.092-0.227-0.043-0.306-0.228-0.354-0.186-0.048-0.353-0.047-0.444 0.181"/>
     <path d="m146 186c-0.07 0.174-0.012 0.345 0.13 0.382 0.143 0.036 0.314-0.075 0.385-0.25 0.07-0.174 0.012-0.344-0.131-0.381-0.141-0.037-0.314 0.075-0.384 0.249"/>
     <path d="m148 180c-0.091 0.059-0.285 0.129-0.332 0.242-0.037 0.095 8e-3 0.126 0.023 0.207 0.022 0.114 0.038 0.264 0.147 0.292s0.178-0.069 0.279-0.151c0.071-0.059 0.185-0.08 0.223-0.174 0.092-0.228 0.075-0.309-0.11-0.357-0.093-0.024-0.139-0.118-0.23-0.059"/>
     <path d="m148 185c0.095-0.014 0.277 0.014 0.359-0.077 0.067-0.077 0.044-0.131 0.065-0.22 0.029-0.127 0.076-0.288 1e-3 -0.371-0.074-0.084-0.168-0.02-0.281 0.012-0.079 0.022-0.177-0.013-0.245 0.063-0.163 0.183-0.183 0.274-0.056 0.417 0.064 0.071 0.062 0.189 0.157 0.176"/>
     <path d="m144 186c-0.071 0.028-0.164 0.052-0.22 0.117-0.041 0.047 0 0.171-0.025 0.232-0.052 0.128-0.097 0.18-0.052 0.275 0.034 0.073 0.115 0.115 0.196 0.136 0.105 0.027 0.162-0.041 0.26-0.117 0.077-0.058 0.153-0.089 0.193-0.189 0.038-0.095-9e-3 -0.171-0.025-0.252-0.022-0.113-0.036-0.219-0.145-0.247-0.066-0.017-0.113 0.018-0.182 0.045"/>
     <path d="m149 180c-0.059 0.148-0.018 0.34 0.102 0.371s0.261-0.031 0.321-0.179c0.032-0.081 8e-3 -0.143-0.019-0.204-0.022-0.049-0.038-0.106-0.092-0.119-0.12-0.031-0.253-0.017-0.312 0.131"/>
     <path d="m152 184c0.06-0.034 0.125-0.067 0.152-0.142 0.02-0.059 0.108-0.145 0.093-0.192-0.019-0.054-0.094-0.108-0.151-0.119-0.077-0.014-0.184 0.083-0.243 0.156-0.022 0.028-0.072 0.049-0.085 0.084-0.045 0.128-0.023 0.24 0.084 0.26 0.044 8e-3 0.106-0.023 0.15-0.047"/>
     <path d="m152 185c-0.091 0.059-0.285 0.129-0.332 0.242-0.037 0.095 8e-3 0.126 0.023 0.207 0.022 0.114 0.038 0.264 0.147 0.292s0.178-0.069 0.279-0.151c0.071-0.059 0.185-0.08 0.223-0.174 0.092-0.228 0.075-0.309-0.11-0.357-0.093-0.024-0.139-0.118-0.23-0.059"/>
     <path d="m153 184c-0.059 0.148-0.018 0.34 0.102 0.371s0.261-0.031 0.321-0.179c0.032-0.081 8e-3 -0.143-0.019-0.204-0.022-0.049-0.038-0.106-0.092-0.119-0.12-0.031-0.253-0.017-0.312 0.131"/>
     <path d="m155 179c0.06-0.034 0.125-0.067 0.152-0.142 0.02-0.059 0.108-0.145 0.093-0.192-0.019-0.054-0.094-0.108-0.151-0.119-0.077-0.014-0.184 0.083-0.243 0.156-0.022 0.028-0.072 0.049-0.085 0.084-0.045 0.128-0.023 0.24 0.084 0.26 0.044 8e-3 0.106-0.023 0.15-0.047"/>
     <path d="m155 180c-0.091 0.059-0.285 0.129-0.332 0.242-0.037 0.095 8e-3 0.126 0.023 0.207 0.022 0.114 0.038 0.264 0.147 0.292s0.178-0.069 0.279-0.151c0.071-0.059 0.185-0.08 0.223-0.174 0.092-0.228 0.075-0.309-0.11-0.357-0.093-0.024-0.139-0.118-0.23-0.059"/>
     <path d="m156 179c-0.059 0.148-0.018 0.34 0.102 0.371s0.261-0.031 0.321-0.179c0.032-0.081 8e-3 -0.143-0.019-0.204-0.022-0.049-0.038-0.106-0.092-0.119-0.12-0.031-0.253-0.017-0.312 0.131"/>
     <path d="m149 170c-0.06 0.148-0.01 0.293 0.111 0.324 0.12 0.031 0.266-0.064 0.325-0.212 0.06-0.147 0.01-0.292-0.11-0.323-0.121-0.031-0.267 0.063-0.326 0.211"/>
     <path d="m148 168c-0.06 0.148 0.05 0.143 0.171 0.174 0.12 0.031 0.206 0.086 0.265-0.062 0.06-0.148 0.01-0.292-0.11-0.323-0.121-0.031-0.267 0.063-0.326 0.211"/>
     <path d="m146 168c-0.06 0.148 0.05 0.143 0.171 0.174 0.12 0.031 0.206 0.086 0.265-0.062 0.06-0.148 0.01-0.292-0.11-0.323-0.121-0.031-0.267 0.063-0.326 0.211"/>
     <path d="m148 167c-0.026 0.064 0.037 0.103 0.049 0.157 0.015 0.071 0.055 0.081 0.123 0.099 0.121 0.031 0.205 5e-3 0.264-0.144 0.031-0.076-3e-3 -0.125-0.026-0.185-0.022-0.054-0.027-0.123-0.084-0.138-0.121-0.031-0.267 0.063-0.326 0.211"/>
     <path d="m149 181c-0.038 0.032-0.063 0.114-0.084 0.165-0.025 0.064 3e-3 0.122 0.021 0.172 0.017 0.051 0.022 0.094 0.074 0.107 0.104 0.027 0.229-0.055 0.281-0.182 0.031-0.076 5e-3 -0.115-0.025-0.169-0.02-0.036-0.029-0.099-0.07-0.11-0.062-0.015-0.14-0.031-0.197 0.017"/>
     <path d="m152 187c0.06-0.034 0.126-0.067 0.152-0.142 0.02-0.059 0.109-0.145 0.093-0.192-0.019-0.054-0.094-0.108-0.151-0.119-0.077-0.014-0.184 0.083-0.242 0.156-0.023 0.028-0.073 0.049-0.085 0.084-0.046 0.129-0.024 0.24 0.083 0.26 0.044 8e-3 0.106-0.023 0.15-0.047"/>
     <path d="m151 186c-0.039 0.032-0.063 0.114-0.084 0.165-0.026 0.064 3e-3 0.122 0.021 0.172 0.017 0.051 0.022 0.094 0.074 0.107 0.103 0.027 0.229-0.055 0.281-0.182 0.031-0.076 5e-3 -0.115-0.025-0.169-0.02-0.036-0.029-0.099-0.07-0.11-0.062-0.016-0.14-0.031-0.197 0.017"/>
     <path d="m147 180c-0.051 0.127-9e-3 0.252 0.095 0.279s0.229-0.055 0.28-0.182c0.052-0.127 9e-3 -0.252-0.095-0.278-0.103-0.028-0.229 0.054-0.28 0.181"/>
     <path d="m148 175c-0.051 0.033-0.096 0.057-0.122 0.12-0.051 0.127-0.027 0.198 0.076 0.225 0.052 0.013 0.116 0.029 0.167-3e-3 0.05-0.033 0.093-0.138 0.118-0.201 0.052-0.128 0.023-0.176-0.081-0.203-0.051-0.013-0.107 0.029-0.158 0.062"/>
     <path d="m146 174c-0.06 0.035-0.125 0.068-0.152 0.142-0.02 0.059-0.108 0.146-0.093 0.192 0.019 0.054 0.094 0.108 0.151 0.119 0.077 0.014 0.184-0.083 0.242-0.156 0.023-0.028 0.073-0.049 0.085-0.084 0.046-0.128 0.024-0.24-0.083-0.26-0.044-8e-3 -0.106 0.023-0.15 0.047"/>
     <path d="m146 172c-0.045 0.128 4e-3 0.248 0.111 0.268 0.106 0.019 0.229-0.069 0.274-0.197 0.046-0.129-4e-3 -0.248-0.11-0.268-0.107-0.02-0.229 0.068-0.275 0.197"/>
     <path d="m146 174c0.091-0.059 0.194-0.122 0.24-0.236 0.092-0.227 0.016-0.451-0.17-0.499-0.065-0.017-0.158 0.063-0.226 0.09-0.123 0.048-0.217 0.089-0.276 0.236-0.035 0.085 7e-3 0.153 0.017 0.228 0.016 0.126 0.037 0.241 0.153 0.271 0.092 0.023 0.171-0.031 0.262-0.09"/>
     <path d="m147 176c0.051-0.033 0.096-0.057 0.122-0.12 0.051-0.127 0.027-0.198-0.076-0.225-0.052-0.013-0.115-0.029-0.166 4e-3s-0.094 0.137-0.119 0.2c-0.052 0.128-0.023 0.176 0.081 0.203 0.051 0.013 0.107-0.029 0.158-0.062"/>
     <path d="m151 170c-0.06 0.032-0.111 0.093-0.14 0.165-0.051 0.127-0.014 0.209 0.09 0.236 0.064 0.016 0.103-0.032 0.162-0.083 0.035-0.032 0.099-0.051 0.118-0.099 0.052-0.127 0.039-0.188-0.064-0.215-0.045-0.012-0.121-0.027-0.166-4e-3"/>
     <path d="m146 184c-0.043 0.033-0.041 0.126-0.064 0.182-0.051 0.127-0.054 0.183 0.049 0.209 0.052 0.014 0.088-0.051 0.14-0.084 0.05-0.033 0.115-0.033 0.141-0.097 0.051-0.127 9e-3 -0.252-0.095-0.278-0.058-0.016-0.116 0.026-0.171 0.068"/>
     <path d="m142 186c0.017 0.044 0.103 0.023 0.147 0.037 0.101 0.034 0.083 0.025 0.14-0.1 0.028-0.063 0.049-0.092 0.034-0.144-0.014-0.051 5e-3 -0.127-0.045-0.144-0.101-0.033-0.229 0.042-0.286 0.167-0.031 0.071-0.011 0.129 0.01 0.184"/>
     <path d="m140 187c-0.043 0.034-0.041 0.127-0.064 0.183-0.051 0.127-0.054 0.183 0.049 0.209 0.052 0.013 0.088-0.05 0.14-0.084 0.05-0.033 0.115-0.033 0.14-0.097 0.052-0.128 0.01-0.252-0.094-0.278-0.058-0.015-0.116 0.025-0.171 0.067"/>
     <path d="m145 182c-0.051 0.127-9e-3 0.252 0.095 0.278 0.104 0.027 0.229-0.054 0.28-0.182 0.052-0.127 9e-3 -0.251-0.095-0.278-0.103-0.027-0.229 0.055-0.28 0.182"/>
     <path d="m144 184c-0.051 0.127-9e-3 0.252 0.095 0.279s0.229-0.055 0.28-0.182c0.052-0.127 9e-3 -0.252-0.095-0.278-0.103-0.027-0.229 0.054-0.28 0.181"/>
     <path d="m145 176c-0.051 0.127-9e-3 0.252 0.095 0.279 0.104 0.026 0.229-0.055 0.28-0.182 0.052-0.127 9e-3 -0.252-0.095-0.279-0.103-0.026-0.229 0.055-0.28 0.182"/>
     <path d="m156 170c0.05-0.141-0.032-0.194-0.149-0.215-0.116-0.022-0.224-3e-3 -0.274 0.137-0.049 0.141 0.022 0.224 0.139 0.246 0.116 0.021 0.234-0.027 0.284-0.168"/>
     <path d="m147 180c0.045-0.127-0.026-0.193-0.073-0.284-0.039-0.072-0.122-0.196-0.207-0.211-0.119-0.022-0.167 0.046-0.269 0.146-0.06 0.06-0.11 0.136-0.14 0.222-0.031 0.086-2e-3 0.154 0.012 0.227 0.023 0.123 0.095 0.148 0.214 0.17 0.191 0.035 0.381-0.04 0.463-0.27"/>
     <path d="m142 183c0.045-0.127-0.026-0.193-0.073-0.283-0.039-0.073-0.122-0.197-0.207-0.212-0.119-0.022-0.168 0.047-0.269 0.146-0.06 0.06-0.111 0.136-0.141 0.222s-1e-3 0.155 0.013 0.227c0.023 0.123 0.095 0.148 0.214 0.17 0.19 0.035 0.381-0.04 0.463-0.27"/>
     <path d="m143 187c0.071-0.049 0.17-0.106 0.202-0.197 0.062-0.176 0.021-0.261-0.125-0.288-0.145-0.026-0.306 0.059-0.368 0.236-0.062 0.175-0.029 0.295 0.117 0.322 0.07 0.013 0.107-0.028 0.174-0.073"/>
     <path d="m139 188c0.06-0.039 0.19-0.083 0.221-0.159 0.026-0.063-4e-3 -0.084-0.013-0.138-0.014-0.076-0.024-0.176-0.096-0.196s-0.118 0.044-0.186 0.099c-0.048 0.038-0.124 0.052-0.149 0.114-0.063 0.151-0.052 0.205 0.071 0.239 0.061 0.017 0.091 0.08 0.152 0.041"/>
     <path d="m141 186c0.048-0.019 0.109-0.033 0.147-0.076 0.027-0.032 1e-3 -0.114 0.018-0.155 0.035-0.085 0.065-0.12 0.037-0.183-0.023-0.049-0.076-0.078-0.13-0.092-0.069-0.019-0.108 0.025-0.173 0.075-0.052 0.039-0.102 0.059-0.13 0.125-0.026 0.063 5e-3 0.114 0.015 0.168 0.014 0.076 0.023 0.147 0.095 0.166 0.044 0.012 0.075-0.011 0.121-0.028"/>
     <path d="m141 188c0.044-0.038 0.081-0.088 0.105-0.147 0.063-0.151-0.023-0.21-0.146-0.243-0.123-0.034-0.188-0.015-0.251 0.135-0.027 0.067-0.081 0.121-0.068 0.177 0.016 0.071 0.092 0.052 0.16 0.071 0.075 0.021 0.131 0.066 0.2 7e-3"/>
     <path d="m142 182c0.044-0.038 0.081-0.088 0.105-0.147 0.063-0.151-0.024-0.21-0.146-0.243-0.123-0.034-0.189-0.015-0.251 0.135-0.028 0.067-0.081 0.121-0.068 0.177 0.016 0.071 0.092 0.052 0.16 0.071 0.075 0.021 0.131 0.066 0.2 7e-3"/>
     <path d="m138 189c0.044-0.024 0.095-0.044 0.117-0.097 0.04-0.098 8e-3 -0.149-0.071-0.171-0.08-0.021-0.177-6e-3 -0.218 0.092-0.04 0.098-8e-3 0.195 0.072 0.217 0.036 0.01 0.063-0.02 0.1-0.041"/>
     <path d="m144 185c0.023-0.064-0.042-0.099-0.057-0.151-0.02-0.069-0.06-0.077-0.131-0.089-0.123-0.023-0.207 8e-3 -0.259 0.158-0.028 0.077 9e-3 0.123 0.036 0.181 0.024 0.052 0.033 0.119 0.091 0.13 0.124 0.022 0.267-0.08 0.32-0.229"/>
     <path d="m143 181c0.038-0.026 0.091-0.057 0.109-0.105 0.033-0.095 0.011-0.141-0.067-0.155-0.079-0.014-0.164 0.032-0.198 0.126-0.033 0.095-0.016 0.158 0.062 0.173 0.039 7e-3 0.058-0.015 0.094-0.039"/>
     <path d="m143 181c0.016-0.045-0.03-0.07-0.04-0.106-0.014-0.049-0.043-0.055-0.093-0.064-0.087-0.016-0.146 7e-3 -0.183 0.112-0.02 0.055 7e-3 0.088 0.025 0.128 0.017 0.037 0.024 0.084 0.065 0.092 0.087 0.016 0.189-0.057 0.226-0.162"/>
     <path d="m138 189c-0.028 0.011-0.065 0.02-0.087 0.046-0.017 0.019-1e-3 0.068-0.011 0.093-0.02 0.051-0.038 0.071-0.02 0.109 0.013 0.029 0.046 0.045 0.078 0.054 0.041 0.01 0.064-0.017 0.104-0.047 0.03-0.023 0.06-0.035 0.076-0.075 0.015-0.037-4e-3 -0.068-0.01-0.1-9e-3 -0.045-0.015-0.087-0.058-0.098-0.026-7e-3 -0.045 7e-3 -0.072 0.018"/>
     <path d="m139 188c-0.031 0.023-0.03 0.088-0.045 0.127-0.036 0.089-0.038 0.129 0.035 0.147 0.036 0.01 0.061-0.036 0.096-0.058 0.036-0.024 0.082-0.024 0.1-0.069 0.035-0.089 6e-3 -0.177-0.066-0.195-0.041-0.011-0.082 0.018-0.12 0.048"/>
     <path d="m140 188c-0.03 0.075-5e-3 0.148 0.055 0.164 0.062 0.016 0.135-0.032 0.166-0.107 0.03-0.075 5e-3 -0.148-0.056-0.164-0.061-0.015-0.135 0.032-0.165 0.107"/>
     <path d="m143 180c-0.03 0.075-5e-3 0.148 0.055 0.164 0.062 0.016 0.136-0.032 0.166-0.107s5e-3 -0.148-0.056-0.164c-0.061-0.015-0.135 0.032-0.165 0.107"/>
     <path d="m143 181c0.015-0.042-0.028-0.064-0.037-0.098-0.013-0.044-0.039-0.049-0.085-0.057-0.08-0.015-0.133 5e-3 -0.167 0.102-0.018 0.05 6e-3 0.08 0.023 0.117 0.016 0.034 0.022 0.077 0.06 0.084 0.079 0.015 0.172-0.052 0.206-0.148"/>
     <path d="m151 173c0.026-0.072-9e-3 -0.116-0.037-0.167-0.022-0.039-0.084-0.069-0.131-0.078-0.107-0.019-0.171 0.046-0.217 0.174-0.045 0.129 0.012 0.225 0.119 0.245 0.106 0.019 0.221-0.045 0.266-0.174"/>
     <path d="m145 183c0.028-0.078 0.017-0.137-0.017-0.188-0.022-0.033-0.081-0.051-0.122-0.058-0.106-0.02-0.166 0.026-0.212 0.155-0.014 0.042 0.018 0.096 0.022 0.133 9e-3 0.076 0.018 0.121 0.089 0.135 0.106 0.019 0.195-0.049 0.24-0.177"/>
     <path d="m145 177c0.028-0.078 0.017-0.137-0.017-0.188-0.022-0.033-0.081-0.051-0.122-0.058-0.107-0.02-0.166 0.027-0.212 0.155-0.014 0.042 0.018 0.096 0.022 0.133 9e-3 0.076 0.018 0.121 0.089 0.135 0.106 0.02 0.195-0.048 0.24-0.177"/>
     <path d="m155 171c0.066-0.025 0.12-0.045 0.146-0.12 0.039-0.108-4e-3 -0.15-0.06-0.189-0.054-0.036-0.118-0.071-0.17-0.081-0.061-0.011-0.104 0.032-0.149 0.075-0.032 0.032-0.069 0.054-0.089 0.109-0.023 0.064 5e-3 0.101 0.025 0.149 0.019 0.049 0.092 0.067 0.144 0.077 0.065 0.012 0.106-2e-3 0.153-0.02"/>
     <path d="m151 179c0.06-0.035 0.126-0.068 0.152-0.142 0.021-0.06 0.109-0.145 0.093-0.192-0.018-0.054-0.094-0.108-0.151-0.119-0.077-0.014-0.184 0.083-0.242 0.156-0.023 0.028-0.073 0.049-0.085 0.084-0.046 0.128-0.024 0.24 0.083 0.26 0.045 8e-3 0.106-0.023 0.15-0.047"/>
     <path d="m143 182c0.044-0.014 0.08-0.024 0.1-0.073 0.03-0.072 3e-3 -0.102-0.032-0.131-0.033-0.027-0.074-0.055-0.107-0.064-0.039-0.011-0.069 0.016-0.1 0.043-0.022 0.02-0.048 0.033-0.063 0.069-0.017 0.043-1e-3 0.069 0.01 0.102 0.011 0.034 0.057 0.05 0.092 0.059 0.041 0.012 0.069 5e-3 0.1-5e-3"/>
     <path d="m140 187c0.035-0.084 8e-3 -0.168-0.062-0.186-0.068-0.019-0.152 0.034-0.186 0.119-0.035 0.084-8e-3 0.167 0.06 0.186 0.069 0.019 0.153-0.034 0.188-0.119"/>
     <path d="m152 182c0.064-0.041 0.141-0.075 0.17-0.156 0.052-0.149-1e-3 -0.221-0.125-0.243-0.123-0.023-0.27 0.011-0.323 0.16-0.052 0.149 5e-3 0.289 0.128 0.312 0.057 0.01 0.096-0.038 0.15-0.073"/>
     <path d="m146 182c-0.053 0.034-0.167 0.075-0.193 0.141-0.023 0.055 4e-3 0.074 0.013 0.121 0.012 0.066 0.023 0.154 0.086 0.17 0.063 0.017 0.103-0.04 0.162-0.088 0.042-0.034 0.109-0.047 0.131-0.101 0.053-0.133 0.044-0.181-0.065-0.208-0.054-0.014-0.081-0.069-0.134-0.035"/>
     <path d="m152 169c0.092-0.013 0.267 0.014 0.345-0.074 0.066-0.074 0.043-0.127 0.063-0.213 0.028-0.121 0.073-0.276 1e-3 -0.356-0.072-0.081-0.162-0.019-0.27 0.011-0.076 0.022-0.171-0.012-0.237 0.061-0.157 0.177-0.176 0.264-0.053 0.401 0.061 0.069 0.06 0.183 0.151 0.17"/>
     <path d="m143 184c-0.051 0.127-9e-3 0.252 0.095 0.279 0.104 0.026 0.229-0.055 0.28-0.182 0.052-0.128 9e-3 -0.252-0.095-0.279-0.103-0.026-0.229 0.055-0.28 0.182"/>
     <path d="m125 197c-0.123 0.015-0.142 0.019-0.238 0.124-0.164 0.18-0.13 0.326 0.032 0.433 0.161 0.106 0.39 0.132 0.554-0.048 0.165-0.18 0.172-0.272 0.01-0.378-0.068-0.045-0.269-0.141-0.358-0.131"/>
     <path d="m132 199c-0.085 0.017-0.198 0.031-0.262 0.103-0.126 0.137-0.122 0.232 2e-3 0.313 0.124 0.082 0.305 0.065 0.431-0.073s0.142-0.261 0.018-0.343c-0.06-0.039-0.11-0.016-0.189 0"/>
     <path d="m130 200c-0.046 0.05 0 0.107-6e-3 0.161-9e-3 0.071 0.026 0.094 0.086 0.133 0.105 0.069 0.194 0.073 0.3-0.044 0.056-0.061 0.039-0.118 0.037-0.182-2e-3 -0.057 0.016-0.122-0.034-0.155-0.105-0.069-0.276-0.03-0.383 0.087"/>
     <path d="m136 190c-0.164 0.179-0.075 0.311 0.087 0.418 0.162 0.106 0.335 0.147 0.499-0.034 0.164-0.179 0.11-0.349-0.051-0.457-0.163-0.106-0.37-0.107-0.535 0.073"/>
     <path d="m134 191c-0.091 0.099-0.052 0.188-0.043 0.289 7e-3 0.082 0.036 0.228 0.109 0.275 0.1 0.067 0.172 0.023 0.303-0.029 0.08-0.032 0.156-0.082 0.217-0.15 0.061-0.067 0.061-0.142 0.077-0.215 0.026-0.121-0.031-0.173-0.132-0.239-0.162-0.106-0.367-0.111-0.531 0.069"/>
     <path d="m136 193c-0.127 0.138-0.127 0.316-4e-3 0.397 0.125 0.081 0.327 0.036 0.453-0.102 0.125-0.138 0.127-0.316 3e-3 -0.397-0.124-0.082-0.326-0.036-0.452 0.102"/>
     <path d="m129 194c-0.126 0.138-0.127 0.316-4e-3 0.397 0.125 0.081 0.327 0.036 0.453-0.102 0.125-0.138 0.127-0.316 3e-3 -0.397-0.124-0.082-0.326-0.036-0.452 0.102"/>
     <path d="m136 197c-0.126 0.138-0.127 0.316-4e-3 0.397 0.125 0.081 0.327 0.036 0.453-0.102 0.125-0.138 0.127-0.316 3e-3 -0.397-0.124-0.082-0.326-0.036-0.452 0.102"/>
     <path d="m132 196c-0.106 0.024-0.317 0.023-0.399 0.114-0.067 0.074-0.035 0.118-0.048 0.198-0.017 0.113-0.051 0.258 0.043 0.321 0.095 0.062 0.194-5e-3 0.319-0.048 0.087-0.03 0.205-0.012 0.272-0.086 0.164-0.18 0.175-0.261 0.015-0.368-0.082-0.053-0.095-0.155-0.202-0.131"/>
     <path d="m129 196c-0.078 3e-3 -0.175-7e-3 -0.25 0.034-0.056 0.031-0.058 0.159-0.102 0.207-0.093 0.102-0.153 0.134-0.142 0.238 8e-3 0.079 0.071 0.145 0.142 0.191 0.091 0.06 0.169 0.017 0.289-0.021 0.093-0.028 0.176-0.032 0.248-0.11 0.068-0.076 0.048-0.162 0.06-0.243 0.017-0.112 0.039-0.215-0.056-0.277-0.058-0.038-0.114-0.022-0.189-0.019"/>
     <path d="m134 195c-0.075 0.013-0.16 0.014-0.217 0.078-0.107 0.117-0.085 0.204 0.02 0.273s0.253 0.094 0.36-0.023 0.108-0.268 3e-3 -0.337c-0.048-0.032-0.102-2e-3 -0.166 9e-3"/>
     <path d="m132 193c-0.054 0.061-0.069 0.12-0.057 0.18 7e-3 0.039 0.054 0.078 0.089 0.101 0.091 0.06 0.164 0.04 0.256-0.06 0.03-0.033 0.022-0.096 0.033-0.132 0.02-0.073 0.03-0.119-0.031-0.158-0.09-0.06-0.198-0.031-0.29 0.069"/>
     <path d="m133 194c-0.069 8e-3 -0.142 0.014-0.195 0.072-0.042 0.046-0.157 0.091-0.16 0.14-5e-3 0.058 0.044 0.137 0.093 0.169 0.065 0.043 0.2-5e-3 0.283-0.049 0.032-0.017 0.086-0.017 0.111-0.045 0.092-0.101 0.115-0.212 0.025-0.272-0.038-0.024-0.107-0.021-0.157-0.015"/>
     <path d="m135 195c-0.069 8e-3 -0.142 0.014-0.195 0.072-0.043 0.046-0.157 0.091-0.161 0.14-4e-3 0.058 0.044 0.137 0.093 0.169 0.066 0.043 0.201-5e-3 0.284-0.049 0.032-0.017 0.086-0.017 0.111-0.045 0.092-0.1 0.115-0.212 0.025-0.272-0.038-0.025-0.108-0.021-0.157-0.015"/>
     <path d="m130 193c-0.07-2e-3 -0.127-5e-3 -0.181 0.054-0.077 0.085-0.054 0.14-0.017 0.198 0.035 0.053 0.08 0.111 0.123 0.14 0.053 0.034 0.11 0.012 0.167-0.011 0.042-0.017 0.085-0.022 0.124-0.066 0.046-0.05 0.035-0.094 0.036-0.147 0-0.052-0.059-0.097-0.104-0.127-0.054-0.036-0.098-0.04-0.148-0.041"/>
     <path d="m129 198c-0.091 0.1-0.093 0.23-3e-3 0.289 0.091 0.06 0.238 0.027 0.331-0.074 0.091-0.101 0.092-0.23 2e-3 -0.29-0.091-0.059-0.238-0.026-0.33 0.075"/>
     <path d="m132 199c-0.092 0.101-0.094 0.23-4e-3 0.29 0.091 0.06 0.239 0.026 0.33-0.074 0.093-0.101 0.093-0.231 4e-3 -0.291-0.092-0.059-0.239-0.025-0.33 0.075"/>
     <path d="m130 197c-0.092 0.1-0.093 0.23-3e-3 0.29 0.091 0.059 0.238 0.026 0.33-0.075s0.093-0.23 3e-3 -0.29c-0.09-0.059-0.238-0.025-0.33 0.075"/>
     <path d="m135 192c-0.075 0.013-0.159 0.014-0.217 0.078-0.107 0.117-0.085 0.204 0.02 0.273 0.105 0.068 0.253 0.094 0.36-0.023 0.106-0.117 0.108-0.268 3e-3 -0.337-0.048-0.031-0.103-2e-3 -0.166 9e-3"/>
     <path d="m132 198c0.132-0.133 0.145-0.313 0.028-0.402-0.116-0.089-0.318-0.053-0.451 0.08-0.132 0.133-0.145 0.313-0.028 0.402 0.116 0.089 0.319 0.053 0.451-0.08"/>
     <path d="m129 198c-0.093-0.024-0.249-0.121-0.36-0.068-0.092 0.044-0.093 0.103-0.146 0.177-0.076 0.106-0.182 0.236-0.146 0.341 0.036 0.106 0.147 0.084 0.264 0.098 0.082 0.01 0.158 0.082 0.25 0.038 0.222-0.106 0.276-0.182 0.214-0.362-0.031-0.091 0.017-0.199-0.076-0.224"/>
     <path d="m127 197c-0.093-0.024-0.249-0.121-0.36-0.068-0.092 0.044-0.093 0.103-0.146 0.177-0.076 0.106-0.182 0.235-0.146 0.341s0.147 0.084 0.264 0.098c0.082 0.01 0.158 0.082 0.25 0.038 0.222-0.106 0.276-0.182 0.214-0.362-0.031-0.091 0.017-0.199-0.076-0.224"/>
     <path d="m133 198c0.077 1e-3 0.172 0.016 0.248-0.022 0.057-0.028 0.067-0.157 0.114-0.204 0.097-0.098 0.159-0.128 0.155-0.233-3e-3 -0.081-0.062-0.15-0.128-0.202-0.086-0.065-0.165-0.025-0.286 7e-3 -0.093 0.024-0.175 0.023-0.251 0.099-0.072 0.072-0.058 0.161-0.074 0.242-0.024 0.113-0.052 0.215 0.037 0.283 0.055 0.042 0.111 0.029 0.185 0.03"/>
     <path d="m130 200c0.053-0.014 0.087-0.1 0.13-0.143 0.096-0.097 0.121-0.148 0.036-0.212-0.043-0.033-0.101 0.013-0.161 0.024-0.059 0.01-0.12-0.015-0.168 0.034-0.097 0.097-0.106 0.229-0.021 0.294 0.047 0.036 0.117 0.02 0.184 3e-3"/>
     <path d="m132 200c0.097-0.098 0.107-0.229 0.022-0.294-0.086-0.065-0.233-0.038-0.33 0.059-0.096 0.097-0.106 0.228-0.021 0.293s0.233 0.039 0.329-0.058"/>
     <path d="m133 199c-0.046 0.05 0 0.108-6e-3 0.161-9e-3 0.071 0.026 0.094 0.086 0.133 0.105 0.07 0.194 0.073 0.3-0.044 0.056-0.061 0.039-0.118 0.037-0.181-2e-3 -0.057 0.016-0.123-0.034-0.156-0.105-0.069-0.276-0.03-0.383 0.087"/>
     <path d="m131 201c-0.056 0.061-0.069 0.12-0.057 0.18 7e-3 0.039 0.054 0.078 0.089 0.101 0.091 0.059 0.164 0.04 0.256-0.061 0.03-0.033 0.021-0.095 0.032-0.131 0.021-0.073 0.031-0.119-0.03-0.158-0.09-0.06-0.198-0.032-0.29 0.069"/>
     <path d="m133 201c0.097-0.097 0.106-0.229 0.021-0.293-0.085-0.065-0.232-0.039-0.329 0.058s-0.106 0.23-0.021 0.295c0.085 0.063 0.233 0.037 0.329-0.06"/>
     <path d="m153 178c-0.051 0.033-0.096 0.057-0.122 0.121-0.051 0.126-0.027 0.197 0.076 0.224 0.052 0.014 0.116 0.029 0.167-4e-3s0.093-0.137 0.119-0.2c0.051-0.128 0.022-0.176-0.082-0.203-0.051-0.013-0.107 0.029-0.158 0.062"/>
     <path d="m156 171c-0.031 0.078-0.016 0.136 0.016 0.19 0.02 0.034 0.114 0.092 0.155 0.103 0.103 0.027 0.195-0.108 0.246-0.235 0.051-0.128-0.065-0.169-0.169-0.196-0.103-0.027-0.197 0.011-0.248 0.138"/>
     <path d="m143 186c-0.043 0.033-0.041 0.126-0.064 0.182-0.052 0.127-0.054 0.183 0.049 0.21 0.052 0.013 0.088-0.052 0.139-0.085s0.116-0.033 0.142-0.097c0.051-0.127 9e-3 -0.252-0.095-0.278-0.058-0.016-0.116 0.026-0.171 0.068"/>
     <path d="m141 187c-6e-3 0.052 0.069 0.076 0.098 0.115 0.063 0.088 0.105 0.107 0.202 0.011 0.048-0.05 0.023-0.104 0.034-0.164 0.011-0.061 0.058-0.125 0.026-0.168-0.064-0.089-0.194-0.082-0.291 0.015-0.053 0.054-0.062 0.124-0.069 0.191"/>
     <path d="m140 186c-5e-3 0.053 0.069 0.077 0.098 0.116 0.063 0.087 0.105 0.106 0.202 0.01 0.048-0.049 0.023-0.103 0.034-0.163 0.011-0.061 0.058-0.126 0.026-0.169-0.064-0.088-0.194-0.081-0.29 0.016-0.054 0.053-0.063 0.123-0.07 0.19"/>
     <path d="m136 189c-5e-3 0.053 0.069 0.077 0.097 0.116 0.064 0.087 0.107 0.106 0.204 0.01 0.048-0.049 0.022-0.103 0.033-0.163 0.011-0.061 0.058-0.126 0.026-0.169-0.063-0.088-0.194-0.081-0.291 0.016-0.052 0.053-0.061 0.123-0.069 0.19"/>
     <path d="m140 185c0.038 0.02 0.112-0.048 0.163-0.066 0.115-0.04 0.161-0.077 0.154-0.201-4e-3 -0.062-0.066-0.052-0.105-0.079-0.04-0.027-0.059-0.092-0.117-0.073-0.115 0.04-0.203 0.173-0.196 0.297 4e-3 0.068 0.053 0.097 0.101 0.122"/>
     <path d="m150 169c0.073-0.165-4e-3 -0.248-0.123-0.3s-0.234-0.052-0.307 0.113c-0.074 0.165-0.012 0.285 0.107 0.336 0.119 0.052 0.25 0.016 0.323-0.149"/>
     <path d="m155 172c0.063-0.037 0.121-0.102 0.157-0.184 0.074-0.165 0.01-0.278-0.109-0.331-0.119-0.051-0.217-4e-3 -0.291 0.161-0.027 0.059-0.069 0.104-0.068 0.161 2e-3 0.098 0.073 0.116 0.149 0.148 0.059 0.027 0.099 0.082 0.162 0.045"/>
     <path d="m156 175c0.075-0.033 0.086-0.039 0.129-0.135 0.073-0.165 0.028-0.27-0.09-0.322-0.119-0.051-0.267-0.03-0.341 0.134-0.073 0.166-0.063 0.236 0.056 0.288 0.05 0.022 0.192 0.059 0.246 0.035"/>
     <path d="m156 173c0.074-0.165 0.037-0.341-0.082-0.393-0.119-0.051-0.274 0.041-0.348 0.205-0.074 0.166 9e-3 0.237 0.128 0.288 0.119 0.052 0.228 0.065 0.302-0.1"/>
     <path d="m155 176c0.05-0.028 0.119-0.059 0.147-0.124 0.056-0.126 0.039-0.197-0.052-0.236-0.09-0.04-0.202 5e-3 -0.258 0.131-0.056 0.127-0.048 0.223 0.045 0.262 0.043 0.019 0.071-7e-3 0.118-0.033"/>
     <path d="m155 174c0.021-0.046-0.018-0.081-0.022-0.123-6e-3 -0.055-0.032-0.066-0.076-0.085-0.077-0.034-0.133-0.021-0.181 0.086-0.025 0.056-5e-3 0.097 6e-3 0.144 0.011 0.043 0.01 0.095 0.047 0.111 0.077 0.034 0.178-0.026 0.226-0.133"/>
     <path d="m147 172c0.041-0.092 0.021-0.19-0.046-0.219-0.066-0.029-0.153 0.022-0.194 0.115-0.042 0.092-0.022 0.19 0.045 0.218 0.066 0.03 0.154-0.021 0.195-0.114"/>
     <path d="m152 172c0.042-0.019 0.087-0.036 0.111-0.089 0.019-0.042 0.083-0.097 0.077-0.134-6e-3 -0.044-0.049-0.096-0.085-0.111-0.048-0.021-0.126 0.039-0.17 0.087-0.017 0.019-0.051 0.028-0.063 0.054-0.041 0.092-0.037 0.18 0.029 0.209 0.028 0.012 0.071-3e-3 0.101-0.016"/>
     <path d="m155 176c0.062 2e-3 0.176 0.048 0.237-0.012 0.051-0.05 0.041-0.094 0.062-0.159 0.031-0.094 0.076-0.21 0.036-0.284-0.04-0.073-0.105-0.037-0.181-0.027-0.053 7e-3 -0.113-0.034-0.163 0.016-0.122 0.119-0.143 0.186-0.075 0.311 0.034 0.062 0.021 0.153 0.084 0.155"/>
     <path d="m148 170c-0.047 0.035-0.09 0.086-0.121 0.148-0.08 0.162-5e-3 0.246 0.11 0.307 0.115 0.062 0.18 0.052 0.26-0.11 0.036-0.072 0.095-0.123 0.09-0.19-6e-3 -0.084-0.082-0.077-0.146-0.111-0.071-0.036-0.118-0.1-0.193-0.044"/>
     <path d="m152 171c-0.031 0.019-0.039 0.09-0.058 0.13-0.045 0.091-0.053 0.133 0.012 0.167 0.032 0.017 0.061-0.027 0.097-0.046 0.035-0.018 0.077-0.011 0.099-0.056 0.045-0.09 0.03-0.191-0.034-0.225-0.035-0.019-0.077 5e-3 -0.116 0.03"/>
     <path d="m148 171c-0.031 0.02-0.039 0.091-0.059 0.131-0.044 0.09-0.052 0.133 0.012 0.167 0.032 0.017 0.062-0.028 0.097-0.047 0.036-0.018 0.078-0.01 0.1-0.055 0.045-0.091 0.03-0.192-0.034-0.226-0.036-0.019-0.077 6e-3 -0.116 0.03"/>
     <path d="m151 174c-0.045 0.09-0.029 0.191 0.035 0.225 0.064 0.035 0.152-0.012 0.197-0.102s0.029-0.191-0.035-0.225-0.152 0.012-0.197 0.102"/>
    </g>
   </g>
  </g>
 </g>
</svg>
