<?xml version="1.0" encoding="UTF-8"?>
<svg width="264" height="209" version="1.1" viewBox="0 0 69.8 55.4" xmlns="http://www.w3.org/2000/svg" xmlns:cc="http://creativecommons.org/ns#" xmlns:dc="http://purl.org/dc/elements/1.1/" xmlns:rdf="http://www.w3.org/1999/02/22-rdf-syntax-ns#">
 <title>corelare xrf pt pd rh</title>
 <defs>
  <clipPath id="clipPath9605">
   <path d="m559 402h190v149h-190z" clip-rule="evenodd"/>
  </clipPath>
  <clipPath id="clipPath9617">
   <path d="m559 402h190v149h-190z" clip-rule="evenodd"/>
  </clipPath>
  <clipPath id="clipPath9629">
   <path d="m559 402h190v149h-190z" clip-rule="evenodd"/>
  </clipPath>
  <clipPath id="clipPath9641">
   <path d="m559 402h190v149h-190z" clip-rule="evenodd"/>
  </clipPath>
  <clipPath id="clipPath9653">
   <path d="m559 402h190v149h-190z" clip-rule="evenodd"/>
  </clipPath>
  <clipPath id="clipPath9665">
   <path d="m559 402h190v149h-190z" clip-rule="evenodd"/>
  </clipPath>
  <clipPath id="clipPath9677">
   <path d="m559 402h190v149h-190z" clip-rule="evenodd"/>
  </clipPath>
  <clipPath id="clipPath9689">
   <path d="m559 402h190v149h-190z" clip-rule="evenodd"/>
  </clipPath>
  <clipPath id="clipPath9701">
   <path d="m559 402h190v149h-190z" clip-rule="evenodd"/>
  </clipPath>
  <clipPath id="clipPath9713">
   <path d="m559 402h190v149h-190z" clip-rule="evenodd"/>
  </clipPath>
  <clipPath id="clipPath9797">
   <path d="m559 402h190v149h-190z" clip-rule="evenodd"/>
  </clipPath>
  <clipPath id="clipPath9869">
   <path d="m559 402h190v149h-190z" clip-rule="evenodd"/>
  </clipPath>
  <clipPath id="clipPath9893">
   <path d="m559 402h190v149h-190z" clip-rule="evenodd"/>
  </clipPath>
  <clipPath id="clipPath9907">
   <path d="m559 402h190v149h-190z" clip-rule="evenodd"/>
  </clipPath>
  <clipPath id="clipPath9921">
   <path d="m559 402h190v149h-190z" clip-rule="evenodd"/>
  </clipPath>
  <clipPath id="clipPath9935">
   <path d="m559 402h190v149h-190z" clip-rule="evenodd"/>
  </clipPath>
 </defs>
 <metadata>
  <rdf:RDF>
   <cc:Work rdf:about="">
    <dc:format>image/svg+xml</dc:format>
    <dc:type rdf:resource="http://purl.org/dc/dcmitype/StillImage"/>
    <dc:title>corelare xrf pt pd rh</dc:title>
   </cc:Work>
  </rdf:RDF>
 </metadata>
 <g transform="translate(-230 130)">
  <path d="m231-76.5h67v-52.6h-67z" fill="#fff" fill-rule="evenodd"/>
  <g fill="none" stroke-linejoin="round" stroke-miterlimit="10" stroke-width=".13">
   <path d="m237-88.2h57.8m-57.8-7.66h57.8m-57.8-7.63h57.8m-57.8-7.63h57.8m-57.8-7.65h57.8" stroke="#d9d9d9"/>
   <path d="m243-119v38.2m5.77-38.2v38.2m5.79-38.2v38.2m5.77-38.2v38.2m5.79-38.2v38.2m5.79-38.2v38.2m5.76-38.2v38.2m5.79-38.2v38.2m5.77-38.2v38.2m5.78-38.2v38.2" stroke="#d9d9d9"/>
   <path d="m237-80.5v-38.2" stroke="#bfbfbf"/>
   <path d="m237-80.5h57.8" stroke="#bfbfbf"/>
   <g stroke="#595959">
    <path d="m257-91.7h-0.0176m0.0176 0h0.0388m-0.0564-0.399v0.78m0.0564-0.78v0.78"/>
    <path d="m276-98.9h-0.0212m0.0212 0h0.0388m-0.06-0.388v0.776m0.06-0.776v0.776"/>
    <path d="m282-106h-0.0318m0.0318 0h0.0282m-0.06-0.388v0.78m0.06-0.78v0.78"/>
    <path d="m291-109h-0.0247m0.0247 0h0.0318m-0.0564-0.381v0.78m0.0564-0.78v0.78"/>
    <path d="m257-91.7v1.2m0-1.2v-1.21m-0.377 2.41h0.776m-0.776-2.41h0.776"/>
    <path d="m276-98.9v1.37m0-1.37v-1.37m-0.381 2.74h0.78m-0.78-2.74h0.78"/>
    <path d="m282-106v1.35m0-1.35v-1.34m-0.392 2.69h0.78m-0.78-2.69h0.78"/>
    <path d="m291-109v1.45m0-1.45v-1.43m-0.385 2.88h0.776m-0.776-2.88h0.776"/>
    <path d="m248-86.9v0.339m0-0.339v-0.339m-0.388 0.677h0.776m-0.776-0.677h0.776"/>
    <path d="m271-99.3v0.684m0-0.684v-0.691m-0.395 1.38h0.78m-0.78-1.38h0.78"/>
    <path d="m252-88.6v0.377m0-0.377v-0.37m-0.385 0.748h0.776m-0.776-0.748h0.776"/>
    <path d="m258-91.3v0.448m0-0.448v-0.459m-0.392 0.907h0.78m-0.78-0.907h0.78"/>
    <path d="m248-86.9h-0.0282m0.0282 0h0.0282m-0.0564-0.388v0.776m0.0564-0.776v0.776"/>
    <path d="m271-99.3h-0.0353m0.0353 0h0.0247m-0.06-0.395v0.78m0.06-0.78v0.78"/>
    <path d="m252-88.6h-0.0247m0.0247 0h0.0318m-0.0564-0.385v0.776m0.0564-0.776v0.776"/>
    <path d="m258-91.3h-0.0282m0.0282 0h0.0282m-0.0564-0.395v0.78m0.0564-0.78v0.78"/>
    <path d="m238-81.4v0.18m0-0.18v-0.194m-0.377 0.374h0.78m-0.78-0.374h0.78"/>
    <path d="m241-83.1v0.219m0-0.219v-0.233m-0.395 0.452h0.78m-0.78-0.452h0.78"/>
    <path d="m238-81.5v0.173m0-0.173v-0.173m-0.381 0.346h0.776m-0.776-0.346h0.776"/>
    <path d="m240-82.3v0.187m0-0.187v-0.18m-0.392 0.367h0.776m-0.776-0.367h0.776"/>
    <path d="m238-81.4h-0.0176m0.0176 0h0.0423m-0.06-0.399v0.78m0.06-0.78v0.78"/>
    <path d="m241-83.1h-0.0353m0.0353 0h0.0247m-0.06-0.395v0.776m0.06-0.776v0.776"/>
    <path d="m238-81.5h-0.0212m0.0212 0h0.0353m-0.0564-0.388v0.776m0.0564-0.776v0.776"/>
    <path d="m240-82.3h-0.0317m0.0317 0h0.0247m-0.0564-0.385v0.776m0.0564-0.776v0.776"/>
   </g>
  </g>
  <path d="m258-91.7c0 0.24-0.194 0.434-0.434 0.434s-0.437-0.194-0.437-0.434c0-0.24 0.198-0.437 0.437-0.437s0.434 0.198 0.434 0.437z" fill="#5b9bd5"/>
  <path d="m258-91.7c0 0.24-0.194 0.434-0.434 0.434s-0.437-0.194-0.437-0.434c0-0.24 0.198-0.437 0.437-0.437s0.434 0.198 0.434 0.437z" fill="none" stroke="#5b9bd5" stroke-linejoin="round" stroke-miterlimit="10" stroke-width=".125"/>
  <path d="m277-98.9c0 0.24-0.194 0.434-0.434 0.434s-0.437-0.194-0.437-0.434c0-0.243 0.198-0.437 0.437-0.437s0.434 0.194 0.434 0.437z" fill="#5b9bd5"/>
  <path d="m277-98.9c0 0.24-0.194 0.434-0.434 0.434s-0.437-0.194-0.437-0.434c0-0.243 0.198-0.437 0.437-0.437s0.434 0.194 0.434 0.437z" fill="none" stroke="#5b9bd5" stroke-linejoin="round" stroke-miterlimit="10" stroke-width=".125"/>
  <path d="m282-106c0 0.24-0.198 0.437-0.437 0.437s-0.434-0.198-0.434-0.437 0.194-0.434 0.434-0.434 0.437 0.194 0.437 0.434z" fill="#5b9bd5"/>
  <path d="m282-106c0 0.24-0.198 0.437-0.437 0.437s-0.434-0.198-0.434-0.437 0.194-0.434 0.434-0.434 0.437 0.194 0.437 0.434z" fill="none" stroke="#5b9bd5" stroke-linejoin="round" stroke-miterlimit="10" stroke-width=".125"/>
  <path d="m292-109c0 0.243-0.198 0.437-0.437 0.437s-0.434-0.194-0.434-0.437c0-0.24 0.194-0.434 0.434-0.434s0.437 0.194 0.437 0.434z" fill="#5b9bd5"/>
  <path d="m292-109c0 0.243-0.198 0.437-0.437 0.437s-0.434-0.194-0.434-0.437c0-0.24 0.194-0.434 0.434-0.434s0.437 0.194 0.437 0.434z" fill="none" stroke="#5b9bd5" stroke-linejoin="round" stroke-miterlimit="10" stroke-width=".125"/>
  <path d="m249-86.9c0 0.24-0.194 0.434-0.434 0.434s-0.437-0.194-0.437-0.434c0-0.243 0.198-0.437 0.437-0.437s0.434 0.194 0.434 0.437z" fill="#ed7d31"/>
  <path d="m249-86.9c0 0.24-0.194 0.434-0.434 0.434s-0.437-0.194-0.437-0.434c0-0.243 0.198-0.437 0.437-0.437s0.434 0.194 0.434 0.437z" fill="none" stroke="#ed7d31" stroke-linejoin="round" stroke-miterlimit="10" stroke-width=".125"/>
  <path d="m272-99.3c0 0.243-0.194 0.437-0.434 0.437s-0.437-0.194-0.437-0.437c0-0.24 0.198-0.434 0.437-0.434s0.434 0.194 0.434 0.434z" fill="#ed7d31"/>
  <path d="m272-99.3c0 0.243-0.194 0.437-0.434 0.437s-0.437-0.194-0.437-0.437c0-0.24 0.198-0.434 0.437-0.434s0.434 0.194 0.434 0.434z" fill="none" stroke="#ed7d31" stroke-linejoin="round" stroke-miterlimit="10" stroke-width=".125"/>
  <path d="m253-88.6c0 0.24-0.194 0.434-0.434 0.434-0.24 0-0.437-0.194-0.437-0.434 0-0.243 0.198-0.437 0.437-0.437 0.24 0 0.434 0.194 0.434 0.437z" fill="#ed7d31"/>
  <path d="m253-88.6c0 0.24-0.194 0.434-0.434 0.434-0.24 0-0.437-0.194-0.437-0.434 0-0.243 0.198-0.437 0.437-0.437 0.24 0 0.434 0.194 0.434 0.437z" fill="none" stroke="#ed7d31" stroke-linejoin="round" stroke-miterlimit="10" stroke-width=".125"/>
  <path d="m258-91.3c0 0.24-0.194 0.437-0.434 0.437-0.243 0-0.437-0.198-0.437-0.437s0.194-0.434 0.437-0.434c0.24 0 0.434 0.194 0.434 0.434z" fill="#ed7d31"/>
  <path d="m258-91.3c0 0.24-0.194 0.437-0.434 0.437-0.243 0-0.437-0.198-0.437-0.437s0.194-0.434 0.437-0.434c0.24 0 0.434 0.194 0.434 0.434z" fill="none" stroke="#ed7d31" stroke-linejoin="round" stroke-miterlimit="10" stroke-width=".125"/>
  <path d="m238-81.4c0 0.24-0.194 0.434-0.434 0.434s-0.437-0.194-0.437-0.434 0.198-0.434 0.437-0.434 0.434 0.194 0.434 0.434z" fill="#a5a5a5"/>
  <path d="m238-81.4c0 0.24-0.194 0.434-0.434 0.434s-0.437-0.194-0.437-0.434 0.198-0.434 0.437-0.434 0.434 0.194 0.434 0.434z" fill="none" stroke="#a5a5a5" stroke-linejoin="round" stroke-miterlimit="10" stroke-width=".125"/>
  <path d="m242-83.1c0 0.24-0.198 0.437-0.437 0.437s-0.434-0.198-0.434-0.437c0-0.24 0.194-0.434 0.434-0.434s0.437 0.194 0.437 0.434z" fill="#a5a5a5"/>
  <path d="m242-83.1c0 0.24-0.198 0.437-0.437 0.437s-0.434-0.198-0.434-0.437c0-0.24 0.194-0.434 0.434-0.434s0.437 0.194 0.437 0.434z" fill="none" stroke="#a5a5a5" stroke-linejoin="round" stroke-miterlimit="10" stroke-width=".125"/>
  <path d="m239-81.5c0 0.243-0.194 0.437-0.437 0.437-0.24 0-0.434-0.194-0.434-0.437 0-0.24 0.194-0.434 0.434-0.434 0.243 0 0.437 0.194 0.437 0.434z" fill="#a5a5a5"/>
  <path d="m239-81.5c0 0.243-0.194 0.437-0.437 0.437-0.24 0-0.434-0.194-0.434-0.437 0-0.24 0.194-0.434 0.434-0.434 0.243 0 0.437 0.194 0.437 0.434z" fill="none" stroke="#a5a5a5" stroke-linejoin="round" stroke-miterlimit="10" stroke-width=".125"/>
  <path d="m240-82.3c0 0.24-0.194 0.437-0.437 0.437-0.24 0-0.434-0.198-0.434-0.437 0-0.24 0.194-0.434 0.434-0.434 0.243 0 0.437 0.194 0.437 0.434z" fill="#a5a5a5"/>
  <g fill="none" stroke-linejoin="round" stroke-miterlimit="10">
   <path d="m240-82.3c0 0.24-0.194 0.437-0.437 0.437-0.24 0-0.434-0.198-0.434-0.437 0-0.24 0.194-0.434 0.434-0.434 0.243 0 0.437 0.194 0.437 0.434z" stroke="#a5a5a5" stroke-width=".125"/>
   <g stroke-dasharray="0, 0.518583" stroke-linecap="round" stroke-width=".259">
    <path d="m257-91.1 33.8-18.2" stroke="#5b9bd5"/>
    <path d="m248-86.5 23-12.6" stroke="#ed7d31"/>
    <path d="m238-81.4 3.22-1.78" stroke="#a5a5a5"/>
   </g>
  </g>
  <g transform="matrix(.353 0 0 -.353 29.3 63.5)">
   <g transform="translate(-3.75 -5.36)" clip-path="url(#clipPath9605)">
    <text transform="matrix(1 0 0 -1 615 515)" fill="#595959" font-family="Calibri" font-size="4.39px"><tspan x="0 2.39364 3.8693521 4.8399839 7.0008478 7.9934402 10.220184 11.318184 13.544928 15.771672 18.011593" y="0">R² = 0,9517</tspan></text>
   </g>
  </g>
  <g transform="matrix(.353 0 0 -.353 29.3 64.7)">
   <g clip-path="url(#clipPath9617)">
    <text transform="matrix(1 0 0 -1 650 513)" fill="#595959" font-family="Calibri" font-size="4.42px"><tspan x="0 2.4199679 3.903744 4.9105921 7.0965118 8.0945282 10.33344 11.45952 13.698432 15.924096 18.163008" y="0">R² = 0,9957</tspan></text>
   </g>
  </g>
  <g transform="matrix(.353 0 0 -.353 29.3 63.5)">
   <g clip-path="url(#clipPath9629)">
    <text transform="matrix(1 0 0 -1 692 509)" fill="#595959" font-family="Calibri" font-size="4.39px"><tspan x="0 2.39364 3.8693521 4.8619442 7.04916 8.0549278 10.281672 11.379672 13.619592 15.846336 18.07308" y="0">R² = 0,9984</tspan></text>
   </g>
  </g>
  <g transform="matrix(.353 0 0 -.353 34 65.2)">
   <g clip-path="url(#clipPath9641)">
    <text transform="matrix(1 0 0 -1 569 412)" fill="#595959" font-family="Calibri" font-size="4.42px"><tspan x="0" y="0">0</tspan></text>
   </g>
  </g>
  <g transform="matrix(.353 0 0 -.353 34 65.2)">
   <g clip-path="url(#clipPath9653)">
    <text transform="matrix(1 0 0 -1 564 434)" fill="#595959" font-family="Calibri" font-size="4.42px"><tspan x="0 2.2300799 4.4601598" y="0">500</tspan></text>
   </g>
  </g>
  <g transform="matrix(.353 0 0 -.353 34 65.2)">
   <g clip-path="url(#clipPath9665)">
    <text transform="matrix(1 0 0 -1 562 455)" fill="#595959" font-family="Calibri" font-size="4.42px"><tspan x="0 2.2300799 4.4601598 6.6902399" y="0">1000</tspan></text>
   </g>
  </g>
  <g transform="matrix(.353 0 0 -.353 34 65.2)">
   <g clip-path="url(#clipPath9677)">
    <text transform="matrix(1 0 0 -1 562 477)" fill="#595959" font-family="Calibri" font-size="4.39px"><tspan x="0 2.2311361 4.4622722 6.693408" y="0">1500</tspan></text>
   </g>
  </g>
  <g transform="matrix(.353 0 0 -.353 34 65.2)">
   <g clip-path="url(#clipPath9689)">
    <text transform="matrix(1 0 0 -1 562 498)" fill="#595959" font-family="Calibri" font-size="4.42px"><tspan x="0 2.2300799 4.4601598 6.6902399" y="0">2000</tspan></text>
   </g>
  </g>
  <g transform="matrix(.353 0 0 -.353 34 65.2)">
   <g clip-path="url(#clipPath9701)">
    <text transform="matrix(1 0 0 -1 562 520)" fill="#595959" font-family="Calibri" font-size="4.42px"><tspan x="0 2.2300799 4.4601598 6.6902399" y="0">2500</tspan></text>
   </g>
  </g>
  <g transform="matrix(.353 0 0 -.353 34 65.2)">
   <g clip-path="url(#clipPath9713)">
    <text transform="matrix(1 0 0 -1 574 406)" fill="#595959" font-family="Calibri" font-size="4.42px"><tspan x="0" y="0">0</tspan></text>
   </g>
  </g>
  <g transform="matrix(.353 0 0 -.353 34 65.2)">
   <g clip-path="url(#clipPath9797)" fill="#595959" font-family="Calibri" font-size="4.42px">
    <text transform="matrix(1 0 0 -1 588 406)"><tspan x="0 2.2300799 4.4601598" y="0">200</tspan></text>
    <text transform="matrix(1 0 0 -1 604 406)"><tspan x="0 2.2300799 4.4601598" y="0">400</tspan></text>
    <text transform="matrix(1 0 0 -1 621 406)"><tspan x="0 2.2300799 4.4601598" y="0">600</tspan></text>
    <text transform="matrix(1 0 0 -1 637 406)"><tspan x="0 2.2300799 4.4601598" y="0">800</tspan></text>
    <text transform="matrix(1 0 0 -1 652 406)"><tspan x="0 2.2300799 4.4601598 6.6902399" y="0">1000</tspan></text>
    <text transform="matrix(1 0 0 -1 669 406)"><tspan x="0 2.2565761 4.5131521 6.7697282" y="0">1200</tspan></text>
    <text transform="matrix(1 0 0 -1 685 406)"><tspan x="0 2.2300799 4.4601598 6.6902399" y="0">1400</tspan></text>
    <text transform="matrix(1 0 0 -1 702 406)"><tspan x="0 2.2300799 4.4601598 6.6902399" y="0">1600</tspan></text>
    <text transform="matrix(1 0 0 -1 718 406)"><tspan x="0 2.2300799 4.4601598 6.6902399" y="0">1800</tspan></text>
    <text transform="matrix(1 0 0 -1 734 406)"><tspan x="0 2.2300799 4.4601598 6.6902399" y="0">2000</tspan></text>
   </g>
  </g>
  <path d="m247-122c0 0.24-0.198 0.434-0.437 0.434s-0.434-0.194-0.434-0.434 0.194-0.434 0.434-0.434 0.437 0.194 0.437 0.434z" fill="#5b9bd5"/>
  <path d="m247-122c0 0.24-0.198 0.434-0.437 0.434s-0.434-0.194-0.434-0.434 0.194-0.434 0.434-0.434 0.437 0.194 0.437 0.434z" fill="none" stroke="#5b9bd5" stroke-linejoin="round" stroke-miterlimit="10" stroke-width=".13"/>
  <path d="m261-122c0 0.24-0.198 0.434-0.437 0.434s-0.434-0.194-0.434-0.434 0.194-0.434 0.434-0.434 0.437 0.194 0.437 0.434z" fill="#ed7d31"/>
  <path d="m261-122c0 0.24-0.198 0.434-0.437 0.434s-0.434-0.194-0.434-0.434 0.194-0.434 0.434-0.434 0.437 0.194 0.437 0.434z" fill="none" stroke="#ed7d31" stroke-linejoin="round" stroke-miterlimit="10" stroke-width=".13"/>
  <g transform="matrix(.353 0 0 -.353 34 65.2)">
   <g clip-path="url(#clipPath9869)">
    <text transform="matrix(1 0 0 -1 611 529)" fill="#595959" font-family="Calibri" font-size="4.39px"><tspan x="0 2.3027256" y="0">Pt</tspan></text>
    <text transform="matrix(1 0 0 -1 649 529)" fill="#595959" font-family="Calibri" font-size="4.39px"><tspan x="0 2.2785697" y="0">Pd</tspan></text>
    <text transform="scale(1,-1)" x="608.31561" y="-536.58167" font-family="Bould" font-size="9px" letter-spacing="0px" stroke-width=".75" word-spacing="0px" style="line-height:1.25" xml:space="preserve"><tspan x="608.31561" y="-536.58167" fill="#292929" font-family="'Nunito Sans'" font-size="9px" stroke-width=".75">Corelare după ajustare</tspan></text>
   </g>
  </g>
  <path d="m274-122c0 0.24-0.198 0.434-0.437 0.434s-0.434-0.194-0.434-0.434 0.194-0.434 0.434-0.434 0.437 0.194 0.437 0.434z" fill="#a5a5a5"/>
  <path d="m274-122c0 0.24-0.198 0.434-0.437 0.434s-0.434-0.194-0.434-0.434 0.194-0.434 0.434-0.434 0.437 0.194 0.437 0.434z" fill="none" stroke="#a5a5a5" stroke-linejoin="round" stroke-miterlimit="10" stroke-width=".13"/>
  <g transform="matrix(.353 0 0 -.353 34 65.2)">
   <g clip-path="url(#clipPath9893)">
    <text transform="matrix(1 0 0 -1 688 529)" fill="#595959" font-family="Calibri" font-size="4.39px"><tspan x="0 2.4235055" y="0">Rh</tspan></text>
   </g>
  </g>
  <path d="m245-119h4.36" fill="none" stroke="#5b9bd5" stroke-dasharray="0, 0.518583" stroke-linecap="round" stroke-linejoin="round" stroke-miterlimit="10" stroke-width=".259"/>
  <g transform="matrix(.353 0 0 -.353 34 65.2)">
   <g clip-path="url(#clipPath9907)">
    <text transform="matrix(1 0 0 -1 611 520)" fill="#595959" font-family="Calibri" font-size="4.42px"><tspan x="0 1.890048 2.9057281 5.2020478 7.427712 9.4899836 11.070912 12.068928 13.376064 15.6768 17.15616" y="0">Linear (Pt)</tspan></text>
   </g>
  </g>
  <path d="m258-119h4.36" fill="none" stroke="#ed7d31" stroke-dasharray="0, 0.518583" stroke-linecap="round" stroke-linejoin="round" stroke-miterlimit="10" stroke-width=".259"/>
  <g transform="matrix(.353 0 0 -.353 34 65.2)">
   <g clip-path="url(#clipPath9921)">
    <text transform="matrix(1 0 0 -1 649 520)" fill="#595959" font-family="Calibri" font-size="4.42px"><tspan x="0 1.867968 2.852736 5.131392 7.3570561 9.4193277 11.000256 11.985024 13.278912 15.561984 17.840639" y="0">Linear (Pd)</tspan></text>
   </g>
  </g>
  <path d="m272-119h4.36" fill="none" stroke="#a5a5a5" stroke-dasharray="0, 0.518583" stroke-linecap="round" stroke-linejoin="round" stroke-miterlimit="10" stroke-width=".259"/>
  <g transform="matrix(.353 0 0 -.353 34 65.2)">
   <g clip-path="url(#clipPath9935)">
    <text transform="matrix(1 0 0 -1 688 520)" fill="#595959" font-family="Calibri" font-size="4.42px"><tspan x="0 1.890048 2.9057281 5.2020478 7.427712 9.4899836 11.070912 12.068928 13.376064 15.796032 18.101185" y="0">Linear (Rh)</tspan></text>
   </g>
  </g>
  <rect x="231" y="-129" width="67" height="52.6" rx="1" ry="1" fill="none" stroke="#aaa" stroke-linejoin="round" stroke-width=".265" style="paint-order:markers fill stroke"/>
 </g>
</svg>
