<?xml version="1.0" encoding="UTF-8" standalone="no"?>
<!-- Created with Inkscape (http://www.inkscape.org/) -->

<svg
   width="650.26459mm"
   height="650.26459mm"
   viewBox="0 0 650.26459 650.26459"
   version="1.1"
   id="svg5"
   inkscape:version="1.1 (c68e22c387, 2021-05-23)"
   sodipodi:docname="favicon.svg"
   xmlns:inkscape="http://www.inkscape.org/namespaces/inkscape"
   xmlns:sodipodi="http://sodipodi.sourceforge.net/DTD/sodipodi-0.dtd"
   xmlns="http://www.w3.org/2000/svg"
   xmlns:svg="http://www.w3.org/2000/svg">
  <sodipodi:namedview
     id="namedview7"
     pagecolor="#ffffff"
     bordercolor="#666666"
     borderopacity="1.0"
     inkscape:pageshadow="2"
     inkscape:pageopacity="0.0"
     inkscape:pagecheckerboard="0"
     inkscape:document-units="mm"
     showgrid="false"
     fit-margin-top="0"
     fit-margin-left="0"
     fit-margin-right="0"
     fit-margin-bottom="0"
     inkscape:zoom="0.071713665"
     inkscape:cx="1234.0744"
     inkscape:cy="2398.4271"
     inkscape:window-width="1920"
     inkscape:window-height="1001"
     inkscape:window-x="-9"
     inkscape:window-y="-9"
     inkscape:window-maximized="1"
     inkscape:current-layer="layer1" />
  <defs
     id="defs2">
    <clipPath
       id="clipPath1146">
      <path
         d="m 462.69,114.58 h 132.73 v 122.1 H 462.69 Z"
         id="path47154" />
    </clipPath>
    <clipPath
       id="clipPath1206">
      <path
         d="M 0,0 H 792 V 612 H 0 Z"
         id="path47157" />
    </clipPath>
  </defs>
  <g
     inkscape:label="Layer 1"
     inkscape:groupmode="layer"
     id="layer1"
     transform="translate(1328.331,37.026697)">
    <g
       id="g55091">
      <rect
         style="fill:none;fill-opacity:1;stroke:#3a3a3a;stroke-width:0.264583;stroke-opacity:1"
         id="rect54865"
         width="650"
         height="650"
         x="-1328.1987"
         y="-36.894405" />
      <g
         transform="matrix(2.3757599,0,0,-2.3757599,-1990.711,458.77601)"
         id="g47200">
        <g
           clip-path="url(#clipPath1146)"
           id="g47190"
           transform="matrix(0,-1.935259,-1.935259,0,769.68402,1095.3951)">
          <path
             d="m 517.75,144.98 -0.235,-12.403 c 0,0 -0.149,-2.049 -2.967,-2.049 -2.818,0 -24.527,0.043 -24.527,0.043 0,0 -1.58,-0.107 -2.221,1.43 -0.64,1.537 -3.266,8.112 -3.266,8.112 0,0 -0.213,0.021 -0.362,0.299 -0.15,0.277 -3.736,11.954 -5.316,19.297 -1.579,7.343 -3.928,19.212 -6.745,29.843 -2.818,10.631 -5.166,17.803 -7.984,24.719 0,0 -0.534,1.089 0.235,1.473 0.768,0.385 5.016,2.092 5.529,2.199 0.512,0.107 1.579,0.278 3.202,-0.064 1.622,-0.342 3.074,-0.021 4.781,0.704 1.708,0.726 16.138,6.34 16.138,6.34 0,0 1.815,0.62 2.498,1.217 0.683,0.598 3.053,3.544 4.568,4.163 1.516,0.619 12.766,4.974 12.766,4.974 0,0 2.604,0.512 4.995,-1.345 0,0 1.772,-1.558 1.814,-1.836 0.043,-0.278 0.171,-0.299 0.171,-0.299 l 0.469,-0.128 0.363,-0.768 -0.128,-0.427 -0.192,-0.235 0.79,-7.728 c 0,0 1.43,-12.616 1.9,-17.547 0.469,-4.931 1.067,-8.859 3.97,-9.648 0,0 1.58,-0.406 3.715,0.811 2.134,1.217 31.123,12.274 31.123,12.274 v 0.448 c 0,0 2.348,1.9 3.522,3.117 1.174,1.217 3.822,1.302 4.739,0.043 l 0.427,-0.043 c 0,0 0.94,0.619 1.303,0.619 0,0 8.026,4.013 8.325,4.056 0,0 1.451,0.576 2.753,-0.769 1.303,-1.344 4.611,-8.303 6.639,-13.384 2.028,-5.08 3.992,-9.862 3.074,-11.314 0,0 -0.491,-0.939 -1.046,-0.832 -0.555,0.107 -3.778,0.832 -6.105,0.405 -2.327,-0.427 -3.757,-0.854 -3.757,-0.854 l -0.384,-0.064 c 0,0 -4.376,-1.963 -6.746,-2.86 -2.369,-0.896 -35.073,-12.018 -37.869,-12.701 0,0 -1.814,-0.363 -1.836,-1.836 -0.021,-1.473 0.022,-3.266 -2.583,-3.437 l -0.021,-1.046 c 0,0 -0.085,-2.37 -2.583,-2.54 0,0 -5.251,-0.128 -6.874,-3.949 l -0.064,-4.611 -0.234,-0.278 c 0,0 -0.662,-9.264 -1.388,-10.012 -0.726,-0.746 -1.409,-0.789 -1.409,-0.789 z"
             fill="#ffffff"
             id="path47164"
             style="fill:#dfdfdf;fill-opacity:1;stroke:#3a3a3a;stroke-opacity:1" />
          <path
             d="m 517.75,144.98 -0.235,-12.403 c 0,0 -0.149,-2.049 -2.967,-2.049 -2.818,0 -24.527,0.043 -24.527,0.043 0,0 -1.58,-0.107 -2.221,1.43 -0.64,1.537 -3.266,8.112 -3.266,8.112 0,0 -0.213,0.021 -0.362,0.299 -0.15,0.277 -3.736,11.954 -5.316,19.297 -1.579,7.343 -3.928,19.212 -6.745,29.843 -2.818,10.631 -5.166,17.803 -7.984,24.719 0,0 -0.534,1.089 0.235,1.473 0.768,0.385 5.016,2.092 5.529,2.199 0.512,0.107 1.579,0.278 3.202,-0.064 1.622,-0.342 3.074,-0.021 4.781,0.704 1.708,0.726 16.138,6.34 16.138,6.34 0,0 1.815,0.62 2.498,1.217 0.683,0.598 3.053,3.544 4.568,4.163 1.516,0.619 12.766,4.974 12.766,4.974 0,0 2.604,0.512 4.995,-1.345 0,0 1.772,-1.558 1.814,-1.836 0.043,-0.278 0.171,-0.299 0.171,-0.299 l 0.469,-0.128 0.363,-0.768 -0.128,-0.427 -0.192,-0.235 0.79,-7.728 c 0,0 1.43,-12.616 1.9,-17.547 0.469,-4.931 1.067,-8.859 3.97,-9.648 0,0 1.58,-0.406 3.715,0.811 2.134,1.217 31.123,12.274 31.123,12.274 v 0.448 c 0,0 2.348,1.9 3.522,3.117 1.174,1.217 3.822,1.302 4.739,0.043 l 0.427,-0.043 c 0,0 0.94,0.619 1.303,0.619 0,0 8.026,4.013 8.325,4.056 0,0 1.451,0.576 2.753,-0.769 1.303,-1.344 4.611,-8.303 6.639,-13.384 2.028,-5.08 3.992,-9.862 3.074,-11.314 0,0 -0.491,-0.939 -1.046,-0.832 -0.555,0.107 -3.778,0.832 -6.105,0.405 -2.327,-0.427 -3.757,-0.854 -3.757,-0.854 l -0.384,-0.064 c 0,0 -4.376,-1.963 -6.746,-2.86 -2.369,-0.896 -35.073,-12.018 -37.869,-12.701 0,0 -1.814,-0.363 -1.836,-1.836 -0.021,-1.473 0.022,-3.266 -2.583,-3.437 l -0.021,-1.046 c 0,0 -0.085,-2.37 -2.583,-2.54 0,0 -5.251,-0.128 -6.874,-3.949 l -0.064,-4.611 -0.234,-0.278 c 0,0 -0.662,-9.264 -1.388,-10.012 -0.726,-0.746 -1.409,-0.789 -1.409,-0.789 z"
             fill="none"
             stroke="#6d6e71"
             stroke-miterlimit="10"
             stroke-width="0.128"
             id="path47166"
             style="stroke:#3a3a3a;stroke-opacity:1" />
          <path
             d="m 522.02,222.47 c 0,0 1.43,-12.616 1.9,-17.547 0.469,-4.931 1.067,-8.859 3.97,-9.649 0,0 1.58,-0.405 3.715,0.811 2.134,1.217 31.123,12.275 31.123,12.275 v 0.448 c 0,0 2.348,1.9 3.522,3.117 1.174,1.216 3.822,1.302 4.739,0.042 l 0.427,-0.042 c 0,0 0.94,0.619 1.303,0.619 0,0 8.026,4.013 8.325,4.056 0,0 1.451,0.576 2.753,-0.769 1.303,-1.345 4.611,-8.304 6.639,-13.384 2.028,-5.081 3.992,-9.862 3.074,-11.314 0,0 -0.491,-0.939 -1.046,-0.832 -0.555,0.106 -3.778,0.832 -6.105,0.405 -2.327,-0.427 -3.757,-0.854 -3.757,-0.854 l -0.384,-0.064 c 0,0 -4.376,-1.964 -6.746,-2.86 -2.369,-0.897 -35.072,-12.019 -37.869,-12.701 0,0 -1.814,-0.363 -1.836,-1.836 -0.021,-1.473 0.022,-3.266 -2.583,-3.437 l -0.021,-1.046 c 0,0 -0.085,-2.37 -2.583,-2.541 0,0 -5.251,-0.128 -6.874,-3.949 l -0.064,-4.61 -0.234,-0.278 c 0,0 -0.662,-9.264 -1.388,-10.012 -0.726,-0.747 -1.409,-0.789 -1.409,-0.789 l -2.967,-0.79 c 0,0 -0.521,-0.237 -0.8,-0.548 -0.28,-0.311 -1.679,-0.311 -2.705,0.995 -1.026,1.305 -1.958,3.917 -2.114,6.963 -0.155,3.047 -1.679,61.74 -1.679,61.74 0,0 -0.373,3.948 2.798,5.471 3.171,1.523 6.653,2.829 7.368,2.86 0.715,0.031 1.306,0.317 1.508,0.05"
             fill="#d8d9da"
             id="path47168"
             style="fill:#96999c;fill-opacity:1;stroke:#3a3a3a;stroke-opacity:1" />
          <path
             d="m 522.02,222.47 c 0,0 1.43,-12.616 1.9,-17.547 0.469,-4.931 1.067,-8.859 3.97,-9.649 0,0 1.58,-0.405 3.715,0.811 2.134,1.217 31.123,12.275 31.123,12.275 v 0.448 c 0,0 2.348,1.9 3.522,3.117 1.174,1.216 3.822,1.302 4.739,0.042 l 0.427,-0.042 c 0,0 0.94,0.619 1.303,0.619 0,0 8.026,4.013 8.325,4.056 0,0 1.451,0.576 2.753,-0.769 1.303,-1.345 4.611,-8.304 6.639,-13.384 2.028,-5.081 3.992,-9.862 3.074,-11.314 0,0 -0.491,-0.939 -1.046,-0.832 -0.555,0.106 -3.778,0.832 -6.105,0.405 -2.327,-0.427 -3.757,-0.854 -3.757,-0.854 l -0.384,-0.064 c 0,0 -4.376,-1.964 -6.746,-2.86 -2.369,-0.897 -35.072,-12.019 -37.869,-12.701 0,0 -1.814,-0.363 -1.836,-1.836 -0.021,-1.473 0.022,-3.266 -2.583,-3.437 l -0.021,-1.046 c 0,0 -0.085,-2.37 -2.583,-2.541 0,0 -5.251,-0.128 -6.874,-3.949 l -0.064,-4.61 -0.234,-0.278 c 0,0 -0.662,-9.264 -1.388,-10.012 -0.726,-0.747 -1.409,-0.789 -1.409,-0.789 l -2.967,-0.79 c 0,0 -0.521,-0.237 -0.8,-0.548 -0.28,-0.311 -1.679,-0.311 -2.705,0.995 -1.026,1.305 -1.958,3.917 -2.114,6.963 -0.155,3.047 -1.679,61.74 -1.679,61.74 0,0 -0.373,3.948 2.798,5.471 3.171,1.523 6.653,2.829 7.368,2.86 0.715,0.031 1.306,0.317 1.508,0.05 z"
             fill="none"
             stroke="#6d6e71"
             stroke-miterlimit="10"
             stroke-width="0.128"
             id="path47170"
             style="stroke:#3a3a3a;stroke-opacity:1" />
          <path
             d="m 521.34,231.66 -0.47,0.128 c 0,0 -0.128,0.021 -0.17,0.299 -0.043,0.277 -1.815,1.836 -1.815,1.836 -2.391,1.857 -4.995,1.344 -4.995,1.344 0,0 -11.25,-4.354 -12.765,-4.973 -1.516,-0.619 -3.885,-3.565 -4.569,-4.163 -0.683,-0.598 -2.497,-1.216 -2.497,-1.216 0,0 -14.43,-5.615 -16.138,-6.34 -1.708,-0.726 -3.159,-1.047 -4.782,-0.705 -1.622,0.342 -2.69,0.171 -3.202,0.064 -0.512,-0.107 -4.76,-1.815 -5.529,-2.199 -0.768,-0.384 -0.235,-1.473 -0.235,-1.473 2.818,-6.916 5.166,-14.089 7.984,-24.719 2.818,-10.631 5.166,-22.5 6.746,-29.843 1.579,-7.343 5.257,-18.953 5.356,-19.252 0.255,-0.765 1.046,-0.572 1.046,-0.572 0,0 13.473,4.215 18.08,6.319 4.302,1.964 3.822,9.392 3.822,9.392 0,0 -1.751,51.659 -2.028,60.07 -0.278,8.41 0.619,8.699 2.006,10.737 1.324,1.868 6.639,3.736 8.155,4.205 1.515,0.47 3.842,1.409 4.418,1.153 0.577,-0.256 1.625,-1.522 1.625,-1.522 l 0.192,0.234 0.128,0.428 z"
             fill="#5b7bb4"
             id="path47172"
             style="fill:#395e9f;fill-opacity:1;stroke:#3a3a3a;stroke-opacity:1" />
          <path
             d="m 521.34,231.66 -0.47,0.128 c 0,0 -0.128,0.021 -0.17,0.299 -0.043,0.277 -1.815,1.836 -1.815,1.836 -2.391,1.857 -4.995,1.344 -4.995,1.344 0,0 -11.25,-4.354 -12.765,-4.973 -1.516,-0.619 -3.885,-3.565 -4.569,-4.163 -0.683,-0.598 -2.497,-1.216 -2.497,-1.216 0,0 -14.43,-5.615 -16.138,-6.34 -1.708,-0.726 -3.159,-1.047 -4.782,-0.705 -1.622,0.342 -2.69,0.171 -3.202,0.064 -0.512,-0.107 -4.76,-1.815 -5.529,-2.199 -0.768,-0.384 -0.235,-1.473 -0.235,-1.473 2.818,-6.916 5.166,-14.089 7.984,-24.719 2.818,-10.631 5.166,-22.5 6.746,-29.843 1.579,-7.343 5.257,-18.953 5.356,-19.252 0.255,-0.765 1.046,-0.572 1.046,-0.572 0,0 13.473,4.215 18.08,6.319 4.302,1.964 3.822,9.392 3.822,9.392 0,0 -1.751,51.659 -2.028,60.07 -0.278,8.41 0.619,8.699 2.006,10.737 1.324,1.868 6.639,3.736 8.155,4.205 1.515,0.47 3.842,1.409 4.418,1.153 0.577,-0.256 1.625,-1.522 1.625,-1.522 l 0.192,0.234 0.128,0.428 z"
             fill="none"
             stroke="#5a5a5c"
             stroke-miterlimit="10"
             stroke-width="0.128"
             id="path47174"
             style="stroke:#3a3a3a;stroke-opacity:1" />
          <path
             d="m 590.57,202.57 c -2.028,5.08 -5.337,12.04 -6.639,13.384 -1.302,1.345 -2.754,0.769 -2.754,0.769 -0.005,-0.001 -0.017,-0.006 -0.027,-0.008 -0.006,-0.002 -0.011,-0.004 -0.016,-0.005 -0.004,-0.002 -0.005,-0.002 -0.009,-0.003 -0.029,-0.01 -0.049,-0.017 -0.049,-0.017 -0.284,-0.041 -7.574,-3.681 -8.267,-4.027 -0.062,-0.007 -0.137,-0.026 -0.219,-0.056 -0.352,-0.099 -0.906,-0.442 -1.083,-0.555 l -0.384,0.039 c -0.689,0.945 -2.353,1.133 -3.637,0.652 -0.465,-0.159 -0.887,-0.401 -1.203,-0.728 -1.174,-1.217 -3.522,-3.117 -3.522,-3.117 v -0.448 c 0,0 -28.989,-11.058 -31.123,-12.274 -0.496,-0.283 -0.959,-0.475 -1.382,-0.608 -1.344,-0.398 -2.232,-0.17 -2.232,-0.17 -2.903,0.789 -3.501,4.717 -3.97,9.648 -0.47,4.931 -1.9,17.547 -1.9,17.547 l -0.79,7.728 0.019,0.023 0.025,-0.03 0.193,0.235 0.128,0.427 -0.363,0.768 -0.47,0.128 c 0,0 -0.128,0.021 -0.17,0.299 -0.043,0.278 -1.815,1.836 -1.815,1.836 -1.06,0.823 -2.161,1.18 -3.059,1.323 -0.73,0.121 -1.328,0.101 -1.67,0.069 -0.25,-0.019 -0.394,-0.047 -0.394,-0.047 0,0 -11.25,-4.355 -12.766,-4.974 -1.515,-0.619 -3.885,-3.565 -4.568,-4.163 -0.683,-0.597 -2.497,-1.217 -2.497,-1.217 0,0 -14.431,-5.614 -16.138,-6.34 -1.047,-0.445 -1.998,-0.736 -2.951,-0.817 -0.467,-0.034 -0.936,-0.016 -1.418,0.06 -0.095,0.016 -0.19,0.033 -0.285,0.053 -0.21,0.044 -0.409,0.079 -0.6,0.107 -0.783,0.12 -1.411,0.117 -1.887,0.076 -0.363,-0.028 -0.645,-0.078 -0.843,-0.119 -0.512,-0.107 -4.76,-1.814 -5.529,-2.199 -0.768,-0.384 -0.235,-1.473 -0.235,-1.473 2.818,-6.916 5.166,-14.088 7.984,-24.719 2.818,-10.631 5.166,-22.499 6.745,-29.843 1.58,-7.343 5.166,-19.02 5.316,-19.297 0.149,-0.278 0.363,-0.299 0.363,-0.299 0,0 2.625,-6.575 3.266,-8.112 0.64,-1.537 2.22,-1.43 2.22,-1.43 0,0 21.709,-0.043 24.527,-0.043 0.185,0 0.357,0.009 0.519,0.026 2.397,0.199 2.532,2.031 2.532,2.031 l 0.235,12.396 2.866,0.763 c 0,0 0.137,0.009 0.353,0.085 0.264,0.078 0.702,0.269 1.157,0.738 0.726,0.747 1.387,10.011 1.387,10.011 l 0.235,0.278 0.064,4.611 c 0.808,1.901 2.514,2.888 4.024,3.4 1.482,0.484 2.749,0.516 2.749,0.516 0.332,0.023 0.619,0.086 0.871,0.176 1.743,0.547 1.813,2.397 1.813,2.397 l 0.021,1.022 c 0.375,0.031 0.695,0.098 0.965,0.193 1.627,0.511 1.6,2.006 1.618,3.268 0.016,1.085 1.003,1.566 1.523,1.745 0.128,0.04 0.212,0.058 0.212,0.058 0.574,0.14 2.41,0.721 4.983,1.562 9.922,3.241 31.097,10.457 32.987,11.172 2.212,0.837 6.171,2.603 6.688,2.835 l 0.341,0.057 c 0,0 1.43,0.427 3.757,0.853 2.327,0.427 5.55,-0.298 6.105,-0.405 0.105,-0.02 0.207,-0.003 0.304,0.038 0.466,0.107 0.843,0.827 0.843,0.827 0.918,1.452 -1.046,6.234 -3.074,11.314 z"
             fill="none"
             stroke="#6d6e71"
             stroke-miterlimit="10"
             stroke-width="0.512"
             id="path47176"
             style="stroke:#3a3a3a;stroke-opacity:1" />
        </g>
      </g>
    </g>
  </g>
</svg>
