<?xml version="1.0" encoding="UTF-8"?>
<svg width="73.013mm" height="54.81mm" version="1.1" viewBox="0 0 73.013 54.81" xmlns="http://www.w3.org/2000/svg" xmlns:cc="http://creativecommons.org/ns#" xmlns:dc="http://purl.org/dc/elements/1.1/" xmlns:rdf="http://www.w3.org/1999/02/22-rdf-syntax-ns#">
 <defs>
  <clipPath id="clipPath214">
   <path d="m33.258 114.91h176.18v115.25h-176.18z"/>
  </clipPath>
  <clipPath>
   <path d="m0 0h792v612h-792z"/>
  </clipPath>
 </defs>
 <metadata>
  <rdf:RDF>
   <cc:Work rdf:about="">
    <dc:format>image/svg+xml</dc:format>
    <dc:type rdf:resource="http://purl.org/dc/dcmitype/StillImage"/>
    <dc:title/>
   </cc:Work>
  </rdf:RDF>
 </metadata>
 <g transform="translate(74.724 -175.44)">
  <g transform="matrix(.35278 0 0 -.35278 -80.83 263.54)">
   <g clip-path="url(#clipPath214)">
    <path d="m153.76 213.6c3.15 3.87 7.29 6.48 12.06 9.36 6.84 4.13 14.031 2.79 19.44-2.52l18.18-18.09c2.79-3.51 0.847-6.681-1.08-8.01l-18-10.89c-6.311-2.153-13.439 10.093-18.714 13.767l-6.306 5.493c-2.627 1.83-7.678 8.312-5.58 10.89z" fill="none" stroke="#808386" stroke-miterlimit="10" stroke-width=".72"/>
    <path d="m205.39 204.16-18.181 18.09c-5.534 5.006-12.599 6.65-19.439 2.52-4.368-2.637-8.205-5.051-11.24-8.411 2.682 2.432 5.845 4.405 9.35 6.521 6.84 4.13 13.779 2.424 19.44-2.52l18.18-18.09c1.909-2.402 1.602-4.644 0.6-6.247l0.21 0.127c1.927 1.329 3.869 4.5 1.08 8.01z" fill="none" stroke="#808386" stroke-miterlimit="10" stroke-width=".18"/>
    <path d="m164.53 216.15s9.9 2.82 16.32-1.26c5.814-3.695 8.16-8.88 7.98-13.5s-1.62-9.9-7.32-12.3l-14.22 21.36z" fill="none" stroke="#808386" stroke-miterlimit="10" stroke-width=".18"/>
    <path d="m201.39 200.16c0.447-1.418-0.123-2.862-1.273-3.225-1.151-0.362-2.445 0.494-2.893 1.912-0.447 1.418 0.124 2.862 1.274 3.225 1.15 0.362 2.445-0.494 2.892-1.912z" fill="none" stroke="#808386" stroke-miterlimit="10" stroke-width=".18"/>
    <path d="m64.206 152.58 1.62 32.94s0.72 11.07 10.44 14.49 49.59 19.08 49.59 19.08 4.77 5.58 11.25 5.13 33.03-7.02 39.78-17.91 4.59-23.04 4.59-23.04-1.53-6.12 1.08-11.52l-54.45-28.71s-2.61-0.45-3.6-0.27c0 0-12.24-8.37-17.82-7.29s-17.1 4.86-17.1 4.86-4.353 0.923-6.047 0.327z" fill="#fff"/>
    <path d="m64.206 152.58 1.62 32.94s0.72 11.07 10.44 14.49 49.59 19.08 49.59 19.08 4.77 5.58 11.25 5.13 33.03-7.02 39.78-17.91 4.59-23.04 4.59-23.04-1.53-6.12 1.08-11.52l-54.45-28.71s-2.61-0.45-3.6-0.27c0 0-12.24-8.37-17.82-7.29s-17.1 4.86-17.1 4.86-4.353 0.923-6.047 0.327z" fill="none" stroke="#808386" stroke-miterlimit="10" stroke-width=".72"/>
    <path d="m101.08 159.18c0 4.604 3.682 8.337 8.223 8.337 4.542 0 8.224-3.733 8.224-8.337 0-4.605-3.682-8.337-8.224-8.337-4.541 0-8.223 3.732-8.223 8.337z" fill="none" stroke="#808386" stroke-miterlimit="10" stroke-width=".18"/>
    <path d="m65.376 176.11 5.76 7.155s3.24 4.185 9.945 2.115c4.926-1.521 11.205-5.045 15.975-9.27 3.15-2.79 5.288-6.615 5.603-11.88" fill="none" stroke="#808386" stroke-miterlimit="10" stroke-width=".18"/>
    <path d="m90.081 147.54s0.405 0.18 1.26 0.09 28.125-5.085 33.165-4.68" fill="none" stroke="#808386" stroke-miterlimit="10" stroke-width=".18"/>
    <path d="m90.486 149.16s0.405 0.18 1.26 0.09 27.54-4.613 32.693-4.793c0 0 2.43-0.067 2.587 0.968 0.143 0.944-0.09 2.07 1.26 2.61s52.83 27.315 52.83 27.315" fill="none" stroke="#808386" stroke-miterlimit="10" stroke-width=".18"/>
    <path d="m127.51 166.65c-2.777 6.203-9.163 16.241-20.182 21.588l3.906-15.363 18.09-17.55 0.052 0.026c0.136 2.514 0.034 7.055-1.866 11.299" fill="#f1f2f2"/>
    <path d="m110.08 158.61c0-0.634-0.514-1.148-1.148-1.148-0.633 0-1.147 0.514-1.147 1.148s0.514 1.148 1.147 1.148c0.634 0 1.148-0.514 1.148-1.148z" fill="none" stroke="#808386" stroke-miterlimit="10" stroke-width=".18"/>
    <path d="m80.285 201.5s7.2 0.12 12.841-3.66l53.879 22.74s-0.84 1.62-5.819 2.88" fill="none" stroke="#808386" stroke-miterlimit="10" stroke-width=".18"/>
    <path d="m106.81 188.67-2.94 1.98v2.94l44.22 20.1s6.975 0.499 11.4-1.38c4.38-1.86 14.52-8.16 18.24-19.98 0 0 3.42-11.64-2.28-15s-46.26-23.76-46.26-23.76 1.14 6.96-1.68 13.26-9.36 16.56-20.7 21.84z" fill="none" stroke="#808386" stroke-miterlimit="10" stroke-width=".18"/>
    <path d="m145.53 163.78s1.146 7.25-1.674 13.55-9.487 14.323-20.827 19.603l5.257 2.177 1.8 2.475 2.745-0.315 1.931 0.939c11.34-5.28 17.749-13.224 20.569-19.524s1.616-13.096 1.616-13.096z" fill="#dddedf"/>
    <path d="m145.53 163.78s1.146 7.25-1.674 13.55-9.487 14.323-20.827 19.603l5.257 2.177 1.8 2.475 2.745-0.315 1.931 0.939c11.34-5.28 17.749-13.224 20.569-19.524s1.616-13.096 1.616-13.096z" fill="none" stroke="#808386" stroke-miterlimit="10" stroke-width=".18"/>
    <path d="m107.23 188.8 0.405 1.755 20.655 8.55 1.8 2.475 2.745-0.315 14.625 7.245s11.52 3.96 20.34-8.505 6.39-19.305 4.05-21.555-8.415-5.58-12.15-7.47-30.375-15.48-30.375-15.48l-18.09 17.55z" fill="none" stroke="#808386" stroke-miterlimit="10" stroke-width=".18"/>
    <path d="m177.82 192.33c-3.72 11.82-13.86 18.119-18.24 19.979-4.425 1.879-11.4 1.381-11.4 1.381l-44.22-20.101v-2.939l2.94-1.981c0.175-0.08 0.346-0.168 0.518-0.252l3.907-15.362 18.09-17.55s0.021 0.011 0.052 0.026c-0.066-1.217-0.187-1.961-0.187-1.961s40.56 20.399 46.26 23.76c5.7 3.36 2.28 15 2.28 15z" fill="none" stroke="#808386" stroke-miterlimit="10" stroke-width=".72"/>
    <path d="m89.569 161.73c3.313-9.261 0.613-18.696-6.031-21.072-6.644-2.377-14.715 3.205-18.028 12.466s-0.613 18.694 6.031 21.071c6.643 2.377 14.715-3.204 18.028-12.465z" fill="none" stroke="#808386" stroke-miterlimit="10" stroke-width=".18"/>
    <path d="m44.539 183.48c5.676-2.498 13.103-5.74 19.597-8.568 9.204-4.009 15.779-12.373 17.502-22.263l4.781-27.431c0.727-4.17-3.543-7.429-7.373-5.629l-20.781 9.766c-7.591 3.567-13.054 10.505-14.742 18.72l-6.094 29.661c-0.841 4.092 3.286 7.426 7.11 5.744" fill="#fff"/>
    <path d="m44.539 183.48c5.676-2.498 13.103-5.74 19.597-8.568 9.204-4.009 15.779-12.373 17.502-22.263l4.781-27.431c0.727-4.17-3.543-7.429-7.373-5.629l-20.781 9.766c-7.591 3.567-13.054 10.505-14.742 18.72l-6.094 29.661c-0.841 4.092 3.286 7.426 7.11 5.744z" fill="none" stroke="#808386" stroke-miterlimit="10" stroke-width=".72"/>
    <path d="m55.986 178.71s-0.667 7.806 1.68 10.74c2.64 3.3 5.759 4.2 5.759 4.2l6.661 2.1" fill="none" stroke="#808386" stroke-miterlimit="10" stroke-width=".18"/>
    <path d="m42.289 181.68c5.676-2.498 13.103-5.739 19.597-8.568 9.204-4.009 15.779-12.373 17.502-22.263l4.781-27.431c0.727-4.17-3.543-7.429-7.373-5.629l-20.781 9.766c-7.591 3.567-13.054 10.505-14.742 18.72l-6.094 29.661c-0.841 4.092 3.286 7.426 7.11 5.744" fill="#fff"/>
    <path d="m42.289 181.68c5.676-2.498 13.103-5.739 19.597-8.568 9.204-4.009 15.779-12.373 17.502-22.263l4.781-27.431c0.727-4.17-3.543-7.429-7.373-5.629l-20.781 9.766c-7.591 3.567-13.054 10.505-14.742 18.72l-6.094 29.661c-0.841 4.092 3.286 7.426 7.11 5.744z" fill="none" stroke="#808386" stroke-miterlimit="10" stroke-width=".72"/>
    <path d="m80.214 124.82c0.436-1.446-0.077-2.88-1.146-3.202-1.068-0.322-2.288 0.589-2.724 2.036-0.436 1.446 0.077 2.88 1.146 3.201 1.068 0.323 2.288-0.589 2.724-2.035z" fill="none" stroke="#808386" stroke-miterlimit="10" stroke-width=".18"/>
    <path d="m42.591 175.27c0.436-1.446-0.077-2.88-1.146-3.202-1.068-0.322-2.288 0.589-2.724 2.036-0.436 1.446 0.077 2.879 1.146 3.201 1.068 0.323 2.288-0.589 2.724-2.035z" fill="none" stroke="#808386" stroke-miterlimit="10" stroke-width=".18"/>
    <path d="m71.509 153.93c3.314-9.261 0.613-18.696-6.03-21.072-6.645-2.377-14.716 3.204-18.028 12.465-3.314 9.261-0.614 18.695 6.03 21.072 6.643 2.377 14.715-3.204 18.028-12.465z" fill="none" stroke="#808386" stroke-miterlimit="10" stroke-width=".18"/>
    <path d="m152.42 179.13c0.081-0.23-0.053-0.316-0.243-0.351s-0.365-6e-3 -0.447 0.224c-0.081 0.23 0.036 0.366 0.226 0.401s0.382-0.044 0.464-0.274" fill="#bdbfc1"/>
    <path d="m154.06 179.45c0.081-0.23-0.053-0.316-0.243-0.351-0.191-0.035-0.366-6e-3 -0.447 0.224s0.035 0.366 0.225 0.401c0.191 0.035 0.383-0.044 0.465-0.274" fill="#bdbfc1"/>
    <path d="m155.58 177.41c0.045-0.127-0.026-0.193-0.073-0.283-0.038-0.073-0.122-0.197-0.207-0.212-0.119-0.022-0.167 0.047-0.268 0.146-0.061 0.06-0.112 0.136-0.142 0.222s0 0.154 0.013 0.228c0.023 0.122 0.095 0.147 0.214 0.169 0.19 0.035 0.382-0.04 0.463-0.27" fill="#bdbfc1"/>
    <path d="m147.82 183.57c0.108-0.061 0.124-0.073 0.171-0.207 0.081-0.229-7e-3 -0.351-0.197-0.386-0.191-0.035-0.412 0.03-0.493 0.26s-0.052 0.317 0.138 0.352c0.08 0.015 0.303 0.025 0.381-0.019" fill="#bdbfc1"/>
    <path d="m145.19 185.3c0.071-0.049 0.17-0.106 0.202-0.197 0.062-0.176 0.021-0.261-0.124-0.288-0.146-0.027-0.307 0.06-0.369 0.236s-0.029 0.295 0.117 0.322c0.07 0.013 0.107-0.028 0.174-0.073" fill="#bdbfc1"/>
    <path d="m153.12 176.56c0.062-0.176-5e-3 -0.34-0.151-0.367s-0.314 0.094-0.377 0.27c-0.062 0.176 6e-3 0.341 0.151 0.367 0.146 0.027 0.315-0.094 0.377-0.27" fill="#bdbfc1"/>
    <path d="m155.2 172.59c0.089-0.064 0.283-0.145 0.323-0.26 0.034-0.095-0.013-0.123-0.033-0.201-0.028-0.111-0.053-0.258-0.164-0.278-0.112-0.021-0.177 0.079-0.275 0.167-0.069 0.062-0.184 0.09-0.217 0.185-0.081 0.23-0.06 0.309 0.13 0.344 0.096 0.018 0.147 0.107 0.236 0.043" fill="#bdbfc1"/>
    <path d="m153.9 174.15c0.064-0.041 0.142-0.076 0.17-0.156 0.053-0.149-1e-3 -0.221-0.125-0.244-0.123-0.023-0.27 0.012-0.323 0.161-0.052 0.149 5e-3 0.289 0.129 0.311 0.056 0.011 0.095-0.037 0.149-0.072" fill="#bdbfc1"/>
    <path d="m145.94 183.12c0.023-0.064-0.042-0.099-0.057-0.151-0.02-0.069-0.061-0.076-0.131-0.089-0.123-0.023-0.207 9e-3 -0.259 0.158-0.028 0.078 0.01 0.123 0.036 0.181 0.024 0.052 0.033 0.12 0.092 0.13 0.123 0.023 0.266-0.08 0.319-0.229" fill="#bdbfc1"/>
    <path d="m137.53 189.24c0.037-0.035 0.123-0.048 0.142-0.1 0.046-0.129 0.063-0.218-0.043-0.237-0.107-0.02-0.297 0.037-0.342 0.165-0.046 0.129 4e-3 0.249 0.11 0.268 0.062 0.012 0.078-0.047 0.133-0.096" fill="#bdbfc1"/>
    <path d="m150.43 175.54c0.045-0.128-4e-3 -0.248-0.111-0.267-0.106-0.02-0.229 0.068-0.274 0.196-0.046 0.129 4e-3 0.249 0.11 0.269 0.107 0.019 0.23-0.069 0.275-0.198" fill="#bdbfc1"/>
    <path d="m156.54 175.33c0.027-0.078 0.017-0.138-0.017-0.188-0.022-0.033-0.081-0.051-0.122-0.059-0.107-0.019-0.167 0.027-0.212 0.156-0.015 0.042 0.017 0.096 0.022 0.133 9e-3 0.075 0.017 0.121 0.089 0.134 0.106 0.02 0.194-0.048 0.24-0.176" fill="#bdbfc1"/>
    <path d="m147.84 179.65c0.06-0.034 0.125-0.067 0.152-0.142 0.02-0.059 0.108-0.145 0.093-0.192-0.019-0.054-0.094-0.108-0.151-0.119-0.077-0.014-0.184 0.083-0.243 0.156-0.022 0.028-0.072 0.049-0.085 0.084-0.045 0.128-0.023 0.24 0.084 0.26 0.044 8e-3 0.106-0.023 0.15-0.047" fill="#bdbfc1"/>
    <path d="m149.33 175.62c0.06-0.036 0.125-0.068 0.152-0.142 0.02-0.06 0.108-0.146 0.093-0.192-0.019-0.054-0.094-0.108-0.151-0.12-0.077-0.013-0.184 0.084-0.242 0.157-0.023 0.028-0.073 0.049-0.085 0.084-0.046 0.127-0.024 0.239 0.083 0.259 0.044 8e-3 0.106-0.022 0.15-0.046" fill="#bdbfc1"/>
    <path d="m151.73 178.27c0.06-0.034 0.126-0.067 0.152-0.142 0.02-0.059 0.108-0.145 0.092-0.192-0.018-0.054-0.093-0.108-0.15-0.119-0.077-0.014-0.184 0.083-0.243 0.156-0.022 0.028-0.072 0.049-0.084 0.084-0.046 0.128-0.024 0.24 0.083 0.26 0.044 8e-3 0.106-0.022 0.15-0.047" fill="#bdbfc1"/>
    <path d="m150.81 180.86c0.06-0.034 0.126-0.067 0.152-0.142 0.02-0.059 0.109-0.145 0.093-0.192-0.018-0.054-0.094-0.108-0.151-0.119-0.077-0.014-0.184 0.083-0.242 0.156-0.023 0.027-0.073 0.049-0.085 0.084-0.046 0.128-0.024 0.24 0.083 0.26 0.044 8e-3 0.107-0.023 0.15-0.047" fill="#bdbfc1"/>
    <path d="m142.48 186.26c0.06-0.034 0.125-0.068 0.152-0.142 0.02-0.059 0.109-0.145 0.093-0.192-0.019-0.054-0.094-0.108-0.151-0.119-0.077-0.014-0.184 0.083-0.242 0.156-0.023 0.028-0.073 0.049-0.086 0.084-0.045 0.129-0.023 0.239 0.084 0.26 0.044 7e-3 0.106-0.022 0.15-0.047" fill="#bdbfc1"/>
    <path d="m150.71 181.99c0.06-0.034 0.126-0.068 0.152-0.142 0.02-0.059 0.109-0.145 0.093-0.192-0.019-0.054-0.094-0.108-0.151-0.119-0.077-0.014-0.184 0.083-0.242 0.156-0.023 0.028-0.073 0.049-0.085 0.084-0.046 0.128-0.024 0.24 0.083 0.26 0.044 8e-3 0.107-0.023 0.15-0.047" fill="#bdbfc1"/>
    <path d="m151.9 176.69c0.06-0.035 0.125-0.068 0.152-0.142 0.02-0.059 0.109-0.145 0.093-0.192-0.019-0.054-0.094-0.108-0.151-0.119-0.077-0.014-0.184 0.083-0.243 0.156-0.022 0.028-0.072 0.049-0.085 0.084-0.045 0.128-0.023 0.24 0.084 0.26 0.044 8e-3 0.106-0.023 0.15-0.047" fill="#bdbfc1"/>
    <path d="m151.42 175.52c0.06-0.035 0.125-0.067 0.152-0.142 0.02-0.059 0.108-0.145 0.093-0.192-0.019-0.054-0.095-0.108-0.151-0.119-0.077-0.014-0.184 0.083-0.243 0.156-0.022 0.028-0.072 0.049-0.085 0.084-0.045 0.128-0.023 0.24 0.083 0.26 0.045 8e-3 0.107-0.022 0.151-0.047" fill="#bdbfc1"/>
    <path d="m154.94 175.02c0.06-0.035 0.127-0.068 0.152-0.142 0.02-0.06 0.109-0.145 0.093-0.192-0.019-0.054-0.094-0.108-0.151-0.119-0.077-0.014-0.184 0.082-0.242 0.156-0.023 0.027-0.073 0.049-0.085 0.084-0.046 0.128-0.024 0.24 0.083 0.26 0.044 8e-3 0.106-0.023 0.15-0.047" fill="#bdbfc1"/>
    <path d="m152.69 174.42c0.06-0.035 0.126-0.068 0.152-0.143 0.02-0.059 0.108-0.145 0.093-0.191-0.019-0.054-0.094-0.108-0.151-0.12-0.077-0.013-0.184 0.084-0.242 0.157-0.023 0.027-0.073 0.048-0.085 0.084-0.046 0.128-0.024 0.24 0.083 0.259 0.044 9e-3 0.106-0.022 0.15-0.046" fill="#bdbfc1"/>
    <path d="m151.64 173.64c0.06-0.035 0.126-0.068 0.152-0.142 0.021-0.059 0.109-0.145 0.093-0.192-0.018-0.054-0.093-0.108-0.151-0.119-0.077-0.014-0.183 0.083-0.242 0.156-0.023 0.027-0.073 0.049-0.085 0.083-0.045 0.129-0.024 0.241 0.083 0.261 0.045 8e-3 0.107-0.023 0.15-0.047" fill="#bdbfc1"/>
    <path d="m150.08 180.47c0.06-0.035 0.126-0.068 0.151-0.142 0.021-0.059 0.11-0.145 0.093-0.192-0.018-0.054-0.093-0.108-0.151-0.119-0.076-0.014-0.183 0.083-0.241 0.156-0.024 0.028-0.073 0.049-0.085 0.084-0.047 0.129-0.024 0.24 0.083 0.26 0.044 8e-3 0.107-0.022 0.15-0.047" fill="#bdbfc1"/>
    <path d="m154.23 182.68c0.06-0.034 0.126-0.067 0.152-0.142 0.02-0.059 0.109-0.145 0.093-0.192-0.018-0.054-0.094-0.108-0.151-0.119-0.077-0.014-0.184 0.083-0.242 0.156-0.023 0.027-0.073 0.049-0.085 0.084-0.046 0.128-0.024 0.24 0.083 0.26 0.044 8e-3 0.107-0.023 0.15-0.047" fill="#bdbfc1"/>
    <path d="m153.5 182.29c0.06-0.035 0.126-0.068 0.151-0.142 0.02-0.059 0.11-0.145 0.093-0.192-0.018-0.054-0.093-0.108-0.151-0.119-0.076-0.014-0.183 0.083-0.241 0.156-0.024 0.028-0.073 0.049-0.085 0.084-0.047 0.129-0.025 0.24 0.083 0.26 0.043 8e-3 0.107-0.022 0.15-0.047" fill="#bdbfc1"/>
    <path d="m153.86 169.31c0.045-0.128-4e-3 -0.248-0.111-0.268-0.106-0.02-0.228 0.069-0.274 0.197s4e-3 0.248 0.11 0.268c0.107 0.02 0.23-0.069 0.275-0.197" fill="#bdbfc1"/>
    <path d="m143.28 185.26c0.045-0.128-4e-3 -0.248-0.111-0.268-0.106-0.019-0.229 0.069-0.274 0.197-0.046 0.129 4e-3 0.248 0.11 0.268s0.229-0.068 0.275-0.197" fill="#bdbfc1"/>
    <path d="m154.44 177.15c0.064-0.041 0.141-0.075 0.17-0.156 0.053-0.15-1e-3 -0.221-0.125-0.244-0.123-0.022-0.27 0.012-0.323 0.161-0.052 0.15 5e-3 0.289 0.129 0.312 0.056 0.01 0.095-0.038 0.149-0.073" fill="#bdbfc1"/>
    <path d="m149.17 177.73c0.045-0.128-4e-3 -0.248-0.111-0.268-0.106-0.019-0.229 0.069-0.274 0.197-0.045 0.129 4e-3 0.248 0.11 0.268 0.107 0.02 0.23-0.068 0.275-0.197" fill="#bdbfc1"/>
    <path d="m143.18 194.74c0.081-0.23-0.053-0.316-0.243-0.351s-0.365-6e-3 -0.447 0.224c-0.081 0.23 0.036 0.366 0.226 0.401s0.383-0.044 0.464-0.274" fill="#bdbfc1"/>
    <path d="m144.83 195.05c0.081-0.23-0.053-0.316-0.243-0.351-0.191-0.035-0.365-6e-3 -0.447 0.224-0.081 0.23 0.036 0.366 0.226 0.402 0.19 0.034 0.383-0.045 0.464-0.275" fill="#bdbfc1"/>
    <path d="m146.34 193.01c0.045-0.127-0.025-0.192-0.073-0.283-0.038-0.073-0.122-0.196-0.207-0.211-0.119-0.023-0.167 0.046-0.268 0.145-0.061 0.06-0.111 0.136-0.141 0.222-0.031 0.086-1e-3 0.154 0.013 0.228 0.022 0.123 0.095 0.147 0.213 0.17 0.191 0.034 0.382-0.041 0.463-0.271" fill="#bdbfc1"/>
    <path d="m138.58 199.18c0.108-0.061 0.124-0.073 0.171-0.207 0.081-0.229-7e-3 -0.351-0.197-0.386-0.191-0.035-0.412 0.03-0.493 0.259-0.081 0.23-0.052 0.318 0.138 0.353 0.08 0.015 0.303 0.025 0.381-0.019" fill="#bdbfc1"/>
    <path d="m135.95 200.9c0.071-0.049 0.17-0.106 0.202-0.197 0.062-0.176 0.021-0.261-0.125-0.288-0.145-0.027-0.306 0.06-0.368 0.236s-0.029 0.295 0.117 0.322c0.07 0.013 0.107-0.028 0.174-0.073" fill="#bdbfc1"/>
    <path d="m143.88 192.16c0.062-0.176-6e-3 -0.341-0.151-0.368-0.146-0.026-0.314 0.095-0.377 0.271-0.062 0.175 6e-3 0.34 0.151 0.367 0.146 0.027 0.315-0.094 0.377-0.27" fill="#bdbfc1"/>
    <path d="m145.96 188.19c0.089-0.064 0.283-0.145 0.324-0.26 0.033-0.095-0.014-0.123-0.033-0.202-0.029-0.11-0.053-0.257-0.165-0.278-0.112-0.02-0.176 0.08-0.275 0.168-0.069 0.061-0.183 0.09-0.217 0.185-0.081 0.23-0.06 0.309 0.131 0.344 0.095 0.017 0.146 0.107 0.235 0.043" fill="#bdbfc1"/>
    <path d="m146.64 181.17c-0.096 0.02-0.281 4e-3 -0.359 0.099-0.065 0.08-0.039 0.132-0.054 0.221-0.023 0.126-0.063 0.287 0.017 0.365 0.08 0.077 0.171 9e-3 0.283-0.03 0.079-0.028 0.181 1e-3 0.246-0.078 0.156-0.192 0.17-0.282 0.035-0.414-0.068-0.066-0.072-0.182-0.168-0.163" fill="#bdbfc1"/>
    <path d="m149.08 186.31c0.071-0.033 0.163-0.062 0.217-0.129 0.039-0.05-8e-3 -0.169 0.014-0.231 0.045-0.129 0.088-0.183 0.038-0.273-0.039-0.07-0.122-0.106-0.205-0.122-0.108-0.019-0.162 0.051-0.258 0.132-0.075 0.063-0.15 0.098-0.186 0.199-0.033 0.096 0.019 0.167 0.039 0.246 0.028 0.11 0.048 0.213 0.159 0.233 0.069 0.013 0.114-0.024 0.182-0.055" fill="#bdbfc1"/>
    <path d="m144.66 189.75c0.064-0.041 0.141-0.075 0.17-0.156 0.052-0.149-1e-3 -0.221-0.125-0.244-0.123-0.022-0.27 0.012-0.323 0.162-0.052 0.148 5e-3 0.288 0.129 0.311 0.056 0.01 0.095-0.038 0.149-0.073" fill="#bdbfc1"/>
    <path d="m136.7 198.72c0.023-0.064-0.042-0.099-0.057-0.151-0.02-0.069-0.061-0.076-0.131-0.089-0.123-0.022-0.207 9e-3 -0.259 0.158-0.028 0.078 9e-3 0.123 0.036 0.181 0.024 0.052 0.033 0.12 0.092 0.13 0.123 0.023 0.266-0.08 0.319-0.229" fill="#bdbfc1"/>
    <path d="m141.19 191.14c0.045-0.128-4e-3 -0.248-0.111-0.267-0.106-0.02-0.229 0.068-0.274 0.196-0.046 0.129 3e-3 0.248 0.11 0.268s0.23-0.068 0.275-0.197" fill="#bdbfc1"/>
    <path d="m147.31 190.93c0.026-0.078 0.017-0.137-0.017-0.188-0.022-0.033-0.082-0.051-0.123-0.058-0.106-0.02-0.165 0.026-0.211 0.155-0.015 0.042 0.018 0.096 0.022 0.133 8e-3 0.076 0.017 0.122 0.088 0.134 0.107 0.02 0.194-0.048 0.241-0.176" fill="#bdbfc1"/>
    <path d="m138.6 195.26c0.06-0.034 0.126-0.067 0.152-0.142 0.02-0.059 0.109-0.145 0.093-0.191-0.018-0.055-0.094-0.109-0.151-0.12-0.077-0.014-0.184 0.083-0.242 0.156-0.023 0.028-0.073 0.049-0.085 0.084-0.045 0.128-0.024 0.241 0.083 0.26 0.045 8e-3 0.106-0.022 0.15-0.047" fill="#bdbfc1"/>
    <path d="m140.1 191.22c0.06-0.035 0.125-0.068 0.152-0.142 0.02-0.059 0.108-0.145 0.093-0.192-0.019-0.054-0.094-0.108-0.151-0.119-0.077-0.014-0.184 0.083-0.243 0.156-0.022 0.028-0.072 0.049-0.084 0.084-0.046 0.128-0.024 0.24 0.083 0.26 0.044 8e-3 0.106-0.022 0.15-0.047" fill="#bdbfc1"/>
    <path d="m142.49 193.88c0.06-0.035 0.125-0.068 0.152-0.142 0.02-0.059 0.108-0.145 0.092-0.192-0.018-0.054-0.093-0.108-0.15-0.119-0.077-0.014-0.184 0.083-0.243 0.156-0.022 0.028-0.072 0.049-0.085 0.084-0.045 0.128-0.023 0.24 0.084 0.26 0.044 8e-3 0.106-0.023 0.15-0.047" fill="#bdbfc1"/>
    <path d="m141.57 196.46c0.06-0.034 0.126-0.068 0.152-0.142 0.02-0.059 0.109-0.145 0.093-0.192-0.018-0.054-0.094-0.108-0.151-0.119-0.077-0.014-0.184 0.083-0.243 0.156-0.022 0.027-0.072 0.049-0.084 0.084-0.046 0.128-0.024 0.24 0.083 0.259 0.044 9e-3 0.106-0.022 0.15-0.046" fill="#bdbfc1"/>
    <path d="m141.47 197.59c0.06-0.034 0.126-0.067 0.152-0.142 0.02-0.059 0.109-0.145 0.093-0.192-0.019-0.054-0.094-0.108-0.151-0.119-0.077-0.014-0.184 0.083-0.242 0.156-0.023 0.028-0.073 0.049-0.085 0.084-0.046 0.129-0.024 0.24 0.083 0.26 0.044 8e-3 0.107-0.023 0.15-0.047" fill="#bdbfc1"/>
    <path d="m142.66 192.29c0.06-0.034 0.126-0.067 0.152-0.142 0.02-0.059 0.109-0.145 0.093-0.192-0.019-0.054-0.094-0.108-0.151-0.119-0.077-0.014-0.183 0.083-0.242 0.156-0.023 0.028-0.073 0.049-0.085 0.084-0.046 0.128-0.024 0.24 0.083 0.26 0.044 8e-3 0.107-0.022 0.15-0.047" fill="#bdbfc1"/>
    <path d="m142.18 191.12c0.06-0.035 0.126-0.067 0.152-0.142 0.02-0.059 0.109-0.145 0.093-0.192-0.019-0.054-0.094-0.108-0.151-0.119-0.077-0.014-0.184 0.083-0.243 0.156-0.022 0.027-0.072 0.049-0.085 0.084-0.045 0.128-0.023 0.239 0.084 0.26 0.044 7e-3 0.106-0.022 0.15-0.047" fill="#bdbfc1"/>
    <path d="m145.7 190.62c0.06-0.034 0.126-0.068 0.152-0.142 0.02-0.059 0.109-0.145 0.093-0.192-0.019-0.054-0.094-0.108-0.151-0.119-0.077-0.014-0.184 0.082-0.242 0.156-0.023 0.027-0.073 0.049-0.085 0.084-0.046 0.128-0.024 0.24 0.083 0.26 0.044 8e-3 0.106-0.023 0.15-0.047" fill="#bdbfc1"/>
    <path d="m143.46 190.03c0.061-0.035 0.126-0.068 0.151-0.142 0.022-0.059 0.11-0.145 0.094-0.192-0.018-0.054-0.094-0.108-0.152-0.12-0.076-0.013-0.183 0.084-0.241 0.157-0.023 0.028-0.072 0.048-0.085 0.084-0.045 0.128-0.023 0.24 0.083 0.259 0.044 9e-3 0.107-0.022 0.15-0.046" fill="#bdbfc1"/>
    <path d="m142.4 189.24c0.06-0.035 0.126-0.068 0.152-0.142 0.02-0.059 0.109-0.145 0.093-0.192-0.018-0.054-0.093-0.108-0.151-0.119-0.077-0.014-0.183 0.082-0.242 0.156-0.023 0.027-0.073 0.049-0.085 0.084-0.045 0.128-0.024 0.24 0.083 0.26 0.044 8e-3 0.107-0.023 0.15-0.047" fill="#bdbfc1"/>
    <path d="m140.85 196.08c0.06-0.034 0.126-0.067 0.152-0.142 0.02-0.059 0.109-0.145 0.093-0.191-0.019-0.055-0.094-0.109-0.151-0.12-0.077-0.014-0.184 0.083-0.243 0.156-0.022 0.028-0.072 0.049-0.084 0.084-0.046 0.129-0.024 0.24 0.083 0.26 0.044 8e-3 0.107-0.022 0.15-0.047" fill="#bdbfc1"/>
    <path d="m148.82 189.45c0.066-0.025 0.119-0.045 0.146-0.12 0.038-0.109-5e-3 -0.15-0.061-0.189-0.053-0.036-0.117-0.072-0.169-0.081-0.061-0.011-0.105 0.032-0.149 0.075-0.032 0.032-0.069 0.054-0.089 0.109-0.023 0.064 4e-3 0.101 0.025 0.149 0.019 0.049 0.091 0.067 0.144 0.077 0.065 0.012 0.106-2e-3 0.153-0.02" fill="#bdbfc1"/>
    <path d="m147.53 184.68c0.045-0.128-4e-3 -0.248-0.111-0.268-0.106-0.019-0.228 0.069-0.274 0.197-0.046 0.129 3e-3 0.249 0.11 0.268 0.107 0.02 0.23-0.068 0.275-0.197" fill="#bdbfc1"/>
    <path d="m144.63 184.91c0.045-0.128-4e-3 -0.248-0.111-0.268-0.106-0.02-0.228 0.069-0.274 0.197s4e-3 0.248 0.11 0.268c0.107 0.02 0.23-0.069 0.275-0.197" fill="#bdbfc1"/>
    <path d="m147.89 186.01c0.045-0.128-4e-3 -0.248-0.111-0.268-0.106-0.019-0.229 0.069-0.274 0.197-0.046 0.129 4e-3 0.249 0.11 0.269 0.106 0.019 0.23-0.069 0.275-0.198" fill="#bdbfc1"/>
    <path d="m151.51 184.62c0.045-0.129-4e-3 -0.249-0.111-0.268-0.106-0.02-0.229 0.069-0.274 0.197-0.046 0.128 4e-3 0.248 0.11 0.268 0.107 0.02 0.229-0.069 0.275-0.197" fill="#bdbfc1"/>
    <path d="m134.05 200.86c0.045-0.128-4e-3 -0.248-0.111-0.268-0.106-0.019-0.229 0.069-0.274 0.197-0.046 0.129 4e-3 0.248 0.11 0.268 0.107 0.02 0.23-0.068 0.275-0.197" fill="#bdbfc1"/>
    <path d="m135.11 201.5c0.045-0.128-4e-3 -0.248-0.111-0.268-0.106-0.019-0.229 0.069-0.274 0.197-0.046 0.129 4e-3 0.248 0.11 0.268 0.107 0.02 0.23-0.068 0.275-0.197" fill="#bdbfc1"/>
    <path d="m145.2 192.75c0.064-0.041 0.141-0.075 0.17-0.157 0.053-0.149-1e-3 -0.22-0.125-0.243-0.123-0.022-0.27 0.012-0.323 0.161s5e-3 0.289 0.129 0.312c0.056 0.01 0.095-0.039 0.149-0.073" fill="#bdbfc1"/>
    <path d="m139.93 193.33c0.045-0.128-4e-3 -0.248-0.111-0.268-0.106-0.019-0.229 0.069-0.274 0.197-0.046 0.129 4e-3 0.248 0.11 0.268s0.229-0.068 0.275-0.197" fill="#bdbfc1"/>
    <path d="m149.04 176.19c-0.091 0.059-0.195 0.122-0.24 0.236-0.092 0.227-0.016 0.451 0.169 0.499 0.066 0.017 0.158-0.063 0.226-0.09 0.124-0.048 0.217-0.089 0.277-0.236 0.034-0.085-8e-3 -0.153-0.018-0.228-0.015-0.126-0.036-0.241-0.152-0.271-0.093-0.023-0.171 0.031-0.262 0.09" fill="#bdbfc1"/>
    <path d="m148.66 172.3c-0.032 0.081 0.01 0.126 0.037 0.186 0.021 0.049 0.07 0.132 0.123 0.146 0.074 0.019 0.107-0.023 0.174-0.084 0.04-0.036 0.074-0.082 0.095-0.137 0.023-0.054 6e-3 -0.1 0-0.148-0.01-0.08-0.055-0.099-0.129-0.119-0.119-0.03-0.241 0.011-0.3 0.156" fill="#bdbfc1"/>
    <path d="m152.23 170.07c-0.091 0.06-0.17 0.153-0.216 0.267-0.091 0.228 0.019 0.364 0.205 0.412 0.185 0.049 0.329-0.029 0.42-0.255 0.033-0.084 0.092-0.15 0.083-0.222-0.014-0.129-0.124-0.14-0.242-0.17-0.093-0.024-0.159-0.091-0.25-0.032" fill="#bdbfc1"/>
    <path d="m150.58 167.88c-0.092 0.228-0.016 0.451 0.17 0.499 0.185 0.048 0.41-0.098 0.502-0.326 0.092-0.227-0.043-0.306-0.228-0.354-0.186-0.048-0.353-0.047-0.444 0.181" fill="#bdbfc1"/>
    <path d="m145.71 185.74c-0.07 0.174-0.012 0.345 0.13 0.382 0.143 0.036 0.314-0.075 0.385-0.25 0.07-0.174 0.012-0.344-0.131-0.381-0.141-0.037-0.314 0.075-0.384 0.249" fill="#bdbfc1"/>
    <path d="m148.01 180.34c-0.091 0.059-0.285 0.129-0.332 0.242-0.037 0.095 8e-3 0.126 0.023 0.207 0.022 0.114 0.038 0.264 0.147 0.292s0.178-0.069 0.279-0.151c0.071-0.059 0.185-0.08 0.223-0.174 0.092-0.228 0.075-0.309-0.11-0.357-0.093-0.024-0.139-0.118-0.23-0.059" fill="#bdbfc1"/>
    <path d="m148.06 185.04c0.095-0.014 0.277 0.014 0.359-0.077 0.067-0.077 0.044-0.131 0.065-0.22 0.029-0.127 0.076-0.288 1e-3 -0.371-0.074-0.084-0.168-0.02-0.281 0.012-0.079 0.022-0.177-0.013-0.245 0.063-0.163 0.183-0.183 0.274-0.056 0.417 0.064 0.071 0.062 0.189 0.157 0.176" fill="#bdbfc1"/>
    <path d="m143.93 186.33c-0.071 0.028-0.164 0.052-0.22 0.117-0.041 0.047 0 0.171-0.025 0.232-0.052 0.128-0.097 0.18-0.052 0.275 0.034 0.073 0.115 0.115 0.196 0.136 0.105 0.027 0.162-0.041 0.26-0.117 0.077-0.058 0.153-0.089 0.193-0.189 0.038-0.095-9e-3 -0.171-0.025-0.252-0.022-0.113-0.036-0.219-0.145-0.247-0.066-0.017-0.113 0.018-0.182 0.045" fill="#bdbfc1"/>
    <path d="m148.74 179.93c-0.059 0.148-0.018 0.34 0.102 0.371s0.261-0.031 0.321-0.179c0.032-0.081 8e-3 -0.143-0.019-0.204-0.022-0.049-0.038-0.106-0.092-0.119-0.12-0.031-0.253-0.017-0.312 0.131" fill="#bdbfc1"/>
    <path d="m152.11 184.02c0.06-0.034 0.125-0.067 0.152-0.142 0.02-0.059 0.108-0.145 0.093-0.192-0.019-0.054-0.094-0.108-0.151-0.119-0.077-0.014-0.184 0.083-0.243 0.156-0.022 0.028-0.072 0.049-0.085 0.084-0.045 0.128-0.023 0.24 0.084 0.26 0.044 8e-3 0.106-0.023 0.15-0.047" fill="#bdbfc1"/>
    <path d="m152.29 184.7c-0.091 0.059-0.285 0.129-0.332 0.242-0.037 0.095 8e-3 0.126 0.023 0.207 0.022 0.114 0.038 0.264 0.147 0.292s0.178-0.069 0.279-0.151c0.071-0.059 0.185-0.08 0.223-0.174 0.092-0.228 0.075-0.309-0.11-0.357-0.093-0.024-0.139-0.118-0.23-0.059" fill="#bdbfc1"/>
    <path d="m153.02 184.29c-0.059 0.148-0.018 0.34 0.102 0.371s0.261-0.031 0.321-0.179c0.032-0.081 8e-3 -0.143-0.019-0.204-0.022-0.049-0.038-0.106-0.092-0.119-0.12-0.031-0.253-0.017-0.312 0.131" fill="#bdbfc1"/>
    <path d="m154.72 178.96c0.06-0.034 0.125-0.067 0.152-0.142 0.02-0.059 0.108-0.145 0.093-0.192-0.019-0.054-0.094-0.108-0.151-0.119-0.077-0.014-0.184 0.083-0.243 0.156-0.022 0.028-0.072 0.049-0.085 0.084-0.045 0.128-0.023 0.24 0.084 0.26 0.044 8e-3 0.106-0.023 0.15-0.047" fill="#bdbfc1"/>
    <path d="m154.9 179.64c-0.091 0.059-0.285 0.129-0.332 0.242-0.037 0.095 8e-3 0.126 0.023 0.207 0.022 0.114 0.038 0.264 0.147 0.292s0.178-0.069 0.279-0.151c0.071-0.059 0.185-0.08 0.223-0.174 0.092-0.228 0.075-0.309-0.11-0.357-0.093-0.024-0.139-0.118-0.23-0.059" fill="#bdbfc1"/>
    <path d="m155.62 179.23c-0.059 0.148-0.018 0.34 0.102 0.371s0.261-0.031 0.321-0.179c0.032-0.081 8e-3 -0.143-0.019-0.204-0.022-0.049-0.038-0.106-0.092-0.119-0.12-0.031-0.253-0.017-0.312 0.131" fill="#bdbfc1"/>
    <path d="m148.98 170.04c-0.06 0.148-0.01 0.293 0.111 0.324 0.12 0.031 0.266-0.064 0.325-0.212 0.06-0.147 0.01-0.292-0.11-0.323-0.121-0.031-0.267 0.063-0.326 0.211" fill="#bdbfc1"/>
    <path d="m148.11 168.44c-0.06 0.148 0.05 0.143 0.171 0.174 0.12 0.031 0.206 0.086 0.265-0.062 0.06-0.148 0.01-0.292-0.11-0.323-0.121-0.031-0.267 0.063-0.326 0.211" fill="#bdbfc1"/>
    <path d="m146.4 167.86c-0.06 0.148 0.05 0.143 0.171 0.174 0.12 0.031 0.206 0.086 0.265-0.062 0.06-0.148 0.01-0.292-0.11-0.323-0.121-0.031-0.267 0.063-0.326 0.211" fill="#bdbfc1"/>
    <path d="m147.98 166.79c-0.026 0.064 0.037 0.103 0.049 0.157 0.015 0.071 0.055 0.081 0.123 0.099 0.121 0.031 0.205 5e-3 0.264-0.144 0.031-0.076-3e-3 -0.125-0.026-0.185-0.022-0.054-0.027-0.123-0.084-0.138-0.121-0.031-0.267 0.063-0.326 0.211" fill="#bdbfc1"/>
    <path d="m149.39 181.38c-0.038 0.032-0.063 0.114-0.084 0.165-0.025 0.064 3e-3 0.122 0.021 0.172 0.017 0.051 0.022 0.094 0.074 0.107 0.104 0.027 0.229-0.055 0.281-0.182 0.031-0.076 5e-3 -0.115-0.025-0.169-0.02-0.036-0.029-0.099-0.07-0.11-0.062-0.015-0.14-0.031-0.197 0.017" fill="#bdbfc1"/>
    <path d="m152.03 186.82c0.06-0.034 0.126-0.067 0.152-0.142 0.02-0.059 0.109-0.145 0.093-0.192-0.019-0.054-0.094-0.108-0.151-0.119-0.077-0.014-0.184 0.083-0.242 0.156-0.023 0.028-0.073 0.049-0.085 0.084-0.046 0.129-0.024 0.24 0.083 0.26 0.044 8e-3 0.106-0.023 0.15-0.047" fill="#bdbfc1"/>
    <path d="m150.71 186.21c-0.039 0.032-0.063 0.114-0.084 0.165-0.026 0.064 3e-3 0.122 0.021 0.172 0.017 0.051 0.022 0.094 0.074 0.107 0.103 0.027 0.229-0.055 0.281-0.182 0.031-0.076 5e-3 -0.115-0.025-0.169-0.02-0.036-0.029-0.099-0.07-0.11-0.062-0.016-0.14-0.031-0.197 0.017" fill="#bdbfc1"/>
    <path d="m146.6 180.5c-0.051 0.127-9e-3 0.252 0.095 0.279s0.229-0.055 0.28-0.182c0.052-0.127 9e-3 -0.252-0.095-0.278-0.103-0.028-0.229 0.054-0.28 0.181" fill="#bdbfc1"/>
    <path d="m148.17 174.51c-0.051 0.033-0.096 0.057-0.122 0.12-0.051 0.127-0.027 0.198 0.076 0.225 0.052 0.013 0.116 0.029 0.167-3e-3 0.05-0.033 0.093-0.138 0.118-0.201 0.052-0.128 0.023-0.176-0.081-0.203-0.051-0.013-0.107 0.029-0.158 0.062" fill="#bdbfc1"/>
    <path d="m145.68 174.42c-0.06 0.035-0.125 0.068-0.152 0.142-0.02 0.059-0.108 0.146-0.093 0.192 0.019 0.054 0.094 0.108 0.151 0.119 0.077 0.014 0.184-0.083 0.242-0.156 0.023-0.028 0.073-0.049 0.085-0.084 0.046-0.128 0.024-0.24-0.083-0.26-0.044-8e-3 -0.106 0.023-0.15 0.047" fill="#bdbfc1"/>
    <path d="m145.85 172.3c-0.045 0.128 4e-3 0.248 0.111 0.268 0.106 0.019 0.229-0.069 0.274-0.197 0.046-0.129-4e-3 -0.248-0.11-0.268-0.107-0.02-0.229 0.068-0.275 0.197" fill="#bdbfc1"/>
    <path d="m145.97 173.84c0.091-0.059 0.194-0.122 0.24-0.236 0.092-0.227 0.016-0.451-0.17-0.499-0.065-0.017-0.158 0.063-0.226 0.09-0.123 0.048-0.217 0.089-0.276 0.236-0.035 0.085 7e-3 0.153 0.017 0.228 0.016 0.126 0.037 0.241 0.153 0.271 0.092 0.023 0.171-0.031 0.262-0.09" fill="#bdbfc1"/>
    <path d="m146.84 175.52c0.051-0.033 0.096-0.057 0.122-0.12 0.051-0.127 0.027-0.198-0.076-0.225-0.052-0.013-0.115-0.029-0.166 4e-3s-0.094 0.137-0.119 0.2c-0.052 0.128-0.023 0.176 0.081 0.203 0.051 0.013 0.107-0.029 0.158-0.062" fill="#bdbfc1"/>
    <path d="m150.77 169.9c-0.06 0.032-0.111 0.093-0.14 0.165-0.051 0.127-0.014 0.209 0.09 0.236 0.064 0.016 0.103-0.032 0.162-0.083 0.035-0.032 0.099-0.051 0.118-0.099 0.052-0.127 0.039-0.188-0.064-0.215-0.045-0.012-0.121-0.027-0.166-4e-3" fill="#bdbfc1"/>
    <path d="m146.28 183.75c-0.043 0.033-0.041 0.126-0.064 0.182-0.051 0.127-0.054 0.183 0.049 0.209 0.052 0.014 0.088-0.051 0.14-0.084 0.05-0.033 0.115-0.033 0.141-0.097 0.051-0.127 9e-3 -0.252-0.095-0.278-0.058-0.016-0.116 0.026-0.171 0.068" fill="#bdbfc1"/>
    <path d="m141.94 185.72c0.017 0.044 0.103 0.023 0.147 0.037 0.101 0.034 0.083 0.025 0.14-0.1 0.028-0.063 0.049-0.092 0.034-0.144-0.014-0.051 5e-3 -0.127-0.045-0.144-0.101-0.033-0.229 0.042-0.286 0.167-0.031 0.071-0.011 0.129 0.01 0.184" fill="#bdbfc1"/>
    <path d="m139.57 186.9c-0.043 0.034-0.041 0.127-0.064 0.183-0.051 0.127-0.054 0.183 0.049 0.209 0.052 0.013 0.088-0.05 0.14-0.084 0.05-0.033 0.115-0.033 0.14-0.097 0.052-0.128 0.01-0.252-0.094-0.278-0.058-0.015-0.116 0.025-0.171 0.067" fill="#bdbfc1"/>
    <path d="m144.9 181.9c-0.051 0.127-9e-3 0.252 0.095 0.278 0.104 0.027 0.229-0.054 0.28-0.182 0.052-0.127 9e-3 -0.251-0.095-0.278-0.103-0.027-0.229 0.055-0.28 0.182" fill="#bdbfc1"/>
    <path d="m144.5 183.87c-0.051 0.127-9e-3 0.252 0.095 0.279s0.229-0.055 0.28-0.182c0.052-0.127 9e-3 -0.252-0.095-0.278-0.103-0.027-0.229 0.054-0.28 0.181" fill="#bdbfc1"/>
    <path d="m144.95 175.61c-0.051 0.127-9e-3 0.252 0.095 0.279 0.104 0.026 0.229-0.055 0.28-0.182 0.052-0.127 9e-3 -0.252-0.095-0.279-0.103-0.026-0.229 0.055-0.28 0.182" fill="#bdbfc1"/>
    <path d="m155.89 170.02c0.05-0.141-0.032-0.194-0.149-0.215-0.116-0.022-0.224-3e-3 -0.274 0.137-0.049 0.141 0.022 0.224 0.139 0.246 0.116 0.021 0.234-0.027 0.284-0.168" fill="#bdbfc1"/>
    <path d="m146.56 179.71c0.045-0.127-0.026-0.193-0.073-0.284-0.039-0.072-0.122-0.196-0.207-0.211-0.119-0.022-0.167 0.046-0.269 0.146-0.06 0.06-0.11 0.136-0.14 0.222-0.031 0.086-2e-3 0.154 0.012 0.227 0.023 0.123 0.095 0.148 0.214 0.17 0.191 0.035 0.381-0.04 0.463-0.27" fill="#bdbfc1"/>
    <path d="m142.41 182.97c0.045-0.127-0.026-0.193-0.073-0.283-0.039-0.073-0.122-0.197-0.207-0.212-0.119-0.022-0.168 0.047-0.269 0.146-0.06 0.06-0.111 0.136-0.141 0.222s-1e-3 0.155 0.013 0.227c0.023 0.123 0.095 0.148 0.214 0.17 0.19 0.035 0.381-0.04 0.463-0.27" fill="#bdbfc1"/>
    <path d="m142.53 187.32c0.071-0.049 0.17-0.106 0.202-0.197 0.062-0.176 0.021-0.261-0.125-0.288-0.145-0.026-0.306 0.059-0.368 0.236-0.062 0.175-0.029 0.295 0.117 0.322 0.07 0.013 0.107-0.028 0.174-0.073" fill="#bdbfc1"/>
    <path d="m138.76 187.95c0.06-0.039 0.19-0.083 0.221-0.159 0.026-0.063-4e-3 -0.084-0.013-0.138-0.014-0.076-0.024-0.176-0.096-0.196s-0.118 0.044-0.186 0.099c-0.048 0.038-0.124 0.052-0.149 0.114-0.063 0.151-0.052 0.205 0.071 0.239 0.061 0.017 0.091 0.08 0.152 0.041" fill="#bdbfc1"/>
    <path d="m141.1 186.44c0.048-0.019 0.109-0.033 0.147-0.076 0.027-0.032 1e-3 -0.114 0.018-0.155 0.035-0.085 0.065-0.12 0.037-0.183-0.023-0.049-0.076-0.078-0.13-0.092-0.069-0.019-0.108 0.025-0.173 0.075-0.052 0.039-0.102 0.059-0.13 0.125-0.026 0.063 5e-3 0.114 0.015 0.168 0.014 0.076 0.023 0.147 0.095 0.166 0.044 0.012 0.075-0.011 0.121-0.028" fill="#bdbfc1"/>
    <path d="m141.38 188.01c0.044-0.038 0.081-0.088 0.105-0.147 0.063-0.151-0.023-0.21-0.146-0.243-0.123-0.034-0.188-0.015-0.251 0.135-0.027 0.067-0.081 0.121-0.068 0.177 0.016 0.071 0.092 0.052 0.16 0.071 0.075 0.021 0.131 0.066 0.2 7e-3" fill="#bdbfc1"/>
    <path d="m142.1 182.06c0.044-0.038 0.081-0.088 0.105-0.147 0.063-0.151-0.024-0.21-0.146-0.243-0.123-0.034-0.189-0.015-0.251 0.135-0.028 0.067-0.081 0.121-0.068 0.177 0.016 0.071 0.092 0.052 0.16 0.071 0.075 0.021 0.131 0.066 0.2 7e-3" fill="#bdbfc1"/>
    <path d="m137.92 188.75c0.044-0.024 0.095-0.044 0.117-0.097 0.04-0.098 8e-3 -0.149-0.071-0.171-0.08-0.021-0.177-6e-3 -0.218 0.092-0.04 0.098-8e-3 0.195 0.072 0.217 0.036 0.01 0.063-0.02 0.1-0.041" fill="#bdbfc1"/>
    <path d="m144.31 185.18c0.023-0.064-0.042-0.099-0.057-0.151-0.02-0.069-0.06-0.077-0.131-0.089-0.123-0.023-0.207 8e-3 -0.259 0.158-0.028 0.077 9e-3 0.123 0.036 0.181 0.024 0.052 0.033 0.119 0.091 0.13 0.124 0.022 0.267-0.08 0.32-0.229" fill="#bdbfc1"/>
    <path d="m142.74 180.54c0.038-0.026 0.091-0.057 0.109-0.105 0.033-0.095 0.011-0.141-0.067-0.155-0.079-0.014-0.164 0.032-0.198 0.126-0.033 0.095-0.016 0.158 0.062 0.173 0.039 7e-3 0.058-0.015 0.094-0.039" fill="#bdbfc1"/>
    <path d="m142.97 181.2c0.016-0.045-0.03-0.07-0.04-0.106-0.014-0.049-0.043-0.055-0.093-0.064-0.087-0.016-0.146 7e-3 -0.183 0.112-0.02 0.055 7e-3 0.088 0.025 0.128 0.017 0.037 0.024 0.084 0.065 0.092 0.087 0.016 0.189-0.057 0.226-0.162" fill="#bdbfc1"/>
    <path d="m138.14 188.79c-0.028 0.011-0.065 0.02-0.087 0.046-0.017 0.019-1e-3 0.068-0.011 0.093-0.02 0.051-0.038 0.071-0.02 0.109 0.013 0.029 0.046 0.045 0.078 0.054 0.041 0.01 0.064-0.017 0.104-0.047 0.03-0.023 0.06-0.035 0.076-0.075 0.015-0.037-4e-3 -0.068-0.01-0.1-9e-3 -0.045-0.015-0.087-0.058-0.098-0.026-7e-3 -0.045 7e-3 -0.072 0.018" fill="#bdbfc1"/>
    <path d="m139.39 187.66c-0.031 0.023-0.03 0.088-0.045 0.127-0.036 0.089-0.038 0.129 0.035 0.147 0.036 0.01 0.061-0.036 0.096-0.058 0.036-0.024 0.082-0.024 0.1-0.069 0.035-0.089 6e-3 -0.177-0.066-0.195-0.041-0.011-0.082 0.018-0.12 0.048" fill="#bdbfc1"/>
    <path d="m140.02 187.97c-0.03 0.075-5e-3 0.148 0.055 0.164 0.062 0.016 0.135-0.032 0.166-0.107 0.03-0.075 5e-3 -0.148-0.056-0.164-0.061-0.015-0.135 0.032-0.165 0.107" fill="#bdbfc1"/>
    <path d="m143.41 179.77c-0.03 0.075-5e-3 0.148 0.055 0.164 0.062 0.016 0.136-0.032 0.166-0.107s5e-3 -0.148-0.056-0.164c-0.061-0.015-0.135 0.032-0.165 0.107" fill="#bdbfc1"/>
    <path d="m143.42 180.59c0.015-0.042-0.028-0.064-0.037-0.098-0.013-0.044-0.039-0.049-0.085-0.057-0.08-0.015-0.133 5e-3 -0.167 0.102-0.018 0.05 6e-3 0.08 0.023 0.117 0.016 0.034 0.022 0.077 0.06 0.084 0.079 0.015 0.172-0.052 0.206-0.148" fill="#bdbfc1"/>
    <path d="m150.56 172.88c0.026-0.072-9e-3 -0.116-0.037-0.167-0.022-0.039-0.084-0.069-0.131-0.078-0.107-0.019-0.171 0.046-0.217 0.174-0.045 0.129 0.012 0.225 0.119 0.245 0.106 0.019 0.221-0.045 0.266-0.174" fill="#bdbfc1"/>
    <path d="m144.63 182.98c0.028-0.078 0.017-0.137-0.017-0.188-0.022-0.033-0.081-0.051-0.122-0.058-0.106-0.02-0.166 0.026-0.212 0.155-0.014 0.042 0.018 0.096 0.022 0.133 9e-3 0.076 0.018 0.121 0.089 0.135 0.106 0.019 0.195-0.049 0.24-0.177" fill="#bdbfc1"/>
    <path d="m144.81 177.2c0.028-0.078 0.017-0.137-0.017-0.188-0.022-0.033-0.081-0.051-0.122-0.058-0.107-0.02-0.166 0.027-0.212 0.155-0.014 0.042 0.018 0.096 0.022 0.133 9e-3 0.076 0.018 0.121 0.089 0.135 0.106 0.02 0.195-0.048 0.24-0.177" fill="#bdbfc1"/>
    <path d="m154.51 171.01c0.066-0.025 0.12-0.045 0.146-0.12 0.039-0.108-4e-3 -0.15-0.06-0.189-0.054-0.036-0.118-0.071-0.17-0.081-0.061-0.011-0.104 0.032-0.149 0.075-0.032 0.032-0.069 0.054-0.089 0.109-0.023 0.064 5e-3 0.101 0.025 0.149 0.019 0.049 0.092 0.067 0.144 0.077 0.065 0.012 0.106-2e-3 0.153-0.02" fill="#bdbfc1"/>
    <path d="m150.51 178.56c0.06-0.035 0.126-0.068 0.152-0.142 0.021-0.06 0.109-0.145 0.093-0.192-0.018-0.054-0.094-0.108-0.151-0.119-0.077-0.014-0.184 0.083-0.242 0.156-0.023 0.028-0.073 0.049-0.085 0.084-0.046 0.128-0.024 0.24 0.083 0.26 0.045 8e-3 0.106-0.023 0.15-0.047" fill="#bdbfc1"/>
    <path d="m142.63 181.73c0.044-0.014 0.08-0.024 0.1-0.073 0.03-0.072 3e-3 -0.102-0.032-0.131-0.033-0.027-0.074-0.055-0.107-0.064-0.039-0.011-0.069 0.016-0.1 0.043-0.022 0.02-0.048 0.033-0.063 0.069-0.017 0.043-1e-3 0.069 0.01 0.102 0.011 0.034 0.057 0.05 0.092 0.059 0.041 0.012 0.069 5e-3 0.1-5e-3" fill="#bdbfc1"/>
    <path d="m140.25 186.61c0.035-0.084 8e-3 -0.168-0.062-0.186-0.068-0.019-0.152 0.034-0.186 0.119-0.035 0.084-8e-3 0.167 0.06 0.186 0.069 0.019 0.153-0.034 0.188-0.119" fill="#bdbfc1"/>
    <path d="m151.9 181.55c0.064-0.041 0.141-0.075 0.17-0.156 0.052-0.149-1e-3 -0.221-0.125-0.243-0.123-0.023-0.27 0.011-0.323 0.16-0.052 0.149 5e-3 0.289 0.128 0.312 0.057 0.01 0.096-0.038 0.15-0.073" fill="#bdbfc1"/>
    <path d="m146.44 181.78c-0.053 0.034-0.167 0.075-0.193 0.141-0.023 0.055 4e-3 0.074 0.013 0.121 0.012 0.066 0.023 0.154 0.086 0.17 0.063 0.017 0.103-0.04 0.162-0.088 0.042-0.034 0.109-0.047 0.131-0.101 0.053-0.133 0.044-0.181-0.065-0.208-0.054-0.014-0.081-0.069-0.134-0.035" fill="#bdbfc1"/>
    <path d="m151.74 169.22c0.092-0.013 0.267 0.014 0.345-0.074 0.066-0.074 0.043-0.127 0.063-0.213 0.028-0.121 0.073-0.276 1e-3 -0.356-0.072-0.081-0.162-0.019-0.27 0.011-0.076 0.022-0.171-0.012-0.237 0.061-0.157 0.177-0.176 0.264-0.053 0.401 0.061 0.069 0.06 0.183 0.151 0.17" fill="#bdbfc1"/>
    <path d="m143.2 183.79c-0.051 0.127-9e-3 0.252 0.095 0.279 0.104 0.026 0.229-0.055 0.28-0.182 0.052-0.128 9e-3 -0.252-0.095-0.279-0.103-0.026-0.229 0.055-0.28 0.182" fill="#bdbfc1"/>
    <path d="m124.73 196.67c-0.123 0.015-0.142 0.019-0.238 0.124-0.164 0.18-0.13 0.326 0.032 0.433 0.161 0.106 0.39 0.132 0.554-0.048 0.165-0.18 0.172-0.272 0.01-0.378-0.068-0.045-0.269-0.141-0.358-0.131" fill="#bdbfc1"/>
    <path d="m131.8 198.69c-0.085 0.017-0.198 0.031-0.262 0.103-0.126 0.137-0.122 0.232 2e-3 0.313 0.124 0.082 0.305 0.065 0.431-0.073s0.142-0.261 0.018-0.343c-0.06-0.039-0.11-0.016-0.189 0" fill="#bdbfc1"/>
    <path d="m130.27 200.41c-0.046 0.05 0 0.107-6e-3 0.161-9e-3 0.071 0.026 0.094 0.086 0.133 0.105 0.069 0.194 0.073 0.3-0.044 0.056-0.061 0.039-0.118 0.037-0.182-2e-3 -0.057 0.016-0.122-0.034-0.155-0.105-0.069-0.276-0.03-0.383 0.087" fill="#bdbfc1"/>
    <path d="m135.93 189.85c-0.164 0.179-0.075 0.311 0.087 0.418 0.162 0.106 0.335 0.147 0.499-0.034 0.164-0.179 0.11-0.349-0.051-0.457-0.163-0.106-0.37-0.107-0.535 0.073" fill="#bdbfc1"/>
    <path d="m133.74 191.14c-0.091 0.099-0.052 0.188-0.043 0.289 7e-3 0.082 0.036 0.228 0.109 0.275 0.1 0.067 0.172 0.023 0.303-0.029 0.08-0.032 0.156-0.082 0.217-0.15 0.061-0.067 0.061-0.142 0.077-0.215 0.026-0.121-0.031-0.173-0.132-0.239-0.162-0.106-0.367-0.111-0.531 0.069" fill="#bdbfc1"/>
    <path d="m135.68 192.88c-0.127 0.138-0.127 0.316-4e-3 0.397 0.125 0.081 0.327 0.036 0.453-0.102 0.125-0.138 0.127-0.316 3e-3 -0.397-0.124-0.082-0.326-0.036-0.452 0.102" fill="#bdbfc1"/>
    <path d="m129.08 194.43c-0.126 0.138-0.127 0.316-4e-3 0.397 0.125 0.081 0.327 0.036 0.453-0.102 0.125-0.138 0.127-0.316 3e-3 -0.397-0.124-0.082-0.326-0.036-0.452 0.102" fill="#bdbfc1"/>
    <path d="m136.15 197.02c-0.126 0.138-0.127 0.316-4e-3 0.397 0.125 0.081 0.327 0.036 0.453-0.102 0.125-0.138 0.127-0.316 3e-3 -0.397-0.124-0.082-0.326-0.036-0.452 0.102" fill="#bdbfc1"/>
    <path d="m132.22 195.73c-0.106 0.024-0.317 0.023-0.399 0.114-0.067 0.074-0.035 0.118-0.048 0.198-0.017 0.113-0.051 0.258 0.043 0.321 0.095 0.062 0.194-5e-3 0.319-0.048 0.087-0.03 0.205-0.012 0.272-0.086 0.164-0.18 0.175-0.261 0.015-0.368-0.082-0.053-0.095-0.155-0.202-0.131" fill="#bdbfc1"/>
    <path d="m128.61 196.25c-0.078 3e-3 -0.175-7e-3 -0.25 0.034-0.056 0.031-0.058 0.159-0.102 0.207-0.093 0.102-0.153 0.134-0.142 0.238 8e-3 0.079 0.071 0.145 0.142 0.191 0.091 0.06 0.169 0.017 0.289-0.021 0.093-0.028 0.176-0.032 0.248-0.11 0.068-0.076 0.048-0.162 0.06-0.243 0.017-0.112 0.039-0.215-0.056-0.277-0.058-0.038-0.114-0.022-0.189-0.019" fill="#bdbfc1"/>
    <path d="m134.02 194.79c-0.075 0.013-0.16 0.014-0.217 0.078-0.107 0.117-0.085 0.204 0.02 0.273s0.253 0.094 0.36-0.023 0.108-0.268 3e-3 -0.337c-0.048-0.032-0.102-2e-3 -0.166 9e-3" fill="#bdbfc1"/>
    <path d="m132.04 192.68c-0.054 0.061-0.069 0.12-0.057 0.18 7e-3 0.039 0.054 0.078 0.089 0.101 0.091 0.06 0.164 0.04 0.256-0.06 0.03-0.033 0.022-0.096 0.033-0.132 0.02-0.073 0.03-0.119-0.031-0.158-0.09-0.06-0.198-0.031-0.29 0.069" fill="#bdbfc1"/>
    <path d="m133.4 193.59c-0.069 8e-3 -0.142 0.014-0.195 0.072-0.042 0.046-0.157 0.091-0.16 0.14-5e-3 0.058 0.044 0.137 0.093 0.169 0.065 0.043 0.2-5e-3 0.283-0.049 0.032-0.017 0.086-0.017 0.111-0.045 0.092-0.101 0.115-0.212 0.025-0.272-0.038-0.024-0.107-0.021-0.157-0.015" fill="#bdbfc1"/>
    <path d="m135.24 195.01c-0.069 8e-3 -0.142 0.014-0.195 0.072-0.043 0.046-0.157 0.091-0.161 0.14-4e-3 0.058 0.044 0.137 0.093 0.169 0.066 0.043 0.201-5e-3 0.284-0.049 0.032-0.017 0.086-0.017 0.111-0.045 0.092-0.1 0.115-0.212 0.025-0.272-0.038-0.025-0.108-0.021-0.157-0.015" fill="#bdbfc1"/>
    <path d="m130.07 193.46c-0.07-2e-3 -0.127-5e-3 -0.181 0.054-0.077 0.085-0.054 0.14-0.017 0.198 0.035 0.053 0.08 0.111 0.123 0.14 0.053 0.034 0.11 0.012 0.167-0.011 0.042-0.017 0.085-0.022 0.124-0.066 0.046-0.05 0.035-0.094 0.036-0.147 0-0.052-0.059-0.097-0.104-0.127-0.054-0.036-0.098-0.04-0.148-0.041" fill="#bdbfc1"/>
    <path d="m129.4 198.35c-0.091 0.1-0.093 0.23-3e-3 0.289 0.091 0.06 0.238 0.027 0.331-0.074 0.091-0.101 0.092-0.23 2e-3 -0.29-0.091-0.059-0.238-0.026-0.33 0.075" fill="#bdbfc1"/>
    <path d="m132.17 199.27c-0.092 0.101-0.094 0.23-4e-3 0.29 0.091 0.06 0.239 0.026 0.33-0.074 0.093-0.101 0.093-0.231 4e-3 -0.291-0.092-0.059-0.239-0.025-0.33 0.075" fill="#bdbfc1"/>
    <path d="m129.59 196.98c-0.092 0.1-0.093 0.23-3e-3 0.29 0.091 0.059 0.238 0.026 0.33-0.075s0.093-0.23 3e-3 -0.29c-0.09-0.059-0.238-0.025-0.33 0.075" fill="#bdbfc1"/>
    <path d="m134.69 191.82c-0.075 0.013-0.159 0.014-0.217 0.078-0.107 0.117-0.085 0.204 0.02 0.273 0.105 0.068 0.253 0.094 0.36-0.023 0.106-0.117 0.108-0.268 3e-3 -0.337-0.048-0.031-0.103-2e-3 -0.166 9e-3" fill="#bdbfc1"/>
    <path d="m131.5 198.08c0.132-0.133 0.145-0.313 0.028-0.402-0.116-0.089-0.318-0.053-0.451 0.08-0.132 0.133-0.145 0.313-0.028 0.402 0.116 0.089 0.319 0.053 0.451-0.08" fill="#bdbfc1"/>
    <path d="m129.06 197.81c-0.093-0.024-0.249-0.121-0.36-0.068-0.092 0.044-0.093 0.103-0.146 0.177-0.076 0.106-0.182 0.236-0.146 0.341 0.036 0.106 0.147 0.084 0.264 0.098 0.082 0.01 0.158 0.082 0.25 0.038 0.222-0.106 0.276-0.182 0.214-0.362-0.031-0.091 0.017-0.199-0.076-0.224" fill="#bdbfc1"/>
    <path d="m126.81 197.34c-0.093-0.024-0.249-0.121-0.36-0.068-0.092 0.044-0.093 0.103-0.146 0.177-0.076 0.106-0.182 0.235-0.146 0.341s0.147 0.084 0.264 0.098c0.082 0.01 0.158 0.082 0.25 0.038 0.222-0.106 0.276-0.182 0.214-0.362-0.031-0.091 0.017-0.199-0.076-0.224" fill="#bdbfc1"/>
    <path d="m133.37 198.23c0.077 1e-3 0.172 0.016 0.248-0.022 0.057-0.028 0.067-0.157 0.114-0.204 0.097-0.098 0.159-0.128 0.155-0.233-3e-3 -0.081-0.062-0.15-0.128-0.202-0.086-0.065-0.165-0.025-0.286 7e-3 -0.093 0.024-0.175 0.023-0.251 0.099-0.072 0.072-0.058 0.161-0.074 0.242-0.024 0.113-0.052 0.215 0.037 0.283 0.055 0.042 0.111 0.029 0.185 0.03" fill="#bdbfc1"/>
    <path d="m130.2 199.69c0.053-0.014 0.087-0.1 0.13-0.143 0.096-0.097 0.121-0.148 0.036-0.212-0.043-0.033-0.101 0.013-0.161 0.024-0.059 0.01-0.12-0.015-0.168 0.034-0.097 0.097-0.106 0.229-0.021 0.294 0.047 0.036 0.117 0.02 0.184 3e-3" fill="#bdbfc1"/>
    <path d="m131.88 200.27c0.097-0.098 0.107-0.229 0.022-0.294-0.086-0.065-0.233-0.038-0.33 0.059-0.096 0.097-0.106 0.228-0.021 0.293s0.233 0.039 0.329-0.058" fill="#bdbfc1"/>
    <path d="m132.57 199.15c-0.046 0.05 0 0.108-6e-3 0.161-9e-3 0.071 0.026 0.094 0.086 0.133 0.105 0.07 0.194 0.073 0.3-0.044 0.056-0.061 0.039-0.118 0.037-0.181-2e-3 -0.057 0.016-0.123-0.034-0.156-0.105-0.069-0.276-0.03-0.383 0.087" fill="#bdbfc1"/>
    <path d="m130.92 200.86c-0.056 0.061-0.069 0.12-0.057 0.18 7e-3 0.039 0.054 0.078 0.089 0.101 0.091 0.059 0.164 0.04 0.256-0.061 0.03-0.033 0.021-0.095 0.032-0.131 0.021-0.073 0.031-0.119-0.03-0.158-0.09-0.06-0.198-0.032-0.29 0.069" fill="#bdbfc1"/>
    <path d="m133.02 200.59c0.097-0.097 0.106-0.229 0.021-0.293-0.085-0.065-0.232-0.039-0.329 0.058s-0.106 0.23-0.021 0.295c0.085 0.063 0.233 0.037 0.329-0.06" fill="#bdbfc1"/>
    <path d="m153.14 177.63c-0.051 0.033-0.096 0.057-0.122 0.121-0.051 0.126-0.027 0.197 0.076 0.224 0.052 0.014 0.116 0.029 0.167-4e-3s0.093-0.137 0.119-0.2c0.051-0.128 0.022-0.176-0.082-0.203-0.051-0.013-0.107 0.029-0.158 0.062" fill="#bdbfc1"/>
    <path d="m155.87 170.89c-0.031 0.078-0.016 0.136 0.016 0.19 0.02 0.034 0.114 0.092 0.155 0.103 0.103 0.027 0.195-0.108 0.246-0.235 0.051-0.128-0.065-0.169-0.169-0.196-0.103-0.027-0.197 0.011-0.248 0.138" fill="#bdbfc1"/>
    <path d="m142.8 186.09c-0.043 0.033-0.041 0.126-0.064 0.182-0.052 0.127-0.054 0.183 0.049 0.21 0.052 0.013 0.088-0.052 0.139-0.085s0.116-0.033 0.142-0.097c0.051-0.127 9e-3 -0.252-0.095-0.278-0.058-0.016-0.116 0.026-0.171 0.068" fill="#bdbfc1"/>
    <path d="m141.23 186.76c-6e-3 0.052 0.069 0.076 0.098 0.115 0.063 0.088 0.105 0.107 0.202 0.011 0.048-0.05 0.023-0.104 0.034-0.164 0.011-0.061 0.058-0.125 0.026-0.168-0.064-0.089-0.194-0.082-0.291 0.015-0.053 0.054-0.062 0.124-0.069 0.191" fill="#bdbfc1"/>
    <path d="m139.59 185.65c-5e-3 0.053 0.069 0.077 0.098 0.116 0.063 0.087 0.105 0.106 0.202 0.01 0.048-0.049 0.023-0.103 0.034-0.163 0.011-0.061 0.058-0.126 0.026-0.169-0.064-0.088-0.194-0.081-0.29 0.016-0.054 0.053-0.063 0.123-0.07 0.19" fill="#bdbfc1"/>
    <path d="m136.09 188.85c-5e-3 0.053 0.069 0.077 0.097 0.116 0.064 0.087 0.107 0.106 0.204 0.01 0.048-0.049 0.022-0.103 0.033-0.163 0.011-0.061 0.058-0.126 0.026-0.169-0.063-0.088-0.194-0.081-0.291 0.016-0.052 0.053-0.061 0.123-0.069 0.19" fill="#bdbfc1"/>
    <path d="m140.22 184.56c0.038 0.02 0.112-0.048 0.163-0.066 0.115-0.04 0.161-0.077 0.154-0.201-4e-3 -0.062-0.066-0.052-0.105-0.079-0.04-0.027-0.059-0.092-0.117-0.073-0.115 0.04-0.203 0.173-0.196 0.297 4e-3 0.068 0.053 0.097 0.101 0.122" fill="#bdbfc1"/>
    <path d="m150.5 169.47c0.073-0.165-4e-3 -0.248-0.123-0.3s-0.234-0.052-0.307 0.113c-0.074 0.165-0.012 0.285 0.107 0.336 0.119 0.052 0.25 0.016 0.323-0.149" fill="#bdbfc1"/>
    <path d="m154.98 171.72c0.063-0.037 0.121-0.102 0.157-0.184 0.074-0.165 0.01-0.278-0.109-0.331-0.119-0.051-0.217-4e-3 -0.291 0.161-0.027 0.059-0.069 0.104-0.068 0.161 2e-3 0.098 0.073 0.116 0.149 0.148 0.059 0.027 0.099 0.082 0.162 0.045" fill="#bdbfc1"/>
    <path d="m156.24 174.92c0.075-0.033 0.086-0.039 0.129-0.135 0.073-0.165 0.028-0.27-0.09-0.322-0.119-0.051-0.267-0.03-0.341 0.134-0.073 0.166-0.063 0.236 0.056 0.288 0.05 0.022 0.192 0.059 0.246 0.035" fill="#bdbfc1"/>
    <path d="m156.2 173.31c0.074-0.165 0.037-0.341-0.082-0.393-0.119-0.051-0.274 0.041-0.348 0.205-0.074 0.166 9e-3 0.237 0.128 0.288 0.119 0.052 0.228 0.065 0.302-0.1" fill="#bdbfc1"/>
    <path d="m154.88 175.57c0.05-0.028 0.119-0.059 0.147-0.124 0.056-0.126 0.039-0.197-0.052-0.236-0.09-0.04-0.202 5e-3 -0.258 0.131-0.056 0.127-0.048 0.223 0.045 0.262 0.043 0.019 0.071-7e-3 0.118-0.033" fill="#bdbfc1"/>
    <path d="m154.8 174.46c0.021-0.046-0.018-0.081-0.022-0.123-6e-3 -0.055-0.032-0.066-0.076-0.085-0.077-0.034-0.133-0.021-0.181 0.086-0.025 0.056-5e-3 0.097 6e-3 0.144 0.011 0.043 0.01 0.095 0.047 0.111 0.077 0.034 0.178-0.026 0.226-0.133" fill="#bdbfc1"/>
    <path d="m146.86 171.97c0.041-0.092 0.021-0.19-0.046-0.219-0.066-0.029-0.153 0.022-0.194 0.115-0.042 0.092-0.022 0.19 0.045 0.218 0.066 0.03 0.154-0.021 0.195-0.114" fill="#bdbfc1"/>
    <path d="m152.19 172c0.042-0.019 0.087-0.036 0.111-0.089 0.019-0.042 0.083-0.097 0.077-0.134-6e-3 -0.044-0.049-0.096-0.085-0.111-0.048-0.021-0.126 0.039-0.17 0.087-0.017 0.019-0.051 0.028-0.063 0.054-0.041 0.092-0.037 0.18 0.029 0.209 0.028 0.012 0.071-3e-3 0.101-0.016" fill="#bdbfc1"/>
    <path d="m155.29 176.03c0.062 2e-3 0.176 0.048 0.237-0.012 0.051-0.05 0.041-0.094 0.062-0.159 0.031-0.094 0.076-0.21 0.036-0.284-0.04-0.073-0.105-0.037-0.181-0.027-0.053 7e-3 -0.113-0.034-0.163 0.016-0.122 0.119-0.143 0.186-0.075 0.311 0.034 0.062 0.021 0.153 0.084 0.155" fill="#bdbfc1"/>
    <path d="m147.91 169.8c-0.047 0.035-0.09 0.086-0.121 0.148-0.08 0.162-5e-3 0.246 0.11 0.307 0.115 0.062 0.18 0.052 0.26-0.11 0.036-0.072 0.095-0.123 0.09-0.19-6e-3 -0.084-0.082-0.077-0.146-0.111-0.071-0.036-0.118-0.1-0.193-0.044" fill="#bdbfc1"/>
    <path d="m151.94 170.63c-0.031 0.019-0.039 0.09-0.058 0.13-0.045 0.091-0.053 0.133 0.012 0.167 0.032 0.017 0.061-0.027 0.097-0.046 0.035-0.018 0.077-0.011 0.099-0.056 0.045-0.09 0.03-0.191-0.034-0.225-0.035-0.019-0.077 5e-3 -0.116 0.03" fill="#bdbfc1"/>
    <path d="m148.09 171.3c-0.031 0.02-0.039 0.091-0.059 0.131-0.044 0.09-0.052 0.133 0.012 0.167 0.032 0.017 0.062-0.028 0.097-0.047 0.036-0.018 0.078-0.01 0.1-0.055 0.045-0.091 0.03-0.192-0.034-0.226-0.036-0.019-0.077 6e-3 -0.116 0.03" fill="#bdbfc1"/>
    <path d="m151.06 173.63c-0.045 0.09-0.029 0.191 0.035 0.225 0.064 0.035 0.152-0.012 0.197-0.102s0.029-0.191-0.035-0.225-0.152 0.012-0.197 0.102" fill="#bdbfc1"/>
   </g>
  </g>
  <g transform="matrix(.35278 0 0 -.35278 -80.736 264.96)">
   <path d="m35.546 244.87s-9.6 0-9.6-9.6v-118.36s0-9.6 9.6-9.6h169.96s9.6 0 9.6 9.6v118.36s0 9.6-9.6 9.6z" fill="none" stroke="#59595b" stroke-miterlimit="10" stroke-width=".8"/>
  </g>
  <g transform="matrix(.35278 0 0 -.35278 -80.736 264.96)"></g>
 </g>
</svg>
