<?xml version="1.0" encoding="UTF-8"?>
<svg width="72.597mm" height="54.81mm" version="1.1" viewBox="0 0 72.597 54.81" xmlns="http://www.w3.org/2000/svg" xmlns:cc="http://creativecommons.org/ns#" xmlns:dc="http://purl.org/dc/elements/1.1/" xmlns:rdf="http://www.w3.org/1999/02/22-rdf-syntax-ns#">
 <title>Pregătirea probei</title>
 <defs>
  <clipPath id="clipPath1042">
   <path d="m255.08 119.96h142.67v106.48h-142.67z"/>
  </clipPath>
 </defs>
 <metadata>
  <rdf:RDF>
   <cc:Work rdf:about="">
    <dc:format>image/svg+xml</dc:format>
    <dc:type rdf:resource="http://purl.org/dc/dcmitype/StillImage"/>
    <dc:title>Pregătirea probei</dc:title>
   </cc:Work>
  </rdf:RDF>
 </metadata>
 <g transform="translate(-77.095 -3.5889)">
  <g transform="matrix(.35278 0 0 -.35278 -.838 93.114)">
   <g clip-path="url(#clipPath1042)">
    <path d="m395.36 148.99 0.215 14.008c0.611 0.28 0.948 0.583 0.948 0.899 0 1.391-6.443 2.518-14.39 2.518h-0.074-0.069c-0.824 0-1.63-0.014-2.413-0.04-6.728-0.211-11.834-1.24-11.834-2.478 0-0.264 0.234-0.519 0.665-0.758l-0.215-14.29c-0.432-0.239-0.666-0.493-0.666-0.758 0-1.391 6.443-2.518 14.39-2.518 7.948 0 14.39 1.127 14.39 2.518 0 0.317-0.338 0.62-0.947 0.899" fill="#fff" fill-rule="evenodd"/>
    <path d="m395.36 148.99 0.215 14.008c0.611 0.28 0.948 0.583 0.948 0.899 0 1.391-6.443 2.518-14.39 2.518h-0.074-0.069c-0.824 0-1.63-0.014-2.413-0.04-6.728-0.211-11.834-1.24-11.834-2.478 0-0.264 0.234-0.519 0.665-0.758l-0.215-14.29c-0.432-0.239-0.666-0.493-0.666-0.758 0-1.391 6.443-2.518 14.39-2.518 7.948 0 14.39 1.127 14.39 2.518 0 0.317-0.338 0.62-0.947 0.899z" fill="none" stroke="#808386" stroke-miterlimit="10" stroke-width=".669"/>
    <path d="m396.57 164.1c0-1.278-6.443-2.314-14.39-2.314s-14.39 1.036-14.39 2.314 6.443 2.314 14.39 2.314 14.39-1.036 14.39-2.314z" fill="none" stroke="#808386" stroke-miterlimit="10" stroke-width=".167"/>
    <path d="m395.28 149.38c0-1.391-6.102-2.518-13.63-2.518s-13.631 1.127-13.631 2.518" fill="none" stroke="#808386" stroke-miterlimit="10" stroke-width=".167"/>
    <path d="m394.76 164.12c0-0.759-5.696-1.373-12.723-1.373s-12.723 0.614-12.723 1.373 5.696 1.373 12.723 1.373 12.723-0.614 12.723-1.373" fill="#dddedf" fill-rule="evenodd"/>
    <path d="m394.76 164.12c0-0.759-5.696-1.373-12.723-1.373s-12.723 0.614-12.723 1.373 5.696 1.373 12.723 1.373 12.723-0.614 12.723-1.373z" fill="none" stroke="#808386" stroke-miterlimit="10" stroke-width=".167"/>
    <path d="m289.36 200.99s14.134 0.876 21.139 0.874c10.775-0.01 21.604-0.52 32.218-2.168 4.494-0.696 9.007-1.525 13.128-3.167 2.462-0.981 5.054-2.362 5.063-4.553l-0.045-0.324c-0.976-5.532-1.933-11.107-3.484-16.63-0.27-0.96-0.586-1.907-1.026-2.832-0.978-2.067-1.594-4.221-2.418-6.353-2.428-6.288-5.546-12.515-10.319-17.631-1.254-1.344-2.655-2.601-4.218-3.732l-0.067-0.049c0.028-0.051 0.057-0.103 0.085-0.154 1.545-2.828 3.116-5.774 2.817-8.955-0.089-0.95-0.327-1.936-1-2.705 0 0-0.444-0.55-0.83-0.958-2.27-2.407-5.185-4.434-8.391-6.056-4.232-2.14-9.272-3.211-14.186-3.959-2.252-0.343-4.541-0.673-6.822-0.634-0.046 1e-3 -0.092 2e-3 -0.137 4e-3 -0.146 3e-3 -0.161 1e-3 -0.239-1e-3 -2.081-0.045-4.171 0.223-6.252 0.5-4.758 0.633-9.513 1.552-13.779 3.232-4.167 1.643-7.832 4.242-10.409 7.077-0.243 0.266-0.476 0.539-0.691 0.82l-0.085 0.098c-1.163 1.336-1.154 3.197-0.895 4.764 0.264 1.602 0.938 3.15 1.667 4.676 0.362 0.758 0.751 1.509 1.161 2.251-5.01 3.612-8.255 8.441-10.878 13.306-2.117 3.927-3.692 7.989-5.204 12.129-0.509 1.393-1.211 2.749-1.621 4.013-1.287 3.971-1.992 8.049-2.779 12.113-0.374 1.933-0.734 3.868-1.074 5.802l-9e-3 0.046v0.051c-9e-3 0.054-0.013 0.109-0.01 0.168 0.059 2.013 2.531 3.592 5.135 4.607 0 0 7.081 3.299 24.455 4.33" fill="#fff" fill-rule="evenodd"/>
    <path d="m289.36 200.99s14.134 0.876 21.139 0.874c10.775-0.01 21.604-0.52 32.218-2.168 4.494-0.696 9.007-1.525 13.128-3.167 2.462-0.981 5.054-2.362 5.063-4.553l-0.045-0.324c-0.976-5.532-1.933-11.107-3.484-16.63-0.27-0.96-0.586-1.907-1.026-2.832-0.978-2.067-1.594-4.221-2.418-6.353-2.428-6.288-5.546-12.515-10.319-17.631-1.254-1.344-2.655-2.601-4.218-3.732l-0.067-0.049c0.028-0.051 0.057-0.103 0.085-0.154 1.545-2.828 3.116-5.774 2.817-8.955-0.089-0.95-0.327-1.936-1-2.705 0 0-0.444-0.55-0.83-0.958-2.27-2.407-5.185-4.434-8.391-6.056-4.232-2.14-9.272-3.211-14.186-3.959-2.252-0.343-4.541-0.673-6.822-0.634-0.046 1e-3 -0.092 2e-3 -0.137 4e-3 -0.146 3e-3 -0.161 1e-3 -0.239-1e-3 -2.081-0.045-4.171 0.223-6.252 0.5-4.758 0.633-9.513 1.552-13.779 3.232-4.167 1.643-7.832 4.242-10.409 7.077-0.243 0.266-0.476 0.539-0.691 0.82l-0.085 0.098c-1.163 1.336-1.154 3.197-0.895 4.764 0.264 1.602 0.938 3.15 1.667 4.676 0.362 0.758 0.751 1.509 1.161 2.251-5.01 3.612-8.255 8.441-10.878 13.306-2.117 3.927-3.692 7.989-5.204 12.129-0.509 1.393-1.211 2.749-1.621 4.013-1.287 3.971-1.992 8.049-2.779 12.113-0.374 1.933-0.734 3.868-1.074 5.802l-9e-3 0.046v0.051c-9e-3 0.054-0.013 0.109-0.01 0.168 0.059 2.013 2.531 3.592 5.135 4.607 0 0 7.081 3.299 24.455 4.33z" fill="none" stroke="#808386" stroke-miterlimit="10" stroke-width=".669"/>
    <path d="m340.87 132.94c-0.134-0.145-0.011-0.016-0.011-0.016 5e-3 9e-3 0.015 0.02 0.011 0.016" fill-rule="evenodd"/>
    <path d="m340.89 132.97s-0.049-0.069 0.013 0.017c3e-3 6e-3 -9e-3 -0.011-0.013-0.017" fill-rule="evenodd"/>
    <path d="m279.12 133.02s0.171-0.169 0.024-0.022c0 0-0.033 0.036-0.024 0.022" fill-rule="evenodd"/>
    <path d="m339.35 144.73c-6.05-3.633-13.052-6.719-21-7.955-6.063-0.946-12.451-0.778-18.436 0.433-6.835 1.385-13.465 4.084-18.527 7.464" fill="none" stroke="#808386" stroke-miterlimit="10" stroke-width=".167"/>
    <path d="m360.74 192.64c0-5.152-22.535-9.328-50.333-9.328-27.799 0-50.333 4.176-50.333 9.328s22.534 9.328 50.333 9.328c27.798 0 50.333-4.176 50.333-9.328z" fill="none" stroke="#808386" stroke-miterlimit="10" stroke-width=".167"/>
    <path d="m353.13 192.4c0-3.592-19.319-6.503-43.15-6.503s-43.149 2.911-43.149 6.503 19.318 6.503 43.149 6.503 43.15-2.911 43.15-6.503z" fill="none" stroke="#808386" stroke-miterlimit="10" stroke-width=".167"/>
    <path d="m310.05 198.94c-2.165 0-4.294-0.024-6.373-0.071 6.827-5.24 12.965-9.967 16.563-12.753 18.903 0.691 32.941 3.258 32.941 6.321 0 3.591-19.31 6.503-43.131 6.503" fill="#dddedf" fill-rule="evenodd"/>
    <path d="m310.05 198.94c-2.165 0-4.294-0.024-6.373-0.071 6.827-5.24 12.965-9.967 16.563-12.753 18.903 0.691 32.941 3.258 32.941 6.321 0 3.591-19.31 6.503-43.131 6.503z" fill="none" stroke="#808386" stroke-miterlimit="10" stroke-width=".167"/>
    <path d="m276.11 196.44c-5.754-1.105-9.186-2.498-9.186-4.013 0-2.202 7.262-4.149 18.372-5.325z" fill="#dddedf" fill-rule="evenodd"/>
    <path d="m276.11 196.44c-5.754-1.105-9.186-2.498-9.186-4.013 0-2.202 7.262-4.149 18.372-5.325z" fill="none" stroke="#808386" stroke-miterlimit="10" stroke-width=".167"/>
    <path d="m284.95 187.32-28.358 28.815-0.165 0.215c-0.344 0.629-0.019 1.35 0.52 1.922 2.626 2.79 6.084 5.069 9.866 6.917 0 0 0.374 0.157 0.72 0.197 0.209 0.024 0.42 0.04 0.631 0.042h0.067c0.497-8e-3 0.914-0.148 1.353-0.472 9.252-6.85 41.498-31.602 50.542-38.614 0 0-4.922-0.498-18.987-0.059-14.072 0.44-16.189 1.037-16.189 1.037" fill="#fff" fill-rule="evenodd"/>
    <path d="m284.95 187.32-28.358 28.815-0.165 0.215c-0.344 0.629-0.019 1.35 0.52 1.922 2.626 2.79 6.084 5.069 9.866 6.917 0 0 0.374 0.157 0.72 0.197 0.209 0.024 0.42 0.04 0.631 0.042h0.067c0.497-8e-3 0.914-0.148 1.353-0.472 9.252-6.85 41.498-31.602 50.542-38.614 0 0-4.922-0.498-18.987-0.059-14.072 0.44-16.189 1.037-16.189 1.037z" fill="none" stroke="#808386" stroke-miterlimit="10" stroke-width=".669"/>
   </g>
   <path d="m239.42 244.87s-9.6 0-9.6-9.6v-118.36s0-9.6 9.6-9.6h168.78s9.6 0 9.6 9.6v118.36s0 9.6-9.6 9.6z" fill="none" stroke="#59595b" stroke-miterlimit="10" stroke-width=".8"/>
  </g>
 </g>
</svg>
