<?xml version="1.0" standalone="no"?>
<!DOCTYPE svg PUBLIC "-//W3C//DTD SVG 20010904//EN"
 "http://www.w3.org/TR/2001/REC-SVG-20010904/DTD/svg10.dtd">
<svg version="1.0" xmlns="http://www.w3.org/2000/svg"
 width="700.000000pt" height="700.000000pt" viewBox="0 0 700.000000 700.000000"
 preserveAspectRatio="xMidYMid meet">
<metadata>
Created by potrace 1.14, written by Peter Selinger 2001-2017
</metadata>
<g transform="translate(0.000000,700.000000) scale(0.100000,-0.100000)"
fill="#000000" stroke="none">
<path d="M1873 6725 c-12 -9 -43 -70 -78 -157 -54 -136 -57 -147 -55 -223 7
-240 12 -211 -74 -425 -43 -107 -125 -316 -182 -463 -57 -148 -113 -285 -123
-305 -11 -20 -49 -63 -84 -95 -117 -104 -132 -131 -272 -492 -127 -328 -127
-330 -121 -394 8 -92 50 -171 135 -258 72 -74 105 -92 138 -75 10 5 27 8 38 7
11 -1 56 -5 100 -9 44 -4 91 -9 105 -11 14 -2 57 -6 95 -10 39 -3 84 -8 100
-11 17 -2 50 -7 75 -9 25 -2 63 -6 85 -9 22 -3 87 -10 145 -16 58 -6 121 -13
140 -15 19 -2 64 -7 100 -11 36 -3 72 -7 80 -9 8 -2 51 -6 95 -9 44 -4 91 -9
105 -11 14 -2 52 -6 85 -10 90 -9 205 -35 251 -57 22 -10 55 -34 73 -52 26
-26 32 -41 33 -78 1 -54 -5 -72 -49 -168 -31 -65 -259 -633 -297 -738 -7 -20
-75 -196 -150 -390 -123 -318 -141 -357 -180 -400 -174 -187 -196 -222 -196
-303 0 -19 10 -54 21 -78 24 -54 31 -32 -108 -316 -96 -194 -104 -214 -99
-257 5 -55 15 -74 53 -109 111 -102 799 -409 1075 -479 117 -30 164 -24 212
28 17 20 17 27 6 107 -18 130 -18 191 2 285 28 133 32 145 106 320 68 163 114
289 279 775 142 417 410 1228 417 1261 10 47 41 74 84 74 87 0 156 42 169 103
4 22 11 27 35 27 41 0 105 38 128 75 10 16 21 55 25 85 12 107 46 194 97 251
41 46 75 56 188 58 58 1 123 6 145 11 22 4 76 11 120 14 44 4 98 8 120 11 42
5 136 18 145 20 3 1 23 5 45 9 70 13 95 45 124 155 11 40 21 74 23 76 1 2 139
6 306 8 343 6 349 7 389 85 21 43 21 44 19 695 -2 597 -3 655 -19 684 -20 38
-50 54 -223 123 -71 28 -143 58 -161 66 -17 7 -35 14 -41 14 -5 0 -20 9 -34
19 -25 20 -95 43 -423 137 -238 69 -452 123 -665 168 -91 19 -241 51 -335 71
-930 197 -1586 377 -2118 581 -92 35 -175 64 -185 64 -10 0 -27 -7 -39 -15z"/>
</g>
</svg>
