<?xml version="1.0" encoding="UTF-8" standalone="no"?>
<!-- Created with Inkscape (http://www.inkscape.org/) -->

<svg
   width="32.335mm"
   height="6.35mm"
   version="1.1"
   viewBox="0 0 32.335 6.35"
   id="svg22"
   sodipodi:docname="xrf-pmi-logo-footer.svg"
   inkscape:version="1.1 (c68e22c387, 2021-05-23)"
   xmlns:inkscape="http://www.inkscape.org/namespaces/inkscape"
   xmlns:sodipodi="http://sodipodi.sourceforge.net/DTD/sodipodi-0.dtd"
   xmlns="http://www.w3.org/2000/svg"
   xmlns:svg="http://www.w3.org/2000/svg"
   xmlns:figma="http://www.figma.com/figma/ns">
  <defs
     id="defs26" />
  <sodipodi:namedview
     id="namedview24"
     pagecolor="#ffffff"
     bordercolor="#666666"
     borderopacity="1.0"
     inkscape:pageshadow="2"
     inkscape:pageopacity="0.0"
     inkscape:pagecheckerboard="0"
     inkscape:document-units="mm"
     showgrid="false"
     inkscape:zoom="11.013737"
     inkscape:cx="61.060112"
     inkscape:cy="11.985033"
     inkscape:window-width="1920"
     inkscape:window-height="1001"
     inkscape:window-x="-9"
     inkscape:window-y="-9"
     inkscape:window-maximized="1"
     inkscape:current-layer="g18" />
  <g
     transform="translate(-27.194 -34.247)"
     id="g20">
    <g
       transform="matrix(.26458 0 0 .26458 28.981 34.247)"
       fill="#f40"
       style="mix-blend-mode:normal"
       figma:type="vector"
       id="g18">
      <g
         transform="matrix(.85106 0 0 .85106 -20.026 -26.393)"
         aria-label="XRFPMI"
         id="g16">
        <path
           d="m32.196 44.893 10.72 14.32h-6l-7.64-10.56-7.68 10.56h-6l10.76-14.36-10.36-13.84h6l7.28 10.12 7.32-10.12h6z"
           id="path2" />
        <path
           d="m69.236 59.213h-5.6l-4.84-9q-0.68-1.28-1.68-1.8t-2.52-0.52h-3.92v11.32h-5.08v-28.2h12.48q4.8 0 7.28 2.16 2.52 2.12 2.52 6.16 0 3.24-1.84 5.36-1.8 2.08-5.12 2.72 2.24 0.6 3.6 3.16zm-11.88-15.28q2.92 0 4.28-1.08 1.36-1.12 1.36-3.4 0-2.32-1.36-3.36-1.36-1.08-4.28-1.08h-6.72v8.92z"
           id="path4" />
        <path
           d="m73.396 59.213v-28.2h18.48v4.12h-13.4v7.68h12.6v4.12h-12.6v12.28z"
           id="path6" />
        <g
           fill="#0b1c3b"
           stroke="#e6e6e6"
           id="g14">
          <path
             d="m96.476 31.013h11.16q4.44 0 6.88 2.16 2.48 2.16 2.48 6.12t-2.48 6.16-6.88 2.2h-7.88v11.56h-3.28zm10.84 13.92q6.44 0 6.44-5.64 0-5.56-6.44-5.56h-7.56v11.2z"
             style="paint-order:stroke fill markers;stroke-width:0.99922968;stroke-miterlimit:4;stroke-dasharray:none;stroke:none;fill:#cccccc"
             id="path8" />
          <path
             d="m146.24 31.013h2.68v28.2h-3l0.04-21.84-9.16 17.36h-2.32l-9.2-17.2 0.04 21.68h-3.04v-28.2h2.72l10.68 20.44z"
             style="paint-order:stroke fill markers;stroke-width:0.99922968;stroke-miterlimit:4;stroke-dasharray:none;stroke:none;fill:#cccccc"
             id="path10" />
          <path
             d="m155.92 59.213v-28.2h3.28v28.2z"
             style="paint-order:stroke fill markers;stroke-width:0.99922968;stroke-miterlimit:4;stroke-dasharray:none;stroke:none;fill:#cccccc"
             id="path12" />
        </g>
      </g>
    </g>
  </g>
</svg>
